<?xml version="1.0" encoding="UTF-8"?>
<svg xmlns="http://www.w3.org/2000/svg" version="1.1" viewBox="0 0 141.2 70.4">
  <defs>
    <style>
      .cls-1 {
        fill: #231f20;
      }

      .cls-2 {
        fill: #fff;
        fill-rule: evenodd;
      }

      .cls-3 {
        fill: #7a222c;
      }
    </style>
  </defs>
  <!-- Generator: Adobe Illustrator 28.7.7, SVG Export Plug-In . SVG Version: 1.2.0 Build 194)  -->
  <g>
    <g id="Layer_1">
      <g>
        <path class="cls-2" d="M11,70.1h119.6c5.6,0,10.2-4.6,10.2-10.2V10.9c0-5.6-4.6-10.2-10.2-10.2H11C5.4.6.8,5.2.8,10.9v49.1c0,5.6,4.6,10.2,10.2,10.2"/>
        <path class="cls-3" d="M26.1,34l15.2-16.8h-5.5v-6.1h18.8v6.1h-5.1l-14.8,16.8,15.1,19.6h5.1v6.1h-19.4v-6.1h5.1l-14.7-19.6ZM18.5,53.6V17.2h-6v-6.1h19.3v6.1h-6.1v36.4h5.5v6.1H12.6v-6.1h6Z"/>
        <path class="cls-3" d="M112.2,28.7v-3h2.1v-11.6h-2.1v-3h15.5v5.6h-3.4v-2.6h-5.4v4h4.4v3h-4.4v4.6h5.4v-2.6h3.4v5.6h-15.5ZM91.5,28.7v-3h2.4v-11.6h-2.4v-3h7.4l6.4,10.9v-8h-2.3v-3h7.9v3h-2.5v14.7h-3.9l-7.6-13v9.9h2.2v3h-7.7ZM74.4,28.7v-3h2.1v-11.6h-2.1v-3h15.5v5.6h-3.4v-2.6h-5.4v4h4.4v3h-4.4v4.6h5.4v-2.6h3.4v5.6h-15.5ZM57.2,28.7v-3h2.1v-11.6h-2.1v-3h15.5v5.6h-3.4v-2.6h-5.4v4h4.4v3h-4.4v4.6h5.4v-2.6h3.4v5.6h-15.5Z"/>
        <path class="cls-3" d="M114.7,55h2c1.8,0,3.2-.3,3.9-.8.7-.5,1.1-1.4,1.1-2.8s-.4-2.4-1.2-2.9c-.8-.6-2-.9-3.8-.9h-2v7.4ZM114.7,42.9h2c1.4,0,2.4-.2,3.1-.7.7-.5,1-1.3,1-2.5s-.3-1.8-1-2.3c-.6-.5-1.8-.7-3.4-.7h-1.8v6.3ZM104,59.7v-4.7h3.4v-18.4h-3.4v-4.7h12.7c2.8,0,4.9.2,6.3.5,1.4.3,2.5,1.1,3.5,2.4,1,1.3,1.5,2.7,1.5,4.4,0,2.7-1.3,4.6-3.9,5.7,3.3,1.3,5,3.5,5,6.7s-.5,3.4-1.6,4.7c-1,1.3-2.3,2.2-4,2.7-1.6.5-3.9.7-6.9.7h-12.7ZM86,59.7v-4.7h4.2v-18.4h-4.2v-4.7h15.7v4.7h-4.3v18.4h4.3v4.7h-15.7ZM67.3,43.1h2.5c3.1,0,4.6-1.1,4.6-3.3s-.3-1.9-1-2.4c-.7-.5-1.7-.8-2.9-.8h-3.1v6.5ZM85.2,55v4.7h-8.5l-6.3-12.2h-3.2v7.5h3.5v4.7h-14.5v-4.7h3.8v-18.4h-3.8v-4.7h16.8c3.2,0,5.4.8,6.8,2.4,1.4,1.6,2.1,3.4,2.1,5.4,0,3.2-1.6,5.4-4.8,6.9l4.5,8.4h3.6Z"/>
        <path class="cls-1" d="M41.8,17.7l-14.9,16.4,15.2,20.2h-5.9v4.7h18v-4.7h-4.7c-5.2-6.8-10.5-13.5-15.7-20.3l15.3-17.5h4.7v-4.7h-17.4v4.7h6.4l-1.1,1.2ZM19.2,17.2v37.1h-6v4.7h17.3v-4.7h-5.5V16.5h6.1v-4.7H13.3v4.7h6v.7ZM17.8,52.9V17.9h-6v-7.5h20.7v7.5h-6.1v14.6l13.3-14.6h-4.6v-7.5h20.2v7.5h-5.5l-14.1,16.2,14.6,18.8h5.5v7.5h-20.8v-7.5h4.5l-12.9-17.1v17.1h5.5v7.5H11.9v-7.5h6Z"/>
        <path class="cls-1" d="M112.9,26.4v1.6h14.1v-4.2h-2v2.6h-6.8v-6h4.4v-1.6h-4.4v-5.4h6.8v2.6h2v-4.2h-14.1v1.6h2.1v13h-2.1ZM92.2,26.4v1.6h6.3v-1.6h-2.2v-13.2l8.7,14.9h2.8v-14.7h2.5v-1.6h-6.5v1.6h2.3v11.2l-7.5-12.8h-6.3v1.6h2.4v13h-2.4ZM90.8,28.7v-3.7h2.4v-10.2h-2.4v-4.4h8.5l5.3,9.1v-4.7h-2.3v-4.4h26v7h-4.8v-2.6h-4v2.6h4.4v4.4h-4.4v3.2h4v-2.6h4.8v7h-16.9v-4.4h2.1v-10.2h-4.4v14.7h-5l-6.5-11.1v6.6h2.2v4.4h-9.1v-.7ZM75.1,26.4v1.6h14.1v-4.2h-2v2.6h-6.8v-6h4.4v-1.6h-4.4v-5.4h6.8v2.6h2v-4.2h-14.1v1.6h2.1v13h-2.1ZM73.7,28.7v-3.7h2.1v-10.2h-2.1v-4.4h16.9v7h-4.8v-2.6h-4v2.6h4.4v4.4h-4.4v3.2h4v-2.6h4.8v7h-16.9v-.7ZM57.9,26.4v1.6h14.1v-4.2h-2v2.6h-6.8v-6h4.4v-1.6h-4.4v-5.4h6.8v2.6h2v-4.2h-14.1v1.6h2.1v13h-2.1ZM56.5,28.7v-3.7h2.1v-10.2h-2.1v-4.4h16.9v7h-4.8v-2.6h-4v2.6h4.4v4.4h-4.4v3.2h4v-2.6h4.8v7h-16.9v-.7Z"/>
        <path class="cls-1" d="M116.7,55.7h-2.7v-8.8h2.7c.9,0,1.7,0,2.4.2.7.2,1.3.4,1.8.8.5.4.9.9,1.1,1.5h0c.2.6.3,1.3.3,2.1s-.1,1.4-.3,2c-.2.6-.6,1.1-1.1,1.4h0c-.8.6-2.3.9-4.3.9M115.4,54.3h1.3c1.7,0,2.8-.2,3.4-.7h0c.3-.2.4-.4.6-.8.1-.4.2-.9.2-1.5s0-1.1-.2-1.5c-.1-.4-.4-.7-.6-.9-.3-.2-.7-.4-1.3-.5-.6-.1-1.3-.2-2.1-.2h-1.3v6ZM116.7,43.6h-2.7v-7.7h2.5c.9,0,1.6,0,2.2.2.7.1,1.2.3,1.6.6.4.3.8.7,1,1.2.2.5.3,1,.3,1.7s-.1,1.3-.3,1.8c-.2.6-.5,1-1,1.3h0c-.8.6-2,.9-3.5.9ZM115.4,42.2h1.3c1.3,0,2.2-.2,2.7-.6.2-.2.4-.4.5-.7.1-.3.2-.8.2-1.3s0-.8-.2-1.1h0c-.1-.3-.3-.5-.5-.6-.2-.2-.6-.3-1.1-.4-.5-.1-1.2-.2-1.9-.2h-1.1v4.9ZM104.7,55.7v3.3h12c1.5,0,2.7,0,3.8-.2,1.1-.1,2.1-.3,2.8-.5h0c.8-.2,1.4-.5,2-.9.6-.4,1.1-.9,1.6-1.5.5-.6.8-1.2,1-2,.2-.7.4-1.5.4-2.3,0-1.4-.4-2.7-1.1-3.6-.8-1-1.9-1.8-3.4-2.4l-1.6-.6,1.6-.7c1.2-.5,2.1-1.2,2.6-2,.6-.8.9-1.9.9-3.1s-.1-1.5-.3-2.2c-.2-.7-.6-1.3-1-1.8-.5-.6-.9-1-1.5-1.4-.5-.3-1.1-.6-1.7-.7-.7-.2-1.5-.3-2.5-.4-1,0-2.2-.1-3.6-.1h-12v3.3h3.4v19.8h-3.4ZM103.3,59.7v-5.4h3.4v-17h-3.4v-6.1h13.4c1.4,0,2.7,0,3.7.1,1.1,0,2,.2,2.7.4.8.2,1.5.5,2.1.9.7.4,1.3,1,1.8,1.7.6.7,1,1.4,1.2,2.3.3.8.4,1.7.4,2.6,0,1.5-.4,2.8-1.1,3.9-.5.7-1.1,1.3-1.9,1.8,1.1.6,2,1.3,2.7,2.2.9,1.2,1.4,2.7,1.4,4.5s-.1,1.9-.4,2.8c-.3.9-.7,1.7-1.3,2.4-.6.7-1.2,1.3-1.9,1.8-.7.5-1.5.9-2.4,1.1h0c-.9.2-1.9.4-3.1.6-1.2.1-2.5.2-4,.2h-13.4v-.7ZM86.7,55.7v3.3h14.3v-3.3h-4.3v-19.8h4.3v-3.3h-14.3v3.3h4.2v19.8h-4.2ZM69.7,43.8h-3.2v-7.9h3.8c.7,0,1.3,0,1.8.2.6.2,1.1.4,1.5.7.4.3.8.8,1,1.3.2.5.3,1.1.3,1.7,0,1.3-.5,2.3-1.4,3-.9.6-2.2.9-3.8.9ZM68,42.4h1.8c1.4,0,2.4-.2,3-.7.6-.4.8-1,.8-1.9s0-.8-.2-1.1c-.1-.3-.3-.5-.6-.7h0c-.3-.2-.6-.4-1-.5-.4-.1-.9-.2-1.4-.2h-2.4v5.1ZM85.9,60.4h-9.6l-6.3-12.2h-2v6.1h3.5v6.1h-15.9v-6.1h3.8v-17h-3.8v-6.1h17.5c1.7,0,3.1.2,4.3.6,1.3.4,2.3,1.1,3,2,.8.9,1.3,1.8,1.7,2.8.4,1,.6,2,.6,3.1,0,1.7-.4,3.2-1.3,4.5-.8,1.1-1.8,2-3.2,2.7l4,7.4h7.5v-17h-4.2v-6.1h17.1v6.1h-4.3v17h4.3v6.1h-16.5ZM84.5,59v-3.3h-3.3l-5.1-9.4.7-.3c1.5-.7,2.6-1.5,3.3-2.6.7-1,1.1-2.3,1.1-3.7s-.2-1.8-.5-2.6c-.3-.8-.8-1.6-1.4-2.3-.6-.7-1.4-1.2-2.5-1.6-1.1-.4-2.3-.6-3.8-.6h-16.1v3.3h3.8v19.8h-3.8v3.3h13.1v-3.3h-3.5v-8.9h4.3l6.3,12.2h7.4Z"/>
      </g>
    </g>
  </g>
</svg>