<?xml version="1.0" encoding="UTF-8"?>
<!DOCTYPE svg PUBLIC "-//W3C//DTD SVG 1.1//EN" "http://www.w3.org/Graphics/SVG/1.1/DTD/svg11.dtd">
<!-- Creator: CorelDRAW 2021 (64-Bit Not for commercial use) -->
<svg xmlns="http://www.w3.org/2000/svg" xml:space="preserve" width="28.9371mm" height="39.3331mm" version="1.1" style="shape-rendering:geometricPrecision; text-rendering:geometricPrecision; image-rendering:optimizeQuality; fill-rule:evenodd; clip-rule:evenodd"
viewBox="0 0 2801.98 3808.63"
 xmlns:xlink="http://www.w3.org/1999/xlink"
 xmlns:xodm="http://www.corel.com/coreldraw/odm/2003">
 <defs>
  <style type="text/css">
   <![CDATA[
    .fil0 {fill:#F1CE4E;fill-rule:nonzero}
   ]]>
  </style>
 </defs>
 <g id="Layer_x0020_1">
  <metadata id="CorelCorpID_0Corel-Layer"/>
  <g>
   <path class="fil0" d="M1700.22 3121.53l-254.07 -140.92c-153.28,-32.99 -194.85,14.06 -235.77,60.37 -58.02,65.68 -115.19,130.37 -306.55,89.37 -26.11,-5.53 -42.79,-31.2 -37.26,-57.3 5.53,-26.11 31.2,-42.79 57.3,-37.26 136.53,29.25 175.12,-14.41 214.28,-58.74 33.97,-38.44 68.25,-77.24 130.09,-95.12l-1123.91 -623.33 -47.5 -26.35 0 151.83c7.47,-1.31 15.35,-0.89 23.06,1.59 0.28,0.09 99.43,32.71 158.6,129.08 13.89,22.76 6.69,52.5 -16.07,66.39 -22.76,13.89 -52.5,6.69 -66.39,-16.07 -32.89,-53.57 -81.81,-77.74 -99.2,-85.01l0 293.83 1603.39 903.61 0 -555.98zm-251.77 -2394.05l258.12 -142.88 0 -185.92 -258.12 142.88 0 185.92zm207.09 -410.65l-385.91 -213.62 -255.51 141.43 385.91 213.62 255.51 -141.43zm-362.65 -310.83l480.98 266.24c17.35,7.37 29.52,24.56 29.52,44.59l0 296.01 -0.25 0c-0.02,16.96 -9.01,33.41 -24.9,42.17l-167.16 92.53 0 1048.36 1166.12 657.14c15.79,8.85 24.69,25.26 24.71,42.17l0.07 0 0 651.86c0,18.73 -10.64,34.98 -26.2,43.02l-1000.2 610.32c-14.65,9.81 -34.15,11.24 -50.58,2.03l-1697.9 -956.87c-16.05,-7.88 -27.1,-24.39 -27.1,-43.48l0 -651.87 0.15 0 0.01 -0.37 0.01 -0.76 0.01 -0.37 0 -0.19 0.01 -0.18 0.02 -0.37 0.02 -0.38 0.01 -0.24 0.01 -0.13 0.03 -0.38 0.02 -0.37 0.07 -0.76 0.04 -0.37 0.03 -0.35 0.01 -0.03 0.04 -0.37 0.05 -0.38 0.1 -0.75 0.05 -0.37 0.06 -0.38 0.01 -0.07 0.05 -0.3 0.07 -0.38 0.07 -0.37 0.07 -0.38 0.07 -0.37 0.08 -0.37 0.03 -0.16 0.05 -0.21 0.08 -0.37 0.09 -0.37 0.09 -0.38 0.09 -0.37 0.09 -0.37 0.07 -0.25 0.03 -0.12 0.11 -0.37 0.1 -0.37 0.09 -0.3 0.02 -0.07 0.11 -0.37 0.12 -0.37 0.11 -0.35 0 -0.02 0.12 -0.37 0.13 -0.36 0.13 -0.37 0 -0.03 0.13 -0.34 0.13 -0.36 0.14 -0.37 0.02 -0.08 0.12 -0.28 0.14 -0.37 0.15 -0.36 0.05 -0.13 0.1 -0.23 0.15 -0.36 0.15 -0.37 0.08 -0.16 0.08 -0.19 0.16 -0.36 0.15 -0.36 0.1 -0.21 0.07 -0.14 0.16 -0.36 0.17 -0.36 0.13 -0.26 0.05 -0.09 0.17 -0.36 0.18 -0.35 0.15 -0.31 0.02 -0.05 0.19 -0.35 0.18 -0.35 0.19 -0.35 0.19 -0.35 0.2 -0.36 0.2 -0.35 0.02 -0.03 0.18 -0.32 0.21 -0.34 0.21 -0.34 0.03 -0.06 0.18 -0.28 0.21 -0.34 0.21 -0.34 0.06 -0.08 0.16 -0.25 0.22 -0.33 0.22 -0.33 0.08 -0.11 0.15 -0.22 0.23 -0.32 0.23 -0.32 0.09 -0.13 0.15 -0.19 0.23 -0.31 0.24 -0.32 0.12 -0.15 0.13 -0.16 0.24 -0.31 0.24 -0.3 0.15 -0.17 0.11 -0.14 0.25 -0.3 0.25 -0.3 0.15 -0.18 0.1 -0.11 0.25 -0.3 0.26 -0.29 0.18 -0.2 0.08 -0.09 0.26 -0.28 0.26 -0.29 0.21 -0.22 0.06 -0.06 0.26 -0.28 0.27 -0.27 0.24 -0.24 0.03 -0.03 0.28 -0.27 0.27 -0.27 0.27 -0.26 0.01 -0.01 0.28 -0.26 0.28 -0.26 0.28 -0.26 0.01 -0.01 0.01 -0.01 0.55 -0.49 0.29 -0.25 0.04 -0.03 0.25 -0.22 0.29 -0.24 0.3 -0.24 0.06 -0.06 0.23 -0.18 0.3 -0.24 0.3 -0.23 0.09 -0.08 0.21 -0.16 0.3 -0.22 0.3 -0.23 0.12 -0.09 0.19 -0.14 0.31 -0.23 0.31 -0.21 0.14 -0.11 0.17 -0.12 0.31 -0.21 0.31 -0.21 0.17 -0.12 0.15 -0.1 0.32 -0.21 0.32 -0.2 0.19 -0.13 0.13 -0.08 0.32 -0.2 0.32 -0.19 0.22 -0.15 0.28 -0.16 1004.41 -612.92c15.43,-9.41 34.05,-9.14 48.77,-0.9l26.66 15.02 0 -809.64 66.58 36.85 -278.77 -154.32c-15.9,-8.76 -24.89,-25.2 -24.9,-42.17l-0.25 0 0 -296.01c0,-20.03 12.18,-37.23 29.53,-44.59l349.86 -193.66c14.1,-8.08 31.96,-8.82 47.23,-0.4zm221.36 795.14l-86.55 47.91 -0.37 0.25 -0.24 0.16 -0.13 0.09 -0.38 0.25 -0.38 0.24 -0.09 0.06 -0.29 0.18 -0.38 0.24 -0.33 0.19 -0.06 0.04 -0.39 0.23 -0.39 0.22 -0.16 0.1 -0.22 0.13 -0.4 0.22 -0.39 0.22 -0.02 0 -0.74 0.4 -0.05 0.02 -0.25 0.14 -0.15 0.08 -0.41 0.2 -0.41 0.19 -0.09 0.05 -0.32 0.15 -0.41 0.19 -0.34 0.15 -0.08 0.03 -0.41 0.18 -0.42 0.18 -0.18 0.08 -0.24 0.1 -0.42 0.17 -0.43 0.17 -0.01 0 -0.41 0.16 -0.43 0.15 -0.27 0.11 -0.15 0.05 -0.44 0.15 -0.43 0.15 -0.11 0.03 -0.33 0.12 -0.44 0.14 -0.36 0.12 -0.08 0.03 -0.45 0.13 -0.44 0.14 -0.18 0.05 -0.26 0.08 -0.45 0.12 -0.45 0.12 -0.01 0.01 -0.44 0.11 -0.45 0.11 -0.28 0.07 -0.17 0.04 -0.45 0.1 -0.46 0.1 -0.1 0.02 -0.36 0.08 -0.46 0.09 -0.38 0.07 -0.09 0.01 -0.46 0.09 -0.46 0.07 -0.19 0.03 -0.27 0.05 -0.46 0.06 -0.46 0.07 -0.46 0.06 -0.46 0.05 -0.29 0.03 -0.18 0.02 -0.94 0.09 -0.1 0 -0.38 0.03 -0.47 0.03 -0.39 0.02 -0.09 0.01 -0.48 0.02 -0.47 0.02 -0.19 0 -0.29 0.01 -0.47 0.01 -0.48 0 -0.48 0 -0.47 -0.01 -0.29 -0.01 -0.19 0 -0.47 -0.02 -0.48 -0.02 -0.09 -0.01 -0.39 -0.02 -0.47 -0.03 -0.38 -0.03 -0.1 0 -0.94 -0.09 -0.18 -0.02 -0.29 -0.03 -0.46 -0.05 -0.46 -0.06 -0.46 -0.07 -0.46 -0.06 -0.27 -0.05 -0.19 -0.03 -0.46 -0.07 -0.46 -0.09 -0.09 -0.01 -0.38 -0.07 -0.46 -0.09 -0.36 -0.08 -0.1 -0.02 -0.46 -0.1 -0.45 -0.1 -0.17 -0.04 -0.28 -0.07 -0.45 -0.11 -0.44 -0.11 -0.01 -0.01 -0.45 -0.12 -0.45 -0.12 -0.26 -0.08 -0.18 -0.05 -0.44 -0.14 -0.45 -0.13 -0.08 -0.03 -0.36 -0.12 -0.44 -0.14 -0.33 -0.12 -0.11 -0.03 -0.43 -0.15 -0.44 -0.15 -0.15 -0.05 -0.27 -0.11 -0.43 -0.15 -0.41 -0.16 -0.01 0 -0.43 -0.17 -0.42 -0.17 -0.24 -0.1 -0.18 -0.08 -0.42 -0.18 -0.41 -0.18 -0.08 -0.03 -0.34 -0.15 -0.41 -0.19 -0.32 -0.15 -0.09 -0.05 -0.41 -0.19 -0.41 -0.2 -0.15 -0.08 -0.25 -0.14 -0.05 -0.02 -0.74 -0.4 -0.02 0 -0.39 -0.22 -0.4 -0.22 -0.22 -0.13 -0.16 -0.1 -0.39 -0.22 -0.39 -0.23 -0.06 -0.04 -0.33 -0.19 -0.38 -0.24 -0.29 -0.18 -0.09 -0.06 -0.38 -0.24 -0.38 -0.25 -0.13 -0.09 -0.24 -0.16 -0.37 -0.25 -171.91 -95.16 0 1575.18c0,10.56 13.09,21.11 31.06,30.36 39.22,20.16 94.63,28.8 129.75,28.8 34.64,0 86.83,-8.41 123.55,-28.03 17.08,-9.11 29.45,-19.82 29.45,-31.12l0 -1527.93zm-227.61 -295.54l-323.55 -179.1 0 185.91 388.52 215.07 0 -185.92 -64.97 -35.96zm198.49 2386.3c1.14,0.58 2.26,1.19 3.34,1.85l259.4 143.87 909.42 -541.16 -1046.21 -589.6 0 422.22c0,53.59 -33.96,91.18 -80.88,116.23 -52.07,27.81 -122.87,39.75 -168.94,39.75 -46.03,0 -119.86,-11.93 -174,-39.76 -48.42,-24.9 -83.64,-62.41 -83.64,-116.23l0 -708.21 -49.34 -27.81 -909.91 555.21 1340.78 743.63zm1065.95 322.14c-50.4,-7.07 -119.8,-2.49 -186.84,48.99 -172.45,132.4 -408.1,33.72 -408.78,33.45 -24.64,-10.13 -36.41,-38.34 -26.28,-62.98 10.13,-24.64 38.34,-36.41 62.98,-26.28 0.52,0.21 185.21,77.49 313.46,-20.97 155.54,-119.41 321.81,-55.37 356.41,-39.89l43.11 -26.31 0 -539.97 -908.1 540.38 0 553.71 754.05 -460.12zm-126.84 -338.91c31.02,0 56.18,25.16 56.18,56.18 0,31.02 -25.16,56.18 -56.18,56.18 -31.02,0 -56.18,-25.16 -56.18,-56.18 0,-31.02 25.16,-56.18 56.18,-56.18zm-957.91 420.08c31.02,0 56.18,25.16 56.18,56.18 0,31.02 -25.16,56.18 -56.18,56.18 -31.02,0 -56.18,-25.16 -56.18,-56.18 0,-31.02 25.16,-56.18 56.18,-56.18zm-791.91 -435.55c31.02,0 56.18,25.16 56.18,56.18 0,31.02 -25.16,56.18 -56.18,56.18 -31.02,0 -56.18,-25.16 -56.18,-56.18 0,-31.02 25.16,-56.18 56.18,-56.18zm-143.3 -304.25c31.02,0 56.18,25.16 56.18,56.18 0,31.02 -25.16,56.18 -56.18,56.18 -31.02,0 -56.18,-25.16 -56.18,-56.18 0,-31.02 25.16,-56.18 56.18,-56.18z"/>
  </g>
 </g>
</svg>
