<?xml version="1.0" encoding="UTF-8"?>
<!DOCTYPE svg PUBLIC "-//W3C//DTD SVG 1.1//EN" "http://www.w3.org/Graphics/SVG/1.1/DTD/svg11.dtd">
<!-- Creator: CorelDRAW 2021 (64-Bit Not for commercial use) -->
<svg xmlns="http://www.w3.org/2000/svg" xml:space="preserve" width="24.8818mm" height="32.7535mm" version="1.1" style="shape-rendering:geometricPrecision; text-rendering:geometricPrecision; image-rendering:optimizeQuality; fill-rule:evenodd; clip-rule:evenodd"
viewBox="0 0 2153.32 2834.55"
 xmlns:xlink="http://www.w3.org/1999/xlink"
 xmlns:xodm="http://www.corel.com/coreldraw/odm/2003">
 <defs>
  <style type="text/css">
   <![CDATA[
    .fil0 {fill:#F1CE4E;fill-rule:nonzero}
   ]]>
  </style>
 </defs>
 <g id="Layer_x0020_1">
  <metadata id="CorelCorpID_0Corel-Layer"/>
  <path class="fil0" d="M1649.99 2290.55l-738.45 -407.84 0 427.55 738.45 407.84 0 -427.55zm-772.7 -1592.76l323.64 -190.67 -735.94 -414.24 -333.91 192.79 746.22 412.12zm410.5 -141.78l-322.84 190.2 729.8 403.06 326.58 -180.37 -733.55 -412.89zm-1264.76 -307.65l420.09 -242.54c13.66,-7.92 29.88,-7.49 42.74,-0.3l1645.31 926.05 -0.01 0.01c6.83,3.82 12.7,9.53 16.75,16.89 3.63,6.6 5.34,13.74 5.33,20.79l0.08 526.23c0,0.85 -0.03,1.7 -0.08,2.54l0.08 522.05c0,2.6 -0.23,5.16 -0.68,7.64 0.41,2.41 0.6,4.8 0.6,7.21l0.08 526.23c0,17.27 -10.13,32.18 -24.75,39.12 -135.54,74.86 -270.61,150.4 -406.99,223.69 -13.27,11.51 -32.81,14.18 -49.1,5.24l-822.73 -454.38c-1.63,-0.77 -3.19,-1.64 -4.69,-2.6l-820.3 -453.04c-14.63,-6.94 -24.75,-21.85 -24.75,-39.12l0 -526.23c0.03,-3.21 0.42,-6.45 1.15,-9.64 -0.75,-3.19 -1.15,-6.53 -1.15,-9.94l0 -521.5 0 -4.73 0 -521.5c0.07,-7.04 1.78,-14.18 5.41,-20.79 4.21,-7.68 10.42,-13.56 17.62,-17.37zm63.51 637.63l0 423.22 311.71 175.77 0.06 -0.11 9.9 5.43 0 -426.65 -321.67 -177.65zm0 -103.01l372.96 210.31 10.52 5.82c1.58,0.75 3.12,1.6 4.59,2.54l350.38 193.51 0 -427.55 -738.45 -407.84 0 423.22zm1233.2 1211.65c109.89,60.69 219.68,122.91 330.24,182.21l0 -427.38 -330.24 -182.39 0 427.55zm747.03 -425.85c-109.89,60.86 -219.66,121.87 -330.24,181.47l0 426.59c110.57,-59.31 220.35,-121.52 330.24,-182.21l0 -425.85zm0 -526.29l-330.24 182.39 0 425.9 330.24 -182.39 0 -425.9zm0 1065.67l-330.24 182.39 0 427.38c110.57,-59.31 220.35,-121.52 330.24,-182.21l0 -427.55zm-416.79 -884.93l-738.45 -407.84 0 427.55 388.15 214.36 247.98 136.95 102.33 56.52 0 -427.55zm-416.79 296.05l-388.15 -214.36 -349.51 -193.03 -0.8 -0.44 0 427.55 738.45 407.84 0 -427.55zm-408.21 315.64l-738.45 -407.84 0 427.55 738.45 407.84 0 -427.55z"/>
 </g>
</svg>
