<?xml version="1.0" encoding="UTF-8"?>
<!DOCTYPE svg PUBLIC "-//W3C//DTD SVG 1.1//EN" "http://www.w3.org/Graphics/SVG/1.1/DTD/svg11.dtd">
<!-- Creator: CorelDRAW 2021 (64-Bit Not for commercial use) -->
<svg xmlns="http://www.w3.org/2000/svg" xml:space="preserve" width="32.6178mm" height="39.8461mm" version="1.1" style="shape-rendering:geometricPrecision; text-rendering:geometricPrecision; image-rendering:optimizeQuality; fill-rule:evenodd; clip-rule:evenodd"
viewBox="0 0 2612.73 3191.73"
 xmlns:xlink="http://www.w3.org/1999/xlink"
 xmlns:xodm="http://www.corel.com/coreldraw/odm/2003">
 <defs>
  <style type="text/css">
   <![CDATA[
    .fil0 {fill:#F1CE4E;fill-rule:nonzero}
   ]]>
  </style>
 </defs>
 <g id="Layer_x0020_1">
  <metadata id="CorelCorpID_0Corel-Layer"/>
  <path class="fil0" d="M1539.29 2763.19l-1459.18 -809.3 0 257.95 1416.99 800.63 0.01 -0.02 1.32 0.76 40.87 23.09 0 -273.12zm-307.98 -965.28c25.66,0 46.47,20.81 46.47,46.47 0,25.66 -20.81,46.47 -46.47,46.47 -25.66,0 -46.47,-20.81 -46.47,-46.47 0,-25.66 20.81,-46.47 46.47,-46.47zm407.64 348.31c25.66,0 46.47,20.81 46.47,46.47 0,25.66 -20.81,46.47 -46.47,46.47 -25.66,0 -46.47,-20.81 -46.47,-46.47 0,-25.66 20.81,-46.47 46.47,-46.47zm-121.83 -577.9c25.66,0 46.47,20.81 46.47,46.47 0,25.66 -20.81,46.47 -46.47,46.47 -25.66,0 -46.47,-20.81 -46.47,-46.47 0,-25.66 20.81,-46.47 46.47,-46.47zm46.86 -318.62c25.66,0 46.47,20.81 46.47,46.47 0,25.66 -20.81,46.47 -46.47,46.47 -25.66,0 -46.47,-20.81 -46.47,-46.47 0,-25.66 20.81,-46.47 46.47,-46.47zm-571.64 223.35c25.66,0 46.47,20.81 46.47,46.47 0,25.66 -20.81,46.47 -46.47,46.47 -25.66,0 -46.47,-20.81 -46.47,-46.47 0,-25.66 20.81,-46.47 46.47,-46.47zm117.14 -409.21c25.66,0 46.47,20.81 46.47,46.47 0,25.66 -20.81,46.47 -46.47,46.47 -25.66,0 -46.47,-20.81 -46.47,-46.47 0,-25.66 20.81,-46.47 46.47,-46.47zm-357.67 31.24c25.66,0 46.47,20.81 46.47,46.47 0,25.66 -20.81,46.47 -46.47,46.47 -25.66,0 -46.47,-20.81 -46.47,-46.47 0,-25.66 20.81,-46.47 46.47,-46.47zm-93.71 424.83c25.66,0 46.47,20.81 46.47,46.47 0,25.66 -20.81,46.47 -46.47,46.47 -25.66,0 -46.47,-20.81 -46.47,-46.47 0,-25.66 20.81,-46.47 46.47,-46.47zm-17.18 -770.01c25.66,0 46.47,20.81 46.47,46.47 0,25.66 -20.81,46.47 -46.47,46.47 -25.66,0 -46.47,-20.81 -46.47,-46.47 0,-25.66 20.81,-46.47 46.47,-46.47zm1851.6 1559.51l-124.54 -71.43 0 143.33 124.54 -71.91zm-124.54 -163.68l222.94 127.86c12.95,6.63 21.82,20.12 21.82,35.67l0 342.16 -0.14 0c-0.02,13.68 -7.06,27 -19.72,34.42l-557.53 328.47c-0.91,0.5 -317.99,177.42 -352.27,177.42 -36.84,0 -123.27,-50.89 -123.52,-51.02l0.06 -0.1 -102.24 -59.01 0.01 -0.02 -1433.46 -809.93c-14.08,-6.21 -23.92,-20.28 -23.92,-36.66l0 -348.95 0.13 0 0.01 -0.3 0.01 -0.62 0.01 -0.3 0 -0.16 0.01 -0.15 0.02 -0.3 0.02 -0.31 0.01 -0.2 0.01 -0.1 0.02 -0.31 0.02 -0.3 0.06 -0.62 0.03 -0.3 0.02 -0.29 0.01 -0.02 0.03 -0.3 0.04 -0.31 0.08 -0.62 0.04 -0.3 0.05 -0.31 0.01 -0.06 0.04 -0.25 0.06 -0.31 0.06 -0.3 0.06 -0.31 0.06 -0.3 0.06 -0.3 0.02 -0.14 0.04 -0.18 0.06 -0.3 0.07 -0.3 0.07 -0.31 0.07 -0.3 0.07 -0.3 0.06 -0.21 0.02 -0.1 0.09 -0.3 0.08 -0.3 0.07 -0.25 0.02 -0.06 0.09 -0.3 0.1 -0.3 0.09 -0.29 0 -0.02 0.1 -0.3 0.1 -0.3 0.1 -0.3 0 -0.02 0.1 -0.28 0.1 -0.3 0.11 -0.3 0.02 -0.06 0.1 -0.23 0.11 -0.3 0.12 -0.3 0.04 -0.1 0.08 -0.19 0.12 -0.3 0.12 -0.3 0.06 -0.14 0.06 -0.16 0.14 -0.3 0.13 -0.3 0.08 -0.18 0.06 -0.11 0.14 -0.3 0.14 -0.3 0.1 -0.22 0.04 -0.07 0.14 -0.3 0.15 -0.29 0.13 -0.26 0.02 -0.04 0.16 -0.29 0.15 -0.29 0.16 -0.29 0.17 -0.3 0.17 -0.3 0.18 -0.3 0.18 -0.3 0.18 -0.29 0.18 -0.29 0.18 -0.29 0.18 -0.29 0.18 -0.28 0.19 -0.29 0.18 -0.28 0.19 -0.27 0.2 -0.28 0.19 -0.27 0.19 -0.26 0.01 -0.01 0.2 -0.27 0.2 -0.26 0.2 -0.26 0 -0.01 0.21 -0.26 0.42 -0.51 0 -0.01 0.22 -0.26 0.21 -0.26 0.21 -0.24 0.01 -0.02 0.22 -0.25 0.22 -0.25 0.21 -0.23 0.01 -0.02 0.22 -0.24 0.22 -0.24 0.22 -0.23 0.01 -0.01 0.23 -0.24 0.45 -0.46 0.01 -0.02 0.47 -0.46 0.22 -0.22 0.01 -0.02 0.24 -0.22 0.24 -0.22 0.22 -0.21 0.02 -0.02 0.24 -0.22 0.25 -0.22 0.23 -0.2 0.02 -0.02 0.25 -0.21 0.25 -0.21 0.23 -0.2 0.02 -0.01 0.25 -0.21 0.26 -0.2 0.24 -0.19 0.02 -0.01 0.26 -0.2 0.26 -0.2 0.24 -0.18 0.02 -0.02 0.26 -0.19 0.26 -0.18 0.24 -0.18 0.02 -0.02 0.26 -0.18 0.26 -0.18 0.25 -0.16 0.02 -0.02 0.54 -0.35 0.25 -0.16 0.02 -0.02 0.27 -0.18 0.27 -0.17 0.25 -0.15 0.02 -0.01 0.28 -0.17 299.94 -178.45 0 -1371.27c0,-16.21 9.64,-30.17 23.49,-36.48l451.72 -260.16c12.61,-7.24 27.52,-6.82 39.36,-0.21l0.06 -0.1 1511.15 848.47c13.33,6.5 22.52,20.19 22.52,36.02l0 1256.24zm-120.17 -1255.36l-1432.91 -804.56 -374.13 215.47 1445.32 802.7 361.72 -213.61zm-400.74 283.26l-1447.28 -803.79 0 1302.91 1458.74 824.22 -11.46 -1323.35zm-227.68 1908.78c22.4,12.11 55.47,29.22 63.68,29.22 15.28,0 312.32,-166.62 313.16,-167.09l536.4 -315.84 0 -250.19 -184.68 106.63c-19.09,11.05 -43.54,4.54 -54.6,-14.55 -3.66,-6.31 -5.39,-13.22 -5.38,-20.03l-0.1 0 0 -1491 -361.03 213.21 12.06 1392.55 -0.03 0c0.06,6.74 -1.59,13.58 -5.13,19.87 -3.81,6.77 -9.31,11.99 -15.67,15.45l-298.7 162.74 0 319.03zm-39.87 -388.2l237.3 -129.24 -1456.45 -822.92 -240.14 142.82 1459.29 809.35z"/>
 </g>
</svg>
