<?xml version="1.0" encoding="UTF-8"?>
<!DOCTYPE svg PUBLIC "-//W3C//DTD SVG 1.1//EN" "http://www.w3.org/Graphics/SVG/1.1/DTD/svg11.dtd">
<!-- Creator: CorelDRAW 2021 (64-Bit Not for commercial use) -->
<svg xmlns="http://www.w3.org/2000/svg" xml:space="preserve" width="25.1732mm" height="35.4701mm" version="1.1" style="shape-rendering:geometricPrecision; text-rendering:geometricPrecision; image-rendering:optimizeQuality; fill-rule:evenodd; clip-rule:evenodd"
viewBox="0 0 461.9 650.84"
 xmlns:xlink="http://www.w3.org/1999/xlink"
 xmlns:xodm="http://www.corel.com/coreldraw/odm/2003">
 <defs>
  <style type="text/css">
   <![CDATA[
    .fil0 {fill:#F1CE4E;fill-rule:nonzero}
   ]]>
  </style>
 </defs>
 <g id="Layer_x0020_1">
  <metadata id="CorelCorpID_0Corel-Layer"/>
  <path class="fil0" d="M82.93 586.95l-64.52 -37.98 0 39.66c0,0.41 -0.03,0.81 -0.08,1.21 -0.02,0.87 0.22,4.86 5.71,7.79 7.36,3.94 48.65,25.62 58.89,31l0 -41.68zm189.7 -362.21l11.21 35.9 154.55 -158.28c9.93,-14.88 2.02,-30.68 -9.96,-46.44 -5.78,21.93 -26.97,40.19 -29.31,42.15l-126.49 126.67zm-8.28 34.91l-9.78 -31.3 -51.56 -29.58 2.23 29.91 31.99 16.77 0.31 0.16 26.8 14.05zm143.97 -228.18c-1.45,-1.79 -2.9,-3.63 -4.36,-5.53 -4.57,-4.3 -10.91,-6.99 -18.13,-7.51 -0.75,-0.05 -1.64,-0.08 -2.66,-0.08 -17.89,0 -38.41,22.15 -38.47,22.22l-137.27 139.6 53.3 30.59 125.47 -125.65c0.31,-0.35 0.65,-0.68 1.03,-0.99 0.07,-0.06 22.92,-18.77 24.28,-37.42 0.05,-0.67 0.07,-1.45 0.07,-2.33l0.04 0c0,-4.87 -1.19,-9.22 -3.3,-12.9zm15.07 -10.46c2.19,2.66 4.52,5.43 6.87,8.21l0 0.04c21.95,26.04 44.54,52.84 22.86,84.05 -0.3,0.39 -0.61,0.78 -0.97,1.15l-165.92 169.92c-2.75,2.81 -7.12,3.63 -10.79,1.72l-40.17 -21.05c-15.59,18.49 -12.84,22.76 -7.43,29.35l0.42 0.47c1.64,1.99 3.42,4.14 5.28,6.72 4.85,6.69 7.36,13.3 8.12,19.74 35.03,21.87 72.78,42.61 108.46,63.62 9.05,5.32 16.16,9.61 21.45,15.26 6.06,6.47 9.31,13.91 9.36,24.64l0.36 0 0 65.84c-0.02,3.2 -1.7,6.31 -4.7,7.99 -0.69,0.39 -240.52,135.43 -260.39,146.21 -21.32,11.57 -36.62,3.11 -39.97,0.92 -4.79,-2.51 -46.75,-24.51 -60.81,-32.03 -13.99,-7.48 -15.34,-20.19 -15.36,-24.6l-0.01 -56.19 0.03 0 0.01 -0.32c-0.58,-6.52 0.95,-20.23 14.59,-45.2 17.78,-32.54 104.61,-198.38 104.86,-198.85 0.26,-0.5 0.56,-0.96 0.9,-1.38 2.38,-3.41 12.94,-17.54 24.95,-17.54 7.13,0 41.84,19.45 66.03,33.52 -9.71,-12.11 -13.67,-21.1 7.28,-46.83l-25.86 -13.55c-3.03,-1.31 -5.25,-4.21 -5.51,-7.74l-3.88 -52.01c-0.17,-1.82 0.19,-3.7 1.17,-5.41 0.5,-0.88 1.13,-1.64 1.84,-2.28l144.97 -147.44c0.07,-0.08 25.79,-27.95 51.73,-27.95 1.21,0 2.53,0.05 3.95,0.16 11.89,0.87 22.5,5.62 30.2,13.26 2.3,2.29 4.34,4.83 6.07,7.59zm-322.11 610.49c1.89,-0.6 3.96,-1.46 6.19,-2.68 16.6,-9.01 221.76,-124.51 255.48,-143.5l0 -44.82 -261.67 146.59 0 44.4zm45.74 -192.96c-3.64,3.5 -9.44,3.39 -12.94,-0.25 -3.5,-3.64 -3.39,-9.44 0.25,-12.94l68.7 -66.03c6.96,-6.69 14.53,-14.86 18.24,-23.44 0.66,-1.53 1.2,-3.1 1.57,-4.69 -14.12,-8.51 -71.93,-43.16 -77.44,-43.16 -3.32,0 -8.52,7.46 -9.77,9.33 -3.41,6.52 -86.29,164.8 -104.88,198.85 -11.2,20.5 -13.36,28.09 -13.67,30.79l75.11 44.21 269.88 -151.19c-0.66,-2.95 -1.95,-5.25 -3.83,-7.25 -3.64,-3.89 -9.66,-7.5 -17.37,-12.04 -33.84,-19.92 -67.73,-40.61 -101.8,-60.18 -0.32,0.86 -0.67,1.72 -1.04,2.58 -4.98,11.52 -14.06,21.45 -22.32,29.39l-68.7 66.03z"/>
 </g>
</svg>
