<?xml version="1.0" encoding="UTF-8"?>
<!DOCTYPE svg PUBLIC "-//W3C//DTD SVG 1.1//EN" "http://www.w3.org/Graphics/SVG/1.1/DTD/svg11.dtd">
<!-- Creator: CorelDRAW 2021 (64-Bit Not for commercial use) -->
<svg xmlns="http://www.w3.org/2000/svg" xml:space="preserve" width="36.5461mm" height="35.838mm" version="1.1" style="shape-rendering:geometricPrecision; text-rendering:geometricPrecision; image-rendering:optimizeQuality; fill-rule:evenodd; clip-rule:evenodd"
viewBox="0 0 709.28 695.53"
 xmlns:xlink="http://www.w3.org/1999/xlink"
 xmlns:xodm="http://www.corel.com/coreldraw/odm/2003">
 <defs>
  <style type="text/css">
   <![CDATA[
    .fil0 {fill:#F1CE4E;fill-rule:nonzero}
   ]]>
  </style>
 </defs>
 <g id="Layer_x0020_1">
  <metadata id="CorelCorpID_0Corel-Layer"/>
  <path class="fil0" d="M433.59 603.1l-399.37 -221.5 -14.81 -8.22 0 62.45 414.18 233.42 0 -66.16zm-222.28 -280.84c6.22,-0.03 11.28,4.99 11.31,11.21 0.03,6.22 -4.99,11.28 -11.21,11.31 -6.22,0.03 -11.28,-4.99 -11.31,-11.21 -0.03,-6.22 4.99,-11.28 11.21,-11.31zm303.9 -6.93c-21.95,-6.32 -83.52,-29.3 -85.19,-88.51l0 -0.53c0,-0.14 0.66,-47.15 39.73,-63.29 -0.71,-19.84 3.96,-69.2 68.15,-69.5 20.64,-0.1 35.56,6.59 45.98,16.75 9.27,9.05 14.75,20.71 17.43,32.72 2.59,11.63 2.55,23.62 0.79,33.76 -0.87,5.01 -2.21,9.69 -3.92,13.82 20.58,5.56 53.55,22.26 53.78,72.18l-0 0.23c-0.17,7.59 -1.28,14.68 -3.2,21.2 -4.55,15.46 -13.61,27.91 -25.59,36.42 -11.91,8.47 -26.65,12.98 -42.63,12.61 -7.22,-0.16 -14.65,-1.31 -22.14,-3.51 -6.65,-1.96 -14.67,-4.44 -22.3,-7.08l-1.52 -0.53 0.01 2.42c12.55,5.54 24.64,12.95 35.31,22.75 7.7,7.08 14.65,15.36 20.48,25.03l113.94 64.21c3.17,1.77 4.95,5.06 4.95,8.45l0.01 0 0 84.55c0,3.75 -2.13,7.01 -5.25,8.62l-255.33 155.8c-2.93,1.97 -6.85,2.25 -10.14,0.41l-433.12 -244.09c-3.22,-1.58 -5.43,-4.89 -5.43,-8.71l0 -84.55 0.03 0 0 -0.07 0 -0.15 0 -0.07 0 -0.04 0 -0.04 0 -0.07 0 -0.08 0 -0.05 0 -0.03 0.01 -0.08 0 -0.07 0.01 -0.15 0.01 -0.07 0.01 -0.07 0 -0.01 0.01 -0.07 0.01 -0.08 0.02 -0.15 0.01 -0.07 0.01 -0.08 0 -0.01 0.01 -0.06 0.01 -0.08 0.01 -0.07 0.01 -0.08 0.01 -0.07 0.02 -0.07 0.01 -0.03 0.01 -0.04 0.02 -0.07 0.02 -0.07 0.02 -0.08 0.02 -0.07 0.02 -0.07 0.01 -0.05 0.01 -0.02 0.02 -0.07 0.02 -0.07 0.02 -0.06 0 -0.01 0.02 -0.07 0.02 -0.07 0.02 -0.07 0 -0 0.02 -0.07 0.03 -0.07 0.03 -0.07 0 -0.01 0.03 -0.07 0.03 -0.07 0.03 -0.07 0 -0.02 0.02 -0.06 0.03 -0.07 0.03 -0.07 0.01 -0.03 0.02 -0.05 0.03 -0.07 0.03 -0.07 0.02 -0.03 0.02 -0.04 0.03 -0.07 0.03 -0.07 0.02 -0.04 0.01 -0.03 0.03 -0.07 0.03 -0.07 0.03 -0.05 0.01 -0.02 0.03 -0.07 0.04 -0.07 0.03 -0.06 0 -0.01 0.04 -0.07 0.04 -0.07 0.04 -0.07 0.04 -0.07 0.04 -0.07 0.04 -0.07 0 -0.01 0.04 -0.06 0.04 -0.07 0.04 -0.07 0.01 -0.01 0.04 -0.06 0.04 -0.07 0.04 -0.07 0.01 -0.02 0.03 -0.05 0.04 -0.07 0.04 -0.07 0.02 -0.02 0.03 -0.04 0.05 -0.06 0.05 -0.06 0.02 -0.03 0.03 -0.04 0.05 -0.06 0.05 -0.06 0.02 -0.03 0.03 -0.03 0.05 -0.06 0.05 -0.06 0.03 -0.03 0.02 -0.03 0.05 -0.06 0.05 -0.06 0.03 -0.04 0.02 -0.02 0.05 -0.06 0.05 -0.06 0.04 -0.04 0.02 -0.02 0.05 -0.06 0.05 -0.06 0.04 -0.04 0.01 -0.01 0.05 -0.06 0.05 -0.05 0.05 -0.05 0.01 -0.01 0.06 -0.05 0.05 -0.05 0.05 -0.05 0 -0 0.06 -0.05 0.06 -0.05 0.06 -0.05 0 -0 0 -0 0.11 -0.1 0.06 -0.05 0.01 -0.01 0.05 -0.04 0.06 -0.05 0.06 -0.05 0.01 -0.01 0.05 -0.04 0.06 -0.05 0.06 -0.05 0.02 -0.02 0.04 -0.03 0.06 -0.04 0.06 -0.05 0.02 -0.02 0.04 -0.03 0.06 -0.05 0.06 -0.04 0.03 -0.02 0.03 -0.02 0.06 -0.04 0.06 -0.04 0.03 -0.02 0.03 -0.02 0.06 -0.04 0.06 -0.04 0.04 -0.03 0.03 -0.02 0.06 -0.04 0.06 -0.04 0.1 -0.06 147.53 -90.02c7.6,-11.97 15.25,-22.63 22.26,-29.98 12.95,-13.6 27.56,-23.24 41.6,-29.83 18.95,-8.9 37.09,-12.25 48.72,-12.3 21.29,-0.1 41.45,4.23 60,12l-0.05 -19.96 -0.02 -3.44c-48.08,-22.68 -70.86,-51.17 -80.08,-80.39 -9.76,-30.93 -4.05,-61.83 2.85,-87.52 1.34,-5.01 6.43,-8.1 11.52,-6.94 84.72,19.46 90.57,100.33 87.83,141.37 13.86,-13.59 35.62,-25.98 68.8,-25.36 4.91,0.08 8.92,3.81 9.45,8.57l0.02 -0c0.03,0.22 9.87,74.22 -79.33,84.31 7.71,4.62 15.06,9.86 22.01,15.63 15.05,12.5 28.21,27.5 39,44.08l74.41 41.93c10.82,1.15 22.36,3.24 33.92,6.63l-0.01 -2.09zm87.88 86.33c3.79,13.13 5.94,28.03 6.02,44.91 0.01,3.54 -1.87,6.64 -4.7,8.33l-155.53 93.36c-3.1,1.85 -6.81,1.77 -9.74,0.11l-330.84 -187.26c-4.41,-2.5 -6.1,-7.95 -4.01,-12.47 0.06,-0.14 11.98,-26.14 27.56,-54.89l-102.91 62.79 414.21 229.73 237.14 -141.11 -77.2 -43.5zm-179.21 -100.99c1.92,4.5 3.69,9.07 5.28,13.69 3.94,-1.37 8.3,-2.5 13.12,-3.31l-18.41 -10.38zm25.48 -74.18c1.34,42.47 44.45,61.69 65.77,68.62l-0.08 -20.95c0,-5.34 4.33,-9.67 9.67,-9.67 5.34,0 9.67,4.33 9.67,9.67l0.11 27.25c2.43,0.96 5.1,1.94 7.89,2.9 6.78,2.34 14.67,4.77 21.47,6.77 5.89,1.73 11.61,2.63 17.06,2.76 11.75,0.27 22.47,-2.97 31.03,-9.05 8.5,-6.04 14.95,-14.96 18.24,-26.11 1.46,-4.95 2.31,-10.32 2.45,-16.02 -0.31,-50.88 -45.95,-55.21 -50.98,-55.53 -3.4,0.01 -6.71,-1.77 -8.49,-4.95 -2.62,-4.67 -0.95,-10.57 3.71,-13.19 2.39,-1.34 4.71,-7.35 6.13,-15.53 1.38,-7.99 1.43,-17.35 -0.56,-26.33 -1.92,-8.6 -5.72,-16.84 -12.05,-23.01 -7.03,-6.85 -17.48,-11.36 -32.4,-11.29 -57.47,0.27 -48.37,55.25 -48.35,55.41l-0.03 0c0.72,4.78 -2.24,9.46 -7.02,10.76 -30.95,8.44 -33.08,43.73 -33.22,47.49zm85.41 146.58c0,5.34 -4.33,9.67 -9.67,9.67 -5.34,0 -9.67,-4.33 -9.67,-9.67l-0.14 -35.37c-19.03,-6.43 -38.59,-8.62 -54.5,-8.73 -14.47,-0.1 -24.69,2.69 -31.88,6.45 -0.64,0.47 -1.34,0.87 -2.1,1.17 -12.42,7.41 -14.52,17.56 -14.52,17.6 -1.17,5.21 -6.35,8.49 -11.56,7.31 -5.21,-1.17 -8.49,-6.35 -7.31,-11.56 0.02,-0.07 3.09,-14.78 18.38,-26.41 -10.61,-32.47 -30.32,-62.36 -56.27,-83.91 -3.63,-3.01 -7.38,-5.87 -11.25,-8.54l0.05 21.03c0,5.34 -4.33,9.67 -9.67,9.67 -5.34,0 -9.67,-4.33 -9.67,-9.67l-0.08 -32.39c-18.29,-8.94 -38.5,-14.02 -59.97,-13.92 -9.44,0.04 -24.46,2.9 -40.61,10.48 -12.05,5.66 -24.61,13.95 -35.76,25.66 -22.12,23.23 -52.41,84.66 -62.93,106.74l318.12 180.06 145.9 -87.57c-1.33,-37.56 -14.57,-62.88 -32.9,-79.72 -6.77,-6.22 -14.26,-11.32 -22.12,-15.49l0.1 27.08zm-190.6 -193.04l0.04 9.81c51.64,-6.26 60.58,-38.2 61.8,-53.97 -44.71,3.43 -59.31,37.24 -61.84,44.16zm-17.92 -25.8c3.64,-25.92 9.45,-109.5 -62.34,-132.59 -4.92,20.86 -7.85,44.5 -0.68,67.23 7.32,23.17 25.38,46.07 63.02,65.36zm187.23 270.66c6.22,-0.03 11.28,4.99 11.31,11.21 0.03,6.22 -4.99,11.28 -11.21,11.31 -6.22,0.03 -11.28,-4.99 -11.31,-11.21 -0.03,-6.22 4.99,-11.28 11.21,-11.31zm-36.76 -74.96c6.22,-0.03 11.28,4.99 11.31,11.21 0.03,6.22 -4.99,11.28 -11.21,11.31 -6.22,0.03 -11.28,-4.99 -11.31,-11.21 -0.03,-6.22 4.99,-11.28 11.21,-11.31zm-148.44 19.76c6.22,-0.03 11.28,4.99 11.31,11.21 0.03,6.22 -4.99,11.28 -11.21,11.31 -6.22,0.03 -11.28,-4.99 -11.31,-11.21 -0.03,-6.22 4.99,-11.28 11.21,-11.31zm76.83 84.66c6.22,-0.03 11.29,4.99 11.31,11.21 0.03,6.22 -4.99,11.28 -11.21,11.31 -6.22,0.03 -11.28,-4.99 -11.31,-11.21 -0.03,-6.22 4.99,-11.28 11.21,-11.31zm-139.29 -218.45c6.22,-0.03 11.28,4.99 11.31,11.21 0.03,6.22 -4.99,11.28 -11.21,11.31 -6.22,0.03 -11.28,-4.99 -11.31,-11.21 -0.03,-6.22 4.99,-11.28 11.21,-11.31zm424.06 226.03l-101.1 60.16 -135.77 80.79 0 65.7 236.87 -144.54 0 -62.12z"/>
 </g>
</svg>
