<?xml version="1.0" encoding="UTF-8"?>
<!DOCTYPE svg PUBLIC "-//W3C//DTD SVG 1.1//EN" "http://www.w3.org/Graphics/SVG/1.1/DTD/svg11.dtd">
<!-- Creator: CorelDRAW 2021 (64-Bit Not for commercial use) -->
<svg xmlns="http://www.w3.org/2000/svg" xml:space="preserve" width="33.1037mm" height="39.2267mm" version="1.1" style="shape-rendering:geometricPrecision; text-rendering:geometricPrecision; image-rendering:optimizeQuality; fill-rule:evenodd; clip-rule:evenodd"
viewBox="0 0 2042.8 2420.64"
 xmlns:xlink="http://www.w3.org/1999/xlink"
 xmlns:xodm="http://www.corel.com/coreldraw/odm/2003">
 <defs>
  <style type="text/css">
   <![CDATA[
    .fil0 {fill:#F1CE4E;fill-rule:nonzero}
   ]]>
  </style>
 </defs>
 <g id="Layer_x0020_1">
  <metadata id="CorelCorpID_0Corel-Layer"/>
  <path class="fil0" d="M1472.69 1901.71l477.08 -275.56 -223.73 -125.86 0 163.36c0,26.89 -15.35,45.12 -36.6,57.03 -22.37,12.53 -52.58,17.2 -71.65,17.2 -19.07,0 -49.27,-4.66 -71.65,-17.2 -21.25,-11.92 -36.6,-30.14 -36.6,-57.03l0 -285.15 -83.96 -47.23 0 184.5c0,26.89 -15.35,45.12 -36.6,57.03 -22.37,12.53 -52.58,17.2 -71.65,17.2 -19.07,0 -49.27,-4.66 -71.65,-17.2 -21.25,-11.92 -36.6,-30.14 -36.6,-57.03l0 -306.28 -83.96 -47.23 0 205.65c0,26.89 -15.34,45.12 -36.6,57.03 -22.37,12.53 -52.58,17.2 -71.65,17.2 -19.07,0 -49.27,-4.66 -71.65,-17.2 -21.26,-11.9 -36.6,-30.13 -36.6,-57.03l0 -327.43 -83.96 -47.23 0 226.79c0,26.89 -15.34,45.12 -36.6,57.03 -22.37,12.53 -52.58,17.2 -71.65,17.2 -19.07,0 -49.27,-4.66 -71.65,-17.2 -21.26,-11.9 -36.6,-30.13 -36.6,-57.03l0 -348.58 -37.94 -21.34 -46.02 27.63 0 194.41c0,26.88 -15.34,45.12 -36.6,57.03 -22.37,12.53 -52.58,17.2 -71.65,17.2 -19.07,0 -49.27,-4.66 -71.65,-17.2 -21.26,-11.92 -36.6,-30.15 -36.6,-57.03l0 -64.41 -215.32 129.3 1380.3 764.65zm253.35 -472.09l300.97 169.29c10.06,5.64 15.74,16.1 15.75,26.87l0.04 0 0 440.44c0,12.12 -7,22.61 -17.17,27.66l-535.22 321.39c-9.36,6.38 -21.89,7.34 -32.44,1.43l-1082.49 -608.93 -0.89 -0.51 -357.29 -200.98c-10.24,-5.02 -17.29,-15.54 -17.29,-27.72l0 -440.44 0.1 0 0.01 -0.23 0.01 -0.48 0.01 -0.23 0 -0.12 0.01 -0.12 0.01 -0.23 0.01 -0.24 0.01 -0.15 0.01 -0.08 0.02 -0.24 0.01 -0.23 0.04 -0.48 0.02 -0.23 0.02 -0.22 0.01 -0.02 0.02 -0.23 0.03 -0.24 0.06 -0.48 0.03 -0.23 0.04 -0.24 0.01 -0.04 0.03 -0.19 0.04 -0.24 0.04 -0.23 0.04 -0.24 0.04 -0.23 0.05 -0.23 0.02 -0.1 0.03 -0.14 0.05 -0.23 0.06 -0.23 0.06 -0.24 0.06 -0.23 0.06 -0.23 0.04 -0.16 0.02 -0.07 0.07 -0.23 0.06 -0.23 0.06 -0.19 0.01 -0.04 0.07 -0.23 0.07 -0.23 0.07 -0.22 0 -0.01 0.07 -0.23 0.08 -0.23 0.08 -0.23 0 -0.02 0.08 -0.22 0.08 -0.23 0.09 -0.23 0.01 -0.05 0.07 -0.18 0.09 -0.23 0.09 -0.23 0.03 -0.08 0.06 -0.15 0.09 -0.23 0.09 -0.23 0.05 -0.1 0.05 -0.12 0.1 -0.23 0.1 -0.23 0.06 -0.14 0.04 -0.09 0.1 -0.23 0.11 -0.23 0.08 -0.17 0.03 -0.06 0.11 -0.23 0.12 -0.22 0.1 -0.2 0.01 -0.03 0.12 -0.22 0.12 -0.22 0.12 -0.22 0.13 -0.23 0.13 -0.23 0.13 -0.23 0.01 -0.01 0.13 -0.22 0.14 -0.22 0.14 -0.22 0.01 -0.01 0.13 -0.2 0.14 -0.22 0.14 -0.22 0.01 -0.02 0.13 -0.2 0.14 -0.21 0.15 -0.22 0.02 -0.02 0.13 -0.19 0.15 -0.21 0.15 -0.2 0.02 -0.03 0.13 -0.18 0.15 -0.2 0.15 -0.2 0.03 -0.03 0.13 -0.17 0.15 -0.2 0.16 -0.2 0.04 -0.04 0.12 -0.15 0.17 -0.2 0.16 -0.19 0.04 -0.04 0.13 -0.15 0.17 -0.19 0.17 -0.19 0.04 -0.05 0.12 -0.14 0.17 -0.19 0.17 -0.18 0.05 -0.06 0.12 -0.13 0.17 -0.18 0.18 -0.18 0.06 -0.06 0.12 -0.12 0.17 -0.17 0.19 -0.17 0.06 -0.06 0.12 -0.11 0.18 -0.17 0.19 -0.17 0.07 -0.06 0.12 -0.1 0.19 -0.17 0.19 -0.17 0.07 -0.06 0.11 -0.1 0.19 -0.16 0.19 -0.16 0.08 -0.07 0.11 -0.09 0.19 -0.15 0.19 -0.15 0.09 -0.07 0.1 -0.08 0.2 -0.15 0.2 -0.15 0.09 -0.07 0.1 -0.07 0.2 -0.15 0.2 -0.14 0.1 -0.07 0.1 -0.07 0.2 -0.14 0.2 -0.14 0.11 -0.07 0.51 -0.33 0.12 -0.07 0.3 -0.19 0.21 -0.12 0.12 -0.08 0.09 -0.05 0.02 -0.01 292.62 -175.71 0 -857.71 0 -0.01c0,-24.55 14.34,-45.63 37.49,-59.81 18.61,-11.41 43.67,-18.48 70.75,-18.48 27.08,0 52.15,7.07 70.76,18.48 23.16,14.19 37.49,35.26 37.49,59.81l0 0.01 0 727.71 29.77 -17.88c9.79,-5.86 21.54,-5.64 30.83,-0.44l23.36 13.14 0 -574.67 0.01 0c0,-24.56 14.34,-45.62 37.49,-59.81 18.62,-11.42 43.68,-18.48 70.76,-18.48 27.08,0 52.14,7.06 70.76,18.48 23.15,14.19 37.49,35.25 37.49,59.81l0.01 0 0 696.44 83.96 47.23 0 -595.8 0.01 0c0,-24.56 14.34,-45.62 37.49,-59.81 18.62,-11.42 43.68,-18.48 70.76,-18.48 27.08,0 52.14,7.06 70.76,18.48 23.15,14.19 37.49,35.25 37.49,59.81l0.01 0 0 717.58 83.96 47.23 0 -616.92 0 -0.01c0,-24.55 14.34,-45.62 37.49,-59.82 18.61,-11.41 43.68,-18.48 70.76,-18.48 27.08,0 52.14,7.07 70.76,18.48 23.16,14.2 37.49,35.27 37.49,59.82l0 0.01 0 738.7 83.96 47.23 0 -638.06c0,-24.55 14.34,-45.63 37.49,-59.83 18.62,-11.41 43.68,-18.48 70.76,-18.48 27.08,0 52.14,7.07 70.76,18.48 23.15,14.2 37.49,35.27 37.49,59.83l0 759.84zm-1315.14 -1334.83c1.66,0.08 3.35,0.12 5.07,0.12l0.73 0 0.72 -0.01 0.01 -0.01 0.72 -0.01 0.01 -0.01 0.72 -0.01 0.01 -0.01 0.72 -0.01 0.01 -0.01 0.71 -0.02 0.01 -0.01 0.71 -0.02 0.01 -0.01 0.7 -0.04 0.01 -0.01 0.7 -0.04 0.01 -0.01 0.7 -0.04 0.01 -0.01 0.7 -0.05 0.01 -0.01 0.69 -0.05 0.01 -0.01 0.68 -0.06 0.01 -0.01 0.68 -0.06 0.01 -0.01 0.68 -0.06 0.01 -0.01 0.68 -0.07 0.01 -0.01 0.67 -0.07 0.01 -0.01 0.67 -0.08 0.01 -0.01 0.67 -0.09 0.01 -0.01 0.66 -0.09 0.01 -0.01 0.65 -0.09 0.01 -0.01 0.65 -0.1 0.01 -0.01 0.65 -0.1 0.01 -0.01 0.65 -0.1 0 -0.01 0.64 -0.11 0.01 -0.01 0.64 -0.12 0.01 -0.01 0.64 -0.12 0.01 -0.01 0.62 -0.12 0.01 -0.01 0.62 -0.13 0.01 -0.01 0.62 -0.14 0.01 -0.01 0.61 -0.14 0.01 -0.01 0.61 -0.15 0.01 -0.01 0.6 -0.14 0.01 -0.01 0.6 -0.15 0.01 -0.01 0.6 -0.15 0.01 -0.01 0.59 -0.16 0 -0.01 0.59 -0.16 0 -0.01 0.59 -0.17 0.01 0 0.57 -0.17 0.01 -0.01 0.57 -0.18 0.01 -0.01 0.57 -0.18 0 -0.01 0.57 -0.19 0.56 -0.19 0 -0.01 0.56 -0.19 0.01 -0.01 0.55 -0.2 0.54 -0.2 0.01 -0.01 0.54 -0.2 0.01 0 0.53 -0.21 0 -0.01 0.53 -0.21 0 -0.01 0.52 -0.22 0 -0.01 0.52 -0.22 0.01 -0.01 0.51 -0.22 0 -0.01 0.51 -0.23 0.5 -0.23 0.01 0 0.49 -0.23 0.49 -0.24 0 -0.01 0.48 -0.24 0.01 0 0.48 -0.25 0.48 -0.25 0.47 -0.25 0.46 -0.26 0.01 0 0.45 -0.27 0.45 -0.27 0.44 -0.27 0.23 -0.14 0.22 -0.14 0.22 -0.14 0.22 -0.14 0.22 -0.14 0.22 -0.14 0.2 -0.14 0.21 -0.14 0.2 -0.14 0.2 -0.13 0.2 -0.14 0.19 -0.14 0.19 -0.13 0.19 -0.13 0.19 -0.14 0.18 -0.13 0.18 -0.13 0.18 -0.13 0.17 -0.12 0.17 -0.13 0.17 -0.13 0.16 -0.12 0.16 -0.12 0.16 -0.12 0.15 -0.12 0.15 -0.12 0.14 -0.12 0.15 -0.12 0 -0.01 0.14 -0.12 0.14 -0.12 0.14 -0.12 0.12 -0.12 0.13 -0.12 0.12 -0.12 0.12 -0.11 0.11 -0.12 0.11 -0.11 0.11 -0.11 0.1 -0.1 0 -0.01 0.1 -0.1 0.09 -0.11 0.09 -0.1 0.09 -0.1 0.09 -0.1 0.08 -0.1 0.08 -0.1 0 -0.01 0.07 -0.09 0 -0.01 0.07 -0.1 0.06 -0.1 0.06 -0.09 0 -0.01 0.06 -0.09 0.06 -0.09 0 -0.01 0.05 -0.09 0 -0.01 0.04 -0.09 0 -0.01 0.04 -0.09 0 -0.01 0.04 -0.08 0 -0.01 0.03 -0.09 0.02 -0.09 0.02 -0.08 0 -0.01 0.02 -0.08 0 -0.01 0.02 -0.07 0 -0.01 0.01 -0.07 0 -0.01 0.01 -0.07 0 -0.01 0 -0.07 0 -0.01c0,-1.63 -3.01,-4.29 -7.85,-7.26 -9.39,-5.75 -23.04,-9.32 -38.7,-9.32 -15.66,0 -29.31,3.57 -38.69,9.32 -4.84,2.97 -7.85,5.63 -7.85,7.26l0 0.01 0 0.07 0 0.01 0.01 0.07 0 0.01 0.01 0.07 0 0.01 0.02 0.07 0 0.01 0.02 0.08 0 0.01 0.02 0.08 0.02 0.09 0.03 0.09 0 0.01 0.04 0.08 0 0.01 0.04 0.09 0 0.01 0.04 0.09 0 0.01 0.05 0.09 0 0.01 0.06 0.09 0.06 0.09 0 0.01 0.06 0.09 0.06 0.1 0.07 0.1 0 0.01 0.07 0.09 0 0.01 0.08 0.1 0.08 0.1 0.09 0.1 0.09 0.1 0.09 0.1 0.09 0.11 0.1 0.1 0 0.01 0.1 0.1 0.11 0.11 0.11 0.11 0.11 0.12 0.12 0.11 0.12 0.12 0.12 0.12 0.13 0.12 0.14 0.12 0.14 0.12 0.14 0.12 0 0.01 0.15 0.12 0.14 0.12 0.15 0.12 0.15 0.12 0.16 0.12 0.16 0.12 0.16 0.12 0.17 0.13 0.17 0.13 0.17 0.12 0.18 0.13 0.18 0.13 0.18 0.13 0.19 0.14 0.19 0.13 0.19 0.13 0.19 0.14 0.2 0.14 0.2 0.13 0.2 0.14 0.21 0.14 0.2 0.14 0.22 0.14 0.22 0.14 0.22 0.14 0.22 0.14 0.22 0.14 0.23 0.14 0.44 0.27 0.45 0.27 0.45 0.27 0.46 0.26 0.47 0.25 0.47 0.25 0.01 0 0.48 0.25 0.49 0.24 0 0.01 0.49 0.24 0.01 0 0.49 0.23 0.5 0.23 0.01 0 0.51 0.23 0 0.01 0.51 0.22 1.04 0.44 0.01 0 0.52 0.22 0.01 0 0.53 0.22 0.54 0.2 0 0.01 0.54 0.2 0.01 0 0.55 0.2 0.56 0.2 0.01 0 0.56 0.2 0.01 0 1.14 0.37 0 0.01 0.57 0.18 0.01 0 0.58 0.18 0.59 0.17 0.01 0 1.18 0.33 1.21 0.32 0.61 0.15 0 0.01 0.61 0.15 0.01 0 0.62 0.14 0 0.01 0.62 0.14 0.01 0 0.62 0.14 0.01 0 0.63 0.13 0 0.01 0.64 0.12 0.01 0 0.64 0.12 0.01 0 1.95 0.34 0 0.01 1.32 0.2 0 0.01 0.67 0.09 0 0.01 0.67 0.09 0 0.01 0.67 0.08 0 0.01 0.68 0.07 0 0.01 0.68 0.07 0.01 0 2.07 0.2 1.39 0.11 0.01 0 1.41 0.09 0 0.01 0.71 0.04 0 0.01zm-25.66 58.72c-1.1,-0.23 -2.2,-0.46 -3.29,-0.72l-0.25 -0.06 -3.17 -0.77 -0.32 -0.09 -0.69 -0.19 -0.69 -0.19 -0.54 -0.14 -0.14 -0.04 -2.72 -0.78 -0.47 -0.14 -0.2 -0.07 -0.67 -0.2 -0.22 -0.06 -0.45 -0.15 -1.99 -0.64 0 922.91c0,0.35 2.11,1.65 5.02,3.28 12.01,6.73 29.87,9.24 41.52,9.24 11.66,0 29.51,-2.51 41.52,-9.24 2.91,-1.63 5.02,-2.94 5.02,-3.28l0 -922.91 -0.28 0.09 -0.38 0.12 -0.67 0.22 -0.67 0.22 -0.46 0.15 -0.21 0.06 -0.67 0.2 -0.21 0.07 -0.46 0.14 -2.04 0.59 -0.68 0.19 -0.14 0.04 -0.54 0.14 -0.57 0.16 -0.11 0.02 -0.69 0.19 -0.33 0.09 -3.16 0.77 -0.25 0.06 -0.45 0.1 -2.84 0.62 -0.18 0.04 -0.54 0.1 -0.63 0.13 -0.09 0.01 -0.72 0.14 -0.37 0.07 -0.35 0.06 -0.72 0.13 -0.1 0.02 -0.62 0.1c-1.45,0.25 -2.91,0.49 -4.39,0.7l-0.73 0.1 -2.22 0.3 -0.41 0.06 -0.33 0.04 -0.75 0.09 -0.14 0.02 -0.61 0.06 -1.5 0.16 -0.33 0.04 -0.42 0.04 -2.27 0.2 -0.76 0.06 -0.25 0.02 -0.51 0.03 -0.73 0.06 -0.02 0 -0.77 0.04 -0.46 0.03 -0.31 0.01 -0.77 0.04 -0.17 0.01 -0.59 0.02 -0.66 0.03 -0.11 0 -0.77 0.03 -0.77 0.02 -0.77 0.02 -0.09 0.01 -0.68 0.01 -1.55 0.02 -0.3 0.01 -0.48 0 -0.78 0 -0.01 0.01 -0.77 -0.01 -0.49 0 -0.28 -0.01 -1.55 -0.02 -0.7 -0.01 -0.08 -0.01 -0.77 -0.02 -0.77 -0.02 -0.77 -0.03 -0.12 0 -0.65 -0.03 -0.6 -0.02 -0.17 -0.01 -0.77 -0.04 -0.31 -0.01 -0.45 -0.03 -0.76 -0.04 -0.04 0 -0.73 -0.06 -0.76 -0.06 -0.76 -0.06 -2.26 -0.2 -0.43 -0.04 -0.33 -0.04 -2.12 -0.22 -0.14 -0.02 -0.75 -0.09 -0.33 -0.04 -0.41 -0.06 -2.23 -0.3 -0.73 -0.1c-1.96,-0.28 -3.91,-0.6 -5.83,-0.96l-0.36 -0.06 -0.36 -0.07 -0.72 -0.14 -0.09 -0.01 -0.63 -0.13 -0.54 -0.1 -0.18 -0.04zm284.65 143.63l0 922.92c0,0.34 2.1,1.65 5.02,3.28 12.01,6.73 29.87,9.24 41.52,9.24 11.66,0 29.51,-2.51 41.52,-9.24 2.91,-1.63 5.02,-2.94 5.02,-3.28l0 -922.92 -0.28 0.09 -0.38 0.12 -0.67 0.22 -0.04 0.01 -0.63 0.2 -0.46 0.14 -0.2 0.07 -0.67 0.2 -0.22 0.06 -0.46 0.14 -0.64 0.19 -0.04 0.01 -0.68 0.2 -0.39 0.11 -0.28 0.09 -0.68 0.19 -0.14 0.04 -0.54 0.15 -0.58 0.15 -0.1 0.03 -0.69 0.19 -0.33 0.08 -0.37 0.09 -0.69 0.18 -0.07 0.01 -1.14 0.28 -0.19 0.05 -0.7 0.17 -0.25 0.06 -0.45 0.1 -0.7 0.15 -0.01 0.01 -0.71 0.15 -0.44 0.09 -0.27 0.06 -0.71 0.15 -0.18 0.04 -0.54 0.11 -0.63 0.12 -0.09 0.02 -0.72 0.14 -0.37 0.07 -0.35 0.07 -0.72 0.13 -0.1 0.02 -0.62 0.11 -0.56 0.1 -0.17 0.02 -0.73 0.12 -0.29 0.05 -0.44 0.07 -0.73 0.12 -0.02 0.01 -0.71 0.1 -0.49 0.07 -0.25 0.04 -0.73 0.1 -0.22 0.03 -0.52 0.07 -0.68 0.09 -0.06 0.01 -0.74 0.1 -0.41 0.05 -0.33 0.04 -0.75 0.09 -0.14 0.01 -0.61 0.07 -0.6 0.07 -0.15 0.01 -0.75 0.08 -0.33 0.03 -0.42 0.04 -0.75 0.07 -0.06 0.01 -0.7 0.06 -0.53 0.04 -0.23 0.02 -0.76 0.06 -0.25 0.02 -0.51 0.04 -0.73 0.05 -0.03 0.01 -0.77 0.04 -0.45 0.02 -0.31 0.02 -0.77 0.04 -0.17 0.01 -0.6 0.03 -0.65 0.02 -0.12 0.01 -0.77 0.03 -0.37 0.01 -0.4 0.01 -0.77 0.02 -0.09 0 -0.69 0.02 -0.57 0.01 -0.2 0 -0.78 0.01 -0.29 0 -0.49 0.01 -0.78 0 -0.78 0 -0.49 -0.01 -0.29 0 -0.78 -0.01 -0.2 0 -0.57 -0.01 -0.69 -0.02 -0.09 0 -0.77 -0.02 -0.4 -0.01 -0.37 -0.01 -0.77 -0.03 -0.12 -0.01 -0.65 -0.02 -0.6 -0.03 -0.17 -0.01 -0.77 -0.04 -0.31 -0.02 -0.45 -0.02 -0.77 -0.04 -0.03 -0.01 -0.73 -0.05 -0.51 -0.04 -0.25 -0.02 -0.76 -0.06 -0.23 -0.02 -0.53 -0.04 -0.7 -0.06 -0.06 -0.01 -0.75 -0.07 -0.42 -0.04 -0.33 -0.03 -0.75 -0.08 -0.14 -0.01 -0.61 -0.07 -0.61 -0.07 -0.14 -0.01 -0.75 -0.09 -0.33 -0.04 -0.41 -0.05 -0.74 -0.1 -0.06 -0.01 -0.68 -0.09 -0.52 -0.07 -0.22 -0.03 -0.73 -0.1 -0.25 -0.04 -0.49 -0.07 -0.71 -0.1 -0.02 -0.01 -0.73 -0.12 -0.44 -0.07 -0.29 -0.05 -0.73 -0.12 -0.17 -0.02 -0.56 -0.1 -0.62 -0.11 -0.1 -0.02 -0.72 -0.13 -0.35 -0.07 -0.37 -0.07 -0.72 -0.14 -0.09 -0.02 -0.63 -0.12 -0.54 -0.11 -0.18 -0.04 -0.71 -0.15 -0.27 -0.06 -0.44 -0.1 -0.71 -0.15 -0.01 0 -0.7 -0.16 -0.44 -0.1 -0.26 -0.06 -0.7 -0.17 -0.19 -0.04 -0.51 -0.12 -0.62 -0.15 -0.07 -0.02 -0.69 -0.18 -0.37 -0.09 -0.33 -0.08 -0.69 -0.19 -0.1 -0.03 -0.58 -0.15 -0.54 -0.15 -0.14 -0.04 -0.68 -0.19 -0.28 -0.08 -0.39 -0.12 -0.68 -0.2 -0.03 -0.01 -0.65 -0.19 -0.46 -0.14 -0.22 -0.07 -0.67 -0.2 -0.2 -0.07 -0.46 -0.14 -0.62 -0.2 -0.04 -0.01 -0.67 -0.22 -0.37 -0.12 -0.29 -0.09zm85.23 -78.22c-9.39,-5.76 -23.04,-9.32 -38.69,-9.32 -15.66,0 -29.31,3.56 -38.69,9.32 -4.84,2.97 -7.84,5.63 -7.84,7.26l0 0.08 0 0.08 0.01 0 0.01 0.08 0.01 0 0.01 0.08 0.01 0 0.01 0.09 0.01 0 0.02 0.08 0.01 0 0.02 0.09 0.01 0 0.02 0.09 0.01 0 0.03 0.09 0.01 0 0.04 0.09 0.01 0 0.04 0.09 0.01 0 0.04 0.09 0.01 0 0.05 0.09 0.01 0 0.05 0.1 0.01 0 0.06 0.09 0.01 0 0.06 0.1 0.01 0 0.07 0.1 0.01 0 0.06 0.1 0.01 0 0.07 0.1 0.01 0 0.07 0.1 0.01 0 0.08 0.1 0.01 0 0.08 0.1 0.01 0 0.09 0.1 0.01 0 0.09 0.11 0.01 0 0.1 0.11 0.01 0 0.09 0.1 0.01 0 0.1 0.11 0.01 0 0.1 0.11 0.01 0 0.1 0.12 0.01 0 0.11 0.11 0.01 0 0.12 0.12 0.01 0 0.12 0.12 0.01 0 0.12 0.12 0.01 0 0.13 0.12 0.01 0 0.13 0.12 0.01 0 0.13 0.12 0.01 0 0.14 0.12 0.01 0 0.14 0.12 0.01 0 0.15 0.12 0.01 0 0.14 0.12 0.01 0 0.15 0.12 0.01 0 0.15 0.12 0.01 0 0.15 0.12 0.01 0 0.16 0.13 0.01 0 0.16 0.13 0.01 0 0.17 0.12 0.01 0 0.17 0.13 0.01 0 0.17 0.13 0.01 0 0.17 0.13 0.01 0 0.18 0.14 0.01 0 0.19 0.13 0.01 0 0.19 0.13 0.01 0 0.19 0.14 0.01 0 0.19 0.14 0.01 0 0.19 0.13 0.01 0 0.2 0.14 0.01 0 0.2 0.14 0.01 0 0.2 0.14 0.01 0 0.21 0.14 0.01 0 0.21 0.14 0.01 0 0.21 0.14 0.01 0 0.21 0.14 0.01 0 0.22 0.14 0.01 0 0.22 0.14 0.01 0 0.44 0.27 0.01 0 0.44 0.27 0.01 0 0.44 0.27 0.01 0 0.46 0.26 0.01 0 0.46 0.25 0.01 0 0.47 0.25 0.01 0 0.47 0.25 0.01 0 0.48 0.24 0.01 0 0.49 0.25 0.01 0 0.49 0.23 0.01 0 0.5 0.23 0.01 0 0.5 0.23 0.01 0 0.51 0.23 0.01 0 0.52 0.22 0.52 0.22 0.53 0.22 0.53 0.22 0.01 0 0.54 0.2 0.01 0 0.54 0.21 0.01 0 0.54 0.2 0.01 0 0.56 0.2 0.56 0.2 0.57 0.19 0.57 0.19 0.01 0 0.57 0.19 0.01 0 0.57 0.18 0.01 0 0.59 0.17 0.59 0.17 0.59 0.17 0.01 0 0.6 0.16 0.6 0.16 0.01 0 0.6 0.15 0.01 0 0.61 0.15 0.62 0.14 0.01 0 0.62 0.14 0.63 0.14 0.63 0.13 0.01 0 0.64 0.13 0.64 0.12 0.65 0.12 0.65 0.11 0.65 0.11 0.66 0.1 0.66 0.1 0.01 0 0.66 0.1 0.01 0 0.67 0.09 0.67 0.09 0.01 0 0.67 0.08 0.68 0.08 0.68 0.07 0.69 0.07 0.69 0.07 0.7 0.06 0.7 0.06 0.7 0.04 0.7 0.04 0.71 0.04 0.72 0.03 0.72 0.03 0.72 0.02 0.72 0.02 0.73 0.01 0.73 0.01 0.73 0 0.73 0 0.73 -0.01 0.73 -0.01 0.72 -0.02 0.72 -0.02 0.01 0 0.72 -0.03 0.71 -0.03 0.01 0 0.7 -0.04 0.01 0 0.7 -0.04 0.7 -0.04 0.7 -0.06 0.01 0 0.69 -0.06 0.01 0 0.69 -0.07 0.68 -0.07 0.01 0 0.68 -0.07 0.68 -0.08 0.01 0 0.67 -0.08 0.01 0 0.67 -0.09 0.01 0 0.67 -0.09 0.01 0 0.66 -0.1 0.01 0 0.65 -0.1 0.01 0 0.65 -0.1 0.01 0 0.65 -0.11 0.01 0 0.65 -0.11 0.64 -0.12 0.01 0 0.64 -0.12 0.64 -0.13 0.01 0 0.63 -0.13 0.62 -0.14 0.01 0 0.62 -0.14 0.01 0 0.61 -0.14 0.01 0 0.61 -0.15 0.01 0 0.6 -0.15 0.01 0 0.6 -0.16 0.01 0 0.6 -0.16 0.01 0 0.59 -0.17 0.59 -0.17 0.59 -0.17 0.01 0 0.57 -0.18 0.01 0 0.57 -0.19 0.01 0 0.56 -0.19 0.01 0 0.56 -0.19 0.01 0 0.56 -0.2 0.56 -0.2 0.01 0 0.54 -0.2 0.01 0 0.54 -0.21 0.01 0 0.54 -0.2 0.01 0 0.52 -0.22 0.01 0 0.52 -0.22 0.01 0 0.52 -0.22 0.01 0 0.52 -0.22 0.01 0 0.51 -0.23 0.01 0 0.5 -0.23 0.01 0 0.5 -0.23 0.01 0 0.49 -0.23 0.01 0 0.49 -0.25 0.01 0 0.48 -0.24 0.01 0 0.47 -0.25 0.01 0 0.47 -0.25 0.01 0 0.46 -0.25 0.01 0 0.46 -0.26 0.01 0 0.44 -0.27 0.01 0 0.44 -0.27 0.01 0 0.44 -0.27 0.01 0 0.22 -0.14 0.01 0 0.22 -0.14 0.01 0 0.21 -0.14 0.01 0 0.21 -0.14 0.01 0 0.21 -0.14 0.01 0 0.21 -0.14 0.01 0 0.2 -0.14 0.01 0 0.2 -0.14 0.01 0 0.2 -0.14 0.01 0 0.19 -0.13 0.01 0 0.19 -0.14 0.01 0 0.19 -0.14 0.01 0 0.19 -0.13 0.01 0 0.19 -0.13 0.01 0 0.18 -0.14 0.01 0 0.17 -0.13 0.01 0 0.17 -0.13 0.01 0 0.17 -0.13 0.01 0 0.17 -0.12 0.01 0 0.16 -0.13 0.01 0 0.16 -0.13 0.01 0 0.15 -0.12 0.01 0 0.15 -0.12 0.01 0 0.15 -0.12 0.01 0 0.14 -0.12 0.01 0 0.15 -0.12 0.01 0 0.14 -0.12 0.01 0 0.14 -0.12 0.01 0 0.13 -0.12 0.01 0 0.13 -0.12 0.01 0 0.13 -0.12 0.01 0 0.12 -0.12 0.01 0 0.12 -0.12 0.01 0 0.12 -0.12 0.01 0 0.11 -0.11 0.01 0 0.1 -0.12 0.01 0 0.1 -0.11 0.01 0 0.1 -0.11 0.01 0 0.09 -0.1 0.01 0 0.1 -0.11 0.01 0 0.09 -0.11 0.01 0 0.09 -0.1 0.01 0 0.08 -0.1 0.01 0 0.08 -0.1 0.01 0 0.07 -0.1 0.01 0 0.07 -0.1 0.01 0 0.06 -0.1 0.01 0 0.07 -0.1 0.01 0 0.06 -0.1 0.01 0 0.06 -0.09 0.01 0 0.05 -0.1 0.01 0 0.05 -0.09 0.01 0 0.04 -0.09 0.01 0 0.04 -0.09 0.01 0 0.04 -0.09 0.01 0 0.03 -0.09 0.01 0 0.02 -0.09 0.01 0 0.02 -0.09 0.01 0 0.02 -0.08 0.01 0 0.01 -0.09 0.01 0 0.01 -0.08 0.01 0 0.01 -0.08 0.01 0 0 -0.08 0 -0.08c0,-1.63 -3,-4.29 -7.84,-7.26zm215.23 226.09l0 922.92c0,0.34 2.1,1.65 5.02,3.28 12.01,6.73 29.87,9.24 41.52,9.24 11.66,0 29.51,-2.51 41.52,-9.24 2.91,-1.63 5.02,-2.94 5.02,-3.28l0 -922.92 -0.28 0.09 -0.38 0.12 -0.67 0.22 -0.04 0.01 -0.63 0.2 -0.46 0.14 -0.2 0.07 -0.67 0.2 -0.22 0.06 -0.46 0.14 -0.64 0.19 -0.04 0.01 -0.68 0.2 -0.39 0.11 -0.28 0.09 -0.68 0.19 -0.14 0.04 -0.54 0.15 -0.58 0.15 -0.1 0.03 -0.69 0.19 -0.33 0.08 -0.37 0.09 -0.69 0.18 -0.07 0.01 -1.14 0.28 -0.19 0.05 -0.7 0.17 -0.25 0.06 -0.45 0.1 -0.7 0.15 -0.01 0.01 -0.71 0.15 -0.44 0.09 -0.27 0.06 -0.71 0.15 -0.18 0.04 -0.54 0.11 -0.63 0.12 -0.09 0.02 -0.72 0.14 -0.37 0.07 -0.35 0.07 -0.72 0.13 -0.1 0.02 -0.62 0.11 -0.56 0.1 -0.17 0.02 -0.73 0.12 -0.29 0.05 -0.44 0.07 -0.73 0.12 -0.02 0.01 -0.71 0.1 -0.49 0.07 -0.25 0.04 -0.73 0.1 -0.22 0.03 -0.52 0.07 -0.68 0.09 -0.06 0.01 -0.74 0.1 -0.41 0.05 -0.33 0.04 -0.75 0.09 -0.14 0.01 -0.61 0.07 -0.6 0.07 -0.15 0.01 -0.75 0.08 -0.33 0.03 -0.42 0.04 -0.75 0.07 -0.06 0.01 -0.7 0.06 -0.53 0.04 -0.23 0.02 -0.76 0.06 -0.25 0.02 -0.51 0.04 -0.73 0.05 -0.03 0.01 -0.77 0.04 -0.45 0.02 -0.31 0.02 -0.77 0.04 -0.17 0.01 -0.6 0.03 -0.65 0.02 -0.12 0.01 -0.77 0.03 -0.37 0.01 -0.4 0.01 -0.77 0.02 -0.09 0 -0.69 0.02 -0.57 0.01 -0.2 0 -0.78 0.01 -0.29 0 -0.49 0.01 -0.78 0 -0.78 0 -0.49 -0.01 -0.29 0 -0.78 -0.01 -0.2 0 -0.57 -0.01 -0.69 -0.02 -0.09 0 -0.77 -0.02 -0.4 -0.01 -0.37 -0.01 -0.77 -0.03 -0.12 -0.01 -0.65 -0.02 -0.6 -0.03 -0.17 -0.01 -0.77 -0.04 -0.31 -0.02 -0.45 -0.02 -0.77 -0.04 -0.03 -0.01 -0.73 -0.05 -0.51 -0.04 -0.25 -0.02 -0.76 -0.06 -0.23 -0.02 -0.53 -0.04 -0.7 -0.06 -0.06 -0.01 -0.75 -0.07 -0.42 -0.04 -0.33 -0.03 -0.75 -0.08 -0.14 -0.01 -0.61 -0.07 -0.61 -0.07 -0.14 -0.01 -0.75 -0.09 -0.33 -0.04 -0.41 -0.05 -0.74 -0.1 -0.06 -0.01 -0.68 -0.09 -0.52 -0.07 -0.22 -0.03 -0.73 -0.1 -0.25 -0.04 -0.49 -0.07 -0.71 -0.1 -0.02 -0.01 -0.73 -0.12 -0.44 -0.07 -0.29 -0.05 -0.73 -0.12 -0.17 -0.02 -0.56 -0.1 -0.62 -0.11 -0.1 -0.02 -0.72 -0.13 -0.35 -0.07 -0.37 -0.07 -0.72 -0.14 -0.09 -0.02 -0.63 -0.12 -0.54 -0.11 -0.18 -0.04 -0.71 -0.15 -0.27 -0.06 -0.44 -0.1 -0.71 -0.15 -0.01 0 -0.7 -0.16 -0.44 -0.1 -0.26 -0.06 -0.7 -0.17 -0.19 -0.04 -0.51 -0.12 -0.62 -0.15 -0.07 -0.02 -0.69 -0.18 -0.37 -0.09 -0.33 -0.08 -0.69 -0.19 -0.1 -0.03 -0.58 -0.15 -0.54 -0.15 -0.14 -0.04 -0.68 -0.19 -0.28 -0.08 -0.39 -0.12 -0.68 -0.2 -0.03 -0.01 -0.65 -0.19 -0.46 -0.14 -0.22 -0.07 -0.67 -0.2 -0.2 -0.07 -0.46 -0.14 -0.62 -0.2 -0.04 -0.01 -0.67 -0.22 -0.37 -0.12 -0.29 -0.09zm85.23 -78.22c-9.39,-5.76 -23.04,-9.32 -38.69,-9.32 -15.66,0 -29.31,3.56 -38.69,9.32 -4.84,2.97 -7.84,5.63 -7.84,7.26l0 0.08 0 0.08 0.01 0 0.01 0.08 0.01 0 0.01 0.08 0.01 0 0.01 0.09 0.01 0 0.02 0.08 0.01 0 0.02 0.09 0.01 0 0.02 0.09 0.01 0 0.03 0.09 0.01 0 0.04 0.09 0.01 0 0.04 0.09 0.01 0 0.04 0.09 0.01 0 0.05 0.09 0.01 0 0.05 0.1 0.01 0 0.06 0.09 0.01 0 0.06 0.1 0.01 0 0.07 0.1 0.01 0 0.06 0.1 0.01 0 0.07 0.1 0.01 0 0.07 0.1 0.01 0 0.08 0.1 0.01 0 0.08 0.1 0.01 0 0.09 0.1 0.01 0 0.09 0.11 0.01 0 0.1 0.11 0.01 0 0.09 0.1 0.01 0 0.1 0.11 0.01 0 0.1 0.11 0.01 0 0.1 0.12 0.01 0 0.11 0.11 0.01 0 0.12 0.12 0.01 0 0.12 0.12 0.01 0 0.12 0.12 0.01 0 0.13 0.12 0.01 0 0.13 0.12 0.01 0 0.13 0.12 0.01 0 0.14 0.12 0.01 0 0.14 0.12 0.01 0 0.15 0.12 0.01 0 0.14 0.12 0.01 0 0.15 0.12 0.01 0 0.15 0.12 0.01 0 0.15 0.12 0.01 0 0.16 0.13 0.01 0 0.16 0.13 0.01 0 0.17 0.12 0.01 0 0.17 0.13 0.01 0 0.17 0.13 0.01 0 0.17 0.13 0.01 0 0.18 0.14 0.01 0 0.19 0.13 0.01 0 0.19 0.13 0.01 0 0.19 0.14 0.01 0 0.19 0.14 0.01 0 0.19 0.13 0.01 0 0.2 0.14 0.01 0 0.2 0.14 0.01 0 0.2 0.14 0.01 0 0.21 0.14 0.01 0 0.21 0.14 0.01 0 0.21 0.14 0.01 0 0.21 0.14 0.01 0 0.22 0.14 0.01 0 0.22 0.14 0.01 0 0.44 0.27 0.01 0 0.44 0.27 0.01 0 0.44 0.27 0.01 0 0.46 0.26 0.01 0 0.46 0.25 0.01 0 0.47 0.25 0.01 0 0.47 0.25 0.01 0 0.48 0.24 0.01 0 0.49 0.25 0.01 0 0.49 0.23 0.01 0 0.5 0.23 0.01 0 0.5 0.23 0.01 0 0.51 0.23 0.01 0 0.52 0.22 0.52 0.22 0.53 0.22 0.53 0.22 0.01 0 0.54 0.2 0.01 0 0.54 0.21 0.01 0 0.54 0.2 0.01 0 0.56 0.2 0.56 0.2 0.57 0.19 0.57 0.19 0.01 0 0.57 0.19 0.01 0 0.57 0.18 0.01 0 0.59 0.17 0.59 0.17 0.59 0.17 0.01 0 0.6 0.16 0.6 0.16 0.01 0 0.6 0.15 0.01 0 0.61 0.15 0.62 0.14 0.01 0 0.62 0.14 0.63 0.14 0.63 0.13 0.01 0 0.64 0.13 0.64 0.12 0.65 0.12 0.65 0.11 0.65 0.11 0.66 0.1 0.66 0.1 0.01 0 0.66 0.1 0.01 0 0.67 0.09 0.67 0.09 0.01 0 0.67 0.08 0.68 0.08 0.68 0.07 0.69 0.07 0.69 0.07 0.7 0.06 0.7 0.06 0.7 0.04 0.7 0.04 0.71 0.04 0.72 0.03 0.72 0.03 0.72 0.02 0.72 0.02 0.73 0.01 0.73 0.01 0.73 0 0.73 0 0.73 -0.01 0.73 -0.01 0.72 -0.02 0.72 -0.02 0.01 0 0.72 -0.03 0.71 -0.03 0.01 0 0.7 -0.04 0.01 0 0.7 -0.04 0.7 -0.04 0.7 -0.06 0.01 0 0.69 -0.06 0.01 0 0.69 -0.07 0.68 -0.07 0.01 0 0.68 -0.07 0.68 -0.08 0.01 0 0.67 -0.08 0.01 0 0.67 -0.09 0.01 0 0.67 -0.09 0.01 0 0.66 -0.1 0.01 0 0.65 -0.1 0.01 0 0.65 -0.1 0.01 0 0.65 -0.11 0.01 0 0.65 -0.11 0.64 -0.12 0.01 0 0.64 -0.12 0.64 -0.13 0.01 0 0.63 -0.13 0.62 -0.14 0.01 0 0.62 -0.14 0.01 0 0.61 -0.14 0.01 0 0.61 -0.15 0.01 0 0.6 -0.15 0.01 0 0.6 -0.16 0.01 0 0.6 -0.16 0.01 0 0.59 -0.17 0.59 -0.17 0.59 -0.17 0.01 0 0.57 -0.18 0.01 0 0.57 -0.19 0.01 0 0.56 -0.19 0.01 0 0.56 -0.19 0.01 0 0.56 -0.2 0.56 -0.2 0.01 0 0.54 -0.2 0.01 0 0.54 -0.21 0.01 0 0.54 -0.2 0.01 0 0.52 -0.22 0.01 0 0.52 -0.22 0.01 0 0.52 -0.22 0.01 0 0.52 -0.22 0.01 0 0.51 -0.23 0.01 0 0.5 -0.23 0.01 0 0.5 -0.23 0.01 0 0.49 -0.23 0.01 0 0.49 -0.25 0.01 0 0.48 -0.24 0.01 0 0.47 -0.25 0.01 0 0.47 -0.25 0.01 0 0.46 -0.25 0.01 0 0.46 -0.26 0.01 0 0.44 -0.27 0.01 0 0.44 -0.27 0.01 0 0.44 -0.27 0.01 0 0.22 -0.14 0.01 0 0.22 -0.14 0.01 0 0.21 -0.14 0.01 0 0.21 -0.14 0.01 0 0.21 -0.14 0.01 0 0.21 -0.14 0.01 0 0.2 -0.14 0.01 0 0.2 -0.14 0.01 0 0.2 -0.14 0.01 0 0.19 -0.13 0.01 0 0.19 -0.14 0.01 0 0.19 -0.14 0.01 0 0.19 -0.13 0.01 0 0.19 -0.13 0.01 0 0.18 -0.14 0.01 0 0.17 -0.13 0.01 0 0.17 -0.13 0.01 0 0.17 -0.13 0.01 0 0.17 -0.12 0.01 0 0.16 -0.13 0.01 0 0.16 -0.13 0.01 0 0.15 -0.12 0.01 0 0.15 -0.12 0.01 0 0.15 -0.12 0.01 0 0.14 -0.12 0.01 0 0.15 -0.12 0.01 0 0.14 -0.12 0.01 0 0.14 -0.12 0.01 0 0.13 -0.12 0.01 0 0.13 -0.12 0.01 0 0.13 -0.12 0.01 0 0.12 -0.12 0.01 0 0.12 -0.12 0.01 0 0.12 -0.12 0.01 0 0.11 -0.11 0.01 0 0.1 -0.12 0.01 0 0.1 -0.11 0.01 0 0.1 -0.11 0.01 0 0.09 -0.1 0.01 0 0.1 -0.11 0.01 0 0.09 -0.11 0.01 0 0.09 -0.1 0.01 0 0.08 -0.1 0.01 0 0.08 -0.1 0.01 0 0.07 -0.1 0.01 0 0.07 -0.1 0.01 0 0.06 -0.1 0.01 0 0.07 -0.1 0.01 0 0.06 -0.1 0.01 0 0.06 -0.09 0.01 0 0.05 -0.1 0.01 0 0.05 -0.09 0.01 0 0.04 -0.09 0.01 0 0.04 -0.09 0.01 0 0.04 -0.09 0.01 0 0.03 -0.09 0.01 0 0.02 -0.09 0.01 0 0.02 -0.09 0.01 0 0.02 -0.08 0.01 0 0.01 -0.09 0.01 0 0.01 -0.08 0.01 0 0.01 -0.08 0.01 0 0 -0.08 0 -0.08c0,-1.63 -3,-4.29 -7.84,-7.26zm215.22 226.1l0 922.91c0,0.35 2.11,1.65 5.02,3.28 12.01,6.73 29.87,9.24 41.52,9.24 11.66,0 29.51,-2.51 41.52,-9.24 2.91,-1.63 5.02,-2.94 5.02,-3.28l0 -922.91 -0.28 0.09 -0.38 0.12 -0.67 0.22 -0.04 0.01 -0.63 0.2 -0.46 0.14 -0.2 0.07 -0.67 0.2 -0.22 0.07 -0.46 0.14 -0.64 0.19 -0.04 0.01 -0.68 0.2 -0.39 0.12 -0.28 0.08 -0.68 0.19 -0.14 0.04 -0.54 0.15 -0.58 0.15 -0.1 0.03 -0.69 0.19 -0.33 0.08 -0.37 0.09 -0.69 0.18 -0.07 0.02 -0.63 0.15 -0.51 0.12 -0.19 0.04 -0.7 0.17 -0.25 0.06 -0.45 0.1 -0.7 0.16 -0.01 0 -0.71 0.15 -0.44 0.1 -0.27 0.06 -0.71 0.15 -0.18 0.04 -0.54 0.11 -0.63 0.12 -0.09 0.02 -0.72 0.14 -0.37 0.07 -0.35 0.07 -0.72 0.13 -0.1 0.02 -0.62 0.11 -0.56 0.1 -0.17 0.02 -0.73 0.12 -0.29 0.05 -0.44 0.07 -0.73 0.11 -0.02 0.01 -0.71 0.1 -0.49 0.07 -0.25 0.04 -0.73 0.1 -0.22 0.03 -0.52 0.07 -0.68 0.09 -0.06 0.01 -0.74 0.1 -0.41 0.05 -0.33 0.04 -0.75 0.09 -0.14 0.01 -0.61 0.07 -0.6 0.07 -0.15 0.01 -0.75 0.08 -0.33 0.03 -0.42 0.04 -0.75 0.07 -0.06 0.01 -0.7 0.06 -0.53 0.04 -0.23 0.02 -0.76 0.06 -0.25 0.02 -0.51 0.04 -0.73 0.05 -0.03 0.01 -0.77 0.04 -0.45 0.02 -0.31 0.02 -0.77 0.04 -0.17 0.01 -0.6 0.03 -0.65 0.02 -0.12 0.01 -0.77 0.03 -0.37 0.01 -0.4 0.01 -0.77 0.02 -0.09 0 -0.69 0.02 -0.57 0.01 -0.2 0 -0.78 0.01 -0.29 0 -0.49 0.01 -0.78 0 -0.78 0 -0.49 -0.01 -0.29 0 -0.78 -0.01 -0.2 0 -0.57 -0.01 -0.69 -0.02 -0.09 0 -0.77 -0.02 -0.4 -0.01 -0.37 -0.01 -0.77 -0.03 -0.12 -0.01 -0.65 -0.02 -0.6 -0.03 -0.17 -0.01 -0.77 -0.04 -0.31 -0.02 -0.45 -0.02 -0.77 -0.04 -0.03 -0.01 -0.73 -0.05 -0.51 -0.04 -0.25 -0.02 -0.76 -0.06 -0.22 -0.02 -0.53 -0.04 -0.7 -0.06 -0.06 -0.01 -0.75 -0.07 -0.42 -0.04 -0.33 -0.03 -0.75 -0.08 -0.14 -0.01 -0.6 -0.07 -0.61 -0.07 -0.14 -0.01 -0.75 -0.09 -0.33 -0.04 -0.41 -0.05 -0.74 -0.1 -0.06 -0.01 -0.68 -0.09 -0.52 -0.07 -0.22 -0.03 -0.74 -0.1 -0.25 -0.04 -0.49 -0.07 -0.71 -0.1 -0.02 -0.01 -0.73 -0.11 -0.43 -0.07 -0.3 -0.05 -0.73 -0.12 -0.17 -0.02 -0.56 -0.1 -0.62 -0.11 -0.1 -0.02 -0.72 -0.13 -0.35 -0.07 -0.37 -0.07 -0.72 -0.14 -0.09 -0.02 -0.64 -0.12 -0.53 -0.11 -0.18 -0.04 -0.72 -0.15 -0.27 -0.06 -0.44 -0.1 -0.71 -0.15 -0.7 -0.16 -0.45 -0.1 -0.25 -0.06 -0.7 -0.17 -0.19 -0.04 -0.51 -0.12 -0.63 -0.15 -0.07 -0.02 -0.7 -0.18 -0.36 -0.09 -0.33 -0.08 -0.69 -0.19 -0.11 -0.03 -0.58 -0.15 -0.54 -0.15 -0.15 -0.04 -0.68 -0.19 -0.28 -0.08 -0.4 -0.12 -0.68 -0.2 -0.03 -0.01 -0.64 -0.19 -0.46 -0.14 -0.22 -0.07 -0.67 -0.2 -0.2 -0.07 -0.46 -0.14 -0.63 -0.2 -0.04 -0.01 -0.67 -0.22 -0.38 -0.12 -0.28 -0.09zm85.23 -78.23c-9.38,-5.75 -23.04,-9.32 -38.69,-9.32 -15.66,0 -29.31,3.57 -38.69,9.32 -4.84,2.96 -7.84,5.63 -7.85,7.27l0 0.01 0 0.07 0 0.01 0.01 0.07 0 0.01 0.01 0.07 0 0.01 0.02 0.08 0 0.01 0.02 0.07 0 0.01 0.02 0.08 0 0.01 0.02 0.08 0 0.01 0.03 0.08 0 0.01 0.04 0.09 0.04 0.09 0 0.01 0.04 0.09 0 0.01 0.05 0.09 0 0.01 0.06 0.09 0.06 0.09 0 0.01 0.06 0.09 0.06 0.1 0.07 0.1 0.07 0.1 0 0.01 0.08 0.1 0.08 0.1 0.09 0.1 0.09 0.1 0.09 0.1 0.09 0.1 0 0.01 0.1 0.1 0.1 0.11 0.11 0.11 0.11 0.11 0.11 0.11 0 0.01 0.12 0.11 0.12 0.12 0.13 0.11 0.13 0.12 0.13 0.12 0 0.01 0.14 0.12 0.14 0.12 0.14 0.12 0.14 0.12 0.15 0.12 0.15 0.12 0.15 0.13 0.16 0.12 0.16 0.12 0.17 0.13 0.17 0.12 0.17 0.13 0.17 0.13 0.18 0.13 0.19 0.13 0.19 0.13 0.19 0.14 0.19 0.13 0.2 0.14 0.2 0.14 0.2 0.13 0.2 0.14 0.2 0.14 0.21 0.14 0.22 0.14 0.21 0.14 0.22 0.14 0.22 0.14 0.22 0.14 0.23 0.14c9.38,5.75 23.04,9.32 38.69,9.32l0.73 0 0.73 -0.01 0.73 -0.01 0.72 -0.02 0.72 -0.02 0.72 -0.03 0.71 -0.03 0.01 0 0.7 -0.04 0.01 0 0.7 -0.04 0.7 -0.04 0.7 -0.06 0.69 -0.06 0.01 0 0.69 -0.07 0.69 -0.07 0.68 -0.07 0.68 -0.08 0.01 0 0.67 -0.08 0.01 0 0.67 -0.09 0.01 0 0.67 -0.09 0.01 0 0.66 -0.1 0.01 0 0.66 -0.1 0.65 -0.1 0.01 0 0.65 -0.11 0.65 -0.11 0.65 -0.12 0.64 -0.12 0.64 -0.13 0.01 0 0.63 -0.13 0.63 -0.14 0.62 -0.14 0.01 0 0.62 -0.14 0.61 -0.15 0.01 0 0.6 -0.15 0.01 0 0.6 -0.16 0.6 -0.16 0.01 0 0.59 -0.17 0.59 -0.17 0.59 -0.17 0.01 0 0.58 -0.18 0.57 -0.19 0.01 0 0.57 -0.19 0.57 -0.19 0.56 -0.2 0.56 -0.2 0.01 0 0.55 -0.2 0.54 -0.21 0.01 0 0.54 -0.2 0.01 0 0.53 -0.22 0.53 -0.22 0.52 -0.22 0.52 -0.22 0.01 0 0.51 -0.23 0.01 0 0.51 -0.23 0.5 -0.23 0.01 0 0.49 -0.23 0.49 -0.25 0.01 0 0.48 -0.24 0.01 0 0.48 -0.25 0.47 -0.25 0.01 0 0.46 -0.25 0.01 0 0.46 -0.26 0.01 0 0.44 -0.27 0.01 0 0.44 -0.27 0.01 0 0.44 -0.27 0.01 0 0.22 -0.14 0.01 0 0.22 -0.14 0.01 0 0.21 -0.14 0.01 0 0.22 -0.14 0.21 -0.14 0.01 0 0.21 -0.14 0.01 0 0.2 -0.14 0.2 -0.14 0.01 0 0.2 -0.14 0.01 0 0.19 -0.13 0.01 0 0.19 -0.14 0.01 0 0.19 -0.14 0.19 -0.13 0.37 -0.27 0.01 0 0.18 -0.13 0.18 -0.13 0.17 -0.13 0.01 0 0.34 -0.25 0.17 -0.13 0.16 -0.12 0.16 -0.12 0.31 -0.25 0 -0.01 0.15 -0.12 0.14 -0.12 0.28 -0.24 0.14 -0.12 0.26 -0.23 0 -0.01 0.13 -0.11 0.12 -0.12 0.01 0 0.12 -0.11 0.11 -0.12 0.11 -0.11 0.11 -0.11 0.1 -0.1 0 -0.01 0.1 -0.1 0.09 -0.11 0.09 -0.1 0.09 -0.1 0.09 -0.1 0.08 -0.1 0.08 -0.1 0.07 -0.1 0 -0.01 0.07 -0.1 0.06 -0.1 0.06 -0.09 0.06 -0.1 0.06 -0.09 0.05 -0.09 0.04 -0.09 0.04 -0.09 0.04 -0.09 0.03 -0.09 0 -0.01 0.02 -0.08 0 -0.01 0.02 -0.08 0.02 -0.08 0 -0.01 0.02 -0.08 0.01 -0.08 0.01 -0.07 0 -0.01 0 -0.07 0 -0.01c-0.01,-1.64 -3.01,-4.31 -7.85,-7.27zm308.3 226.1l-1.99 0.64 -0.46 0.15 -0.21 0.06 -0.67 0.2 -0.21 0.07 -0.46 0.14 -0.64 0.19 -0.04 0.01 -0.68 0.2 -0.39 0.11 -0.29 0.08 -0.68 0.19 -0.14 0.04 -0.55 0.15 -0.57 0.15 -0.12 0.03 -0.69 0.18 -0.32 0.09 -0.38 0.09 -0.69 0.17 -0.06 0.02 -0.64 0.15 -0.51 0.12 -0.2 0.05 -0.7 0.17 -0.25 0.06 -0.46 0.1 -0.7 0.15 -0.01 0.01 -0.71 0.15 -0.43 0.09 -0.28 0.06 -0.71 0.15 -0.17 0.04 -0.54 0.11 -0.62 0.12 -0.09 0.02 -0.72 0.14 -0.36 0.07 -0.36 0.06 -0.72 0.14 -0.1 0.02 -0.63 0.11 -0.55 0.1 -0.18 0.02 -0.73 0.12 -0.28 0.05 -0.44 0.07 -0.73 0.12 -0.01 0.01 -0.72 0.1 -0.48 0.07 -0.26 0.04 -0.73 0.1 -0.21 0.03 -0.53 0.07 -0.67 0.09 -0.07 0.01 -0.74 0.1 -0.41 0.05 -0.34 0.04 -0.75 0.09 -0.13 0.01 -0.62 0.07 -0.6 0.07 -0.15 0.01 -0.75 0.08 -0.33 0.03 -0.43 0.04 -0.75 0.07 -0.05 0.01 -0.71 0.06 -0.52 0.04 -0.23 0.02 -0.76 0.06 -0.24 0.02 -0.52 0.04 -0.72 0.05 -0.04 0 -0.77 0.05 -0.44 0.02 -0.32 0.02 -0.77 0.04 -0.16 0.01 -0.6 0.03 -0.65 0.02 -0.12 0.01 -0.77 0.03 -0.36 0.01 -0.41 0.01 -0.77 0.02 -0.08 0 -0.7 0.02 -0.57 0.01 -0.2 0 -0.78 0.01 -0.28 0 -0.49 0.01 -0.77 0 -0.01 0 -0.78 0 -0.48 -0.01 -0.3 0 -0.78 -0.01 -0.19 0 -0.58 -0.01 -0.68 -0.02 -0.09 0 -0.77 -0.02 -0.39 -0.01 -0.38 -0.01 -0.77 -0.03 -0.11 -0.01 -0.66 -0.02 -0.59 -0.03 -0.17 -0.01 -0.77 -0.04 -0.31 -0.02 -0.46 -0.02 -0.77 -0.04 -0.02 -0.01 -0.73 -0.05 -0.51 -0.04 -0.26 -0.02 -0.76 -0.06 -0.22 -0.02 -0.53 -0.04 -0.7 -0.06 -0.06 -0.01 -0.75 -0.07 -0.41 -0.04 -0.34 -0.03 -0.75 -0.08 -0.14 -0.01 -0.61 -0.07 -0.61 -0.07 -0.14 -0.01 -0.75 -0.09 -0.33 -0.04 -0.41 -0.05 -0.74 -0.1 -0.06 -0.01 -0.68 -0.09 -0.52 -0.07 -0.22 -0.03 -0.74 -0.1 -0.24 -0.04 -0.49 -0.07 -0.7 -0.1 -0.03 -0.01 -0.73 -0.11 -0.43 -0.07 -0.3 -0.05 -0.73 -0.12 -0.16 -0.02 -0.57 -0.1 -0.62 -0.11 -0.1 -0.02 -0.72 -0.13 -0.35 -0.07 -0.37 -0.07 -0.72 -0.14 -0.08 -0.02 -0.64 -0.12 -0.53 -0.11 -0.18 -0.04 -0.72 -0.15 -0.27 -0.06 -0.44 -0.1 -0.71 -0.15 -0.7 -0.16 -0.44 -0.1 -0.26 -0.06 -0.7 -0.17 -0.19 -0.04 -0.51 -0.12 -0.62 -0.15 -0.07 -0.02 -0.7 -0.18 -0.36 -0.09 -0.33 -0.08 -0.69 -0.19 -0.1 -0.03 -0.59 -0.15 -0.53 -0.15 -0.15 -0.04 -0.68 -0.19 -0.28 -0.08 -0.4 -0.12 -0.68 -0.2 -0.02 -0.01 -0.65 -0.19 -0.46 -0.14 -0.22 -0.07 -0.67 -0.2 -0.2 -0.07 -0.46 -0.14 -0.62 -0.2 -0.04 -0.01 -0.67 -0.22 -0.37 -0.12 -0.29 -0.09 0 922.91c0,0.35 2.11,1.65 5.02,3.28 12.01,6.73 29.87,9.24 41.52,9.24 11.66,0 29.51,-2.51 41.52,-9.24 2.91,-1.63 5.02,-2.94 5.02,-3.28l0 -922.91zm-7.84 -78.23c-9.39,-5.75 -23.04,-9.32 -38.69,-9.32 -15.66,0 -29.31,3.57 -38.7,9.32 -4.84,2.97 -7.85,5.64 -7.85,7.28 0,1.64 3.01,4.31 7.85,7.28l0.44 0.27 0.45 0.27 0.45 0.27 0.46 0.26 0.47 0.25 0.47 0.25 0.01 0 0.48 0.25 0.49 0.24 0.49 0.25 0.01 0 0.49 0.23 0.5 0.23 0.01 0 0.51 0.23 0.51 0.23 0.52 0.22 0.01 0 0.52 0.22 0.01 0 0.52 0.22 0.01 0 0.53 0.22 0.54 0.2 0.54 0.21 0.01 0 0.55 0.2 0.56 0.2 0.01 0 0.56 0.2 0.01 0 0.56 0.19 0.01 0 0.57 0.19 0.57 0.19 0.01 0 0.58 0.18 0.59 0.17 0.01 0 0.59 0.17 0.01 0 0.59 0.17 0.6 0.16 0.01 0 0.6 0.16 0.61 0.15 0.61 0.15 0.01 0 0.62 0.14 0.62 0.14 0.01 0 0.62 0.14 0.01 0 0.63 0.13 0.64 0.13 0.01 0 0.64 0.12 0.01 0 0.64 0.12 0.01 0 0.64 0.11 0.01 0 0.65 0.11 0.65 0.1 0.01 0 0.66 0.1 0.67 0.09 0.67 0.09 0.67 0.09 0.68 0.08 0.68 0.08 0.01 0 0.68 0.07 0.01 0 0.68 0.07 0.01 0 0.69 0.07 0.69 0.06 0.01 0 0.7 0.06 0.01 0 0.7 0.04 0.01 0 0.7 0.04 0.71 0.04 0.71 0.03 0.01 0 0.71 0.03 0.01 0 0.72 0.02 0.01 0 0.72 0.02 0.01 0 0.72 0.01 0.01 0 0.72 0.01 0.01 0 0.73 0 0.01 0 0.73 0 0.01 0 0.72 -0.01 0.01 0 0.72 -0.01 0.01 0 0.72 -0.02 0.01 0 0.72 -0.02 0.72 -0.03 0.01 0 0.71 -0.03 0.71 -0.04 0.7 -0.04 0.01 0 0.7 -0.04 0.01 0 0.7 -0.06 0.7 -0.06 0.69 -0.07 0.01 0 0.68 -0.07 0.68 -0.07 0.01 0 0.68 -0.08 0.68 -0.08 0.67 -0.09 0.67 -0.09 0.67 -0.09 0.66 -0.1 0.66 -0.1 0.65 -0.11 0.65 -0.11 0.01 0 0.64 -0.12 0.64 -0.12 0.01 0 0.64 -0.13 0.63 -0.13 0.01 0 0.62 -0.14 0.63 -0.14 0.62 -0.14 0.62 -0.15 0.61 -0.15 0.6 -0.16 0.6 -0.16 0.59 -0.17 0.01 0 0.59 -0.17 0.01 0 0.59 -0.17 0.58 -0.18 0.58 -0.19 0.57 -0.19 0.57 -0.19 0.56 -0.2 0.01 0 0.56 -0.2 0.55 -0.2 0.55 -0.21 0.54 -0.2 0.53 -0.22 0.53 -0.22 0.52 -0.22 0.52 -0.22 0.51 -0.23 0.51 -0.23 0.51 -0.23 0.49 -0.23 0.49 -0.25 0.49 -0.24 0.48 -0.25 0.48 -0.25 0.47 -0.25 0.46 -0.26 0.45 -0.27 0.45 -0.27 0.44 -0.27c4.84,-2.97 7.84,-5.63 7.84,-7.28 0,-1.64 -3,-4.31 -7.84,-7.28zm-46.67 1439.91c-19.77,0 -35.8,16.03 -35.8,35.8 0,19.77 16.03,35.8 35.8,35.8 19.77,0 35.8,-16.03 35.8,-35.8 0,-19.77 -16.03,-35.8 -35.8,-35.8zm-304.92 -68.03c19.77,0 35.8,16.03 35.8,35.8 0,19.77 -16.03,35.8 -35.8,35.8 -19.77,0 -35.8,-16.03 -35.8,-35.8 0,-19.77 16.03,-35.8 35.8,-35.8zm530.48 -143.21c-19.77,0 -35.8,16.03 -35.8,35.8 0,19.77 16.03,35.8 35.8,35.8 19.77,0 35.8,-16.03 35.8,-35.8 0,-19.77 -16.03,-35.8 -35.8,-35.8zm-704.13 100.25c19.77,0 35.8,16.03 35.8,35.8 0,19.77 -16.03,35.8 -35.8,35.8 -19.77,0 -35.8,-16.03 -35.8,-35.8 0,-19.77 16.03,-35.8 35.8,-35.8zm-244.05 -220.19c19.77,0 35.8,16.03 35.8,35.8 0,19.77 -16.03,35.8 -35.8,35.8 -19.77,0 -35.8,-16.03 -35.8,-35.8 0,-19.77 16.03,-35.8 35.8,-35.8zm-305.44 -248.54c19.77,0 35.8,16.03 35.8,35.8 0,19.77 -16.03,35.8 -35.8,35.8 -19.77,0 -35.8,-16.03 -35.8,-35.8 0,-19.77 16.03,-35.8 35.8,-35.8zm-211.33 44.47c19.77,0 35.8,16.03 35.8,35.8 0,19.77 -16.03,35.8 -35.8,35.8 -19.77,0 -35.8,-16.03 -35.8,-35.8 0,-19.77 16.03,-35.8 35.8,-35.8zm-122.92 -165.29c19.77,0 35.8,16.03 35.8,35.8 0,19.77 -16.03,35.8 -35.8,35.8 -19.77,0 -35.8,-16.03 -35.8,-35.8 0,-19.77 16.03,-35.8 35.8,-35.8zm140.07 342.01c34.33,-23.34 114.23,-64.26 211.28,-24.73 95.35,38.84 195.73,-39.75 196.02,-39.98 13.44,-10.45 32.82,-8.02 43.26,5.42 10.45,13.44 8.02,32.82 -5.42,43.26 -0.36,0.28 -128.61,100.72 -257.01,48.42 -51.42,-20.95 -95.98,-10.81 -125.79,2.67l992.25 558.16 0 -382 -1380.47 -764.74 0 85.65c6.37,2.23 64.83,23.97 100.49,82.07 8.85,14.51 4.26,33.46 -10.24,42.31 -14.51,8.85 -33.46,4.26 -42.31,-10.24 -14.44,-23.51 -33.72,-38.14 -47.94,-46.48l0 216.9 325.87 183.31zm1313.4 361.47c-5.19,-16.17 3.71,-33.5 19.89,-38.69 16.17,-5.19 33.5,3.71 38.69,19.89 0.04,0.11 12.23,38.75 50.22,65.2l171.32 -102.88 0 -262.01c-13.28,8.73 -29.27,22.38 -41.68,42.59 -8.85,14.51 -27.8,19.09 -42.31,10.24 -14.51,-8.85 -19.09,-27.8 -10.24,-42.31 30.24,-49.25 76.85,-72.38 94.23,-79.64l0 -38.61 -427.74 247.06 -49.47 28.57 0 380.65 249.93 -150.08c-39.17,-36.67 -52.8,-79.85 -52.85,-79.99z"/>
 </g>
</svg>
