<?xml version="1.0" encoding="UTF-8"?>
<!DOCTYPE svg PUBLIC "-//W3C//DTD SVG 1.1//EN" "http://www.w3.org/Graphics/SVG/1.1/DTD/svg11.dtd">
<!-- Creator: CorelDRAW 2021 (64-Bit Not for commercial use) -->
<svg xmlns="http://www.w3.org/2000/svg" xml:space="preserve" width="28.9371mm" height="39.3331mm" version="1.1" style="shape-rendering:geometricPrecision; text-rendering:geometricPrecision; image-rendering:optimizeQuality; fill-rule:evenodd; clip-rule:evenodd"
viewBox="0 0 837.45 1138.31"
 xmlns:xlink="http://www.w3.org/1999/xlink"
 xmlns:xodm="http://www.corel.com/coreldraw/odm/2003">
 <defs>
  <style type="text/css">
   <![CDATA[
    .fil0 {fill:#F1CE4E;fill-rule:nonzero}
   ]]>
  </style>
 </defs>
 <g id="Layer_x0020_1">
  <metadata id="CorelCorpID_0Corel-Layer"/>
  <g>
   <path class="fil0" d="M508.16 932.95l-75.94 -42.12c-45.81,-9.86 -58.24,4.2 -70.47,18.04 -17.34,19.63 -34.43,38.97 -91.62,26.71 -7.8,-1.65 -12.79,-9.32 -11.14,-17.13 1.65,-7.8 9.32,-12.79 17.13,-11.14 40.81,8.74 52.34,-4.31 64.04,-17.56 10.15,-11.49 20.4,-23.09 38.88,-28.43l-335.91 -186.3 -14.2 -7.87 0 45.38c2.23,-0.39 4.59,-0.27 6.89,0.47 0.08,0.03 29.72,9.78 47.4,38.58 4.15,6.8 2,15.69 -4.8,19.84 -6.8,4.15 -15.69,2 -19.84,-4.8 -9.83,-16.01 -24.45,-23.24 -29.65,-25.41l0 87.82 479.22 270.07 0 -166.17zm-75.25 -715.52l77.15 -42.7 0 -55.57 -77.15 42.7 0 55.57zm61.89 -122.73l-115.34 -63.85 -76.36 42.27 115.34 63.85 76.36 -42.27zm-108.39 -92.9l143.75 79.57c5.19,2.2 8.82,7.34 8.82,13.33l0 88.47 -0.08 0c-0.01,5.07 -2.69,9.98 -7.44,12.6l-49.96 27.66 0 99.07c3.28,1.33 6.18,3.06 8.6,5.03 5.97,4.84 9.44,11.48 9.44,18.06 0,0.7 -0.05,1.47 -0.15,2.27 -1.14,9.61 -7.7,19.95 -17.89,29.75l0 67.92c3.28,1.33 6.18,3.06 8.6,5.03 5.97,4.84 9.44,11.48 9.44,18.06 0,0.7 -0.05,1.47 -0.15,2.27 -1.14,9.61 -7.7,19.95 -17.89,29.75l0 36.12 348.52 196.4c4.72,2.65 7.38,7.55 7.39,12.6l0.02 0 0 194.83c0,5.6 -3.18,10.45 -7.83,12.86l-298.94 182.41c-4.38,2.93 -10.21,3.36 -15.12,0.61l-507.46 -285.98c-4.8,-2.36 -8.1,-7.29 -8.1,-12.99l0 -194.83 0.05 0 0 -0.11 0 -0.23 0 -0.11 0 -0.06 0 -0.05 0.01 -0.11 0.01 -0.11 0 -0.07 0 -0.04 0.01 -0.11 0.01 -0.11 0.02 -0.23 0.01 -0.11 0.01 -0.1 0 -0.01 0.01 -0.11 0.01 -0.11 0.03 -0.22 0.01 -0.11 0.02 -0.11 0 -0.02 0.01 -0.09 0.02 -0.11 0.02 -0.11 0.02 -0.11 0.02 -0.11 0.02 -0.11 0.01 -0.05 0.01 -0.06 0.02 -0.11 0.03 -0.11 0.03 -0.11 0.03 -0.11 0.03 -0.11 0.02 -0.08 0.01 -0.03 0.03 -0.11 0.03 -0.11 0.03 -0.09 0.01 -0.02 0.03 -0.11 0.03 -0.11 0.03 -0.1 0 -0.01 0.03 -0.11 0.04 -0.11 0.04 -0.11 0 -0.01 0.04 -0.1 0.04 -0.11 0.04 -0.11 0.01 -0.02 0.03 -0.08 0.04 -0.11 0.04 -0.11 0.01 -0.04 0.03 -0.07 0.04 -0.11 0.04 -0.11 0.02 -0.05 0.02 -0.06 0.05 -0.11 0.05 -0.11 0.03 -0.06 0.02 -0.04 0.05 -0.11 0.05 -0.11 0.04 -0.08 0.01 -0.03 0.05 -0.11 0.05 -0.1 0.05 -0.09 0.01 -0.01 0.06 -0.1 0.05 -0.1 0.06 -0.1 0.06 -0.1 0.06 -0.11 0.06 -0.1 0.01 -0.01 0.05 -0.1 0.06 -0.1 0.06 -0.1 0.01 -0.02 0.05 -0.08 0.06 -0.1 0.06 -0.1 0.02 -0.02 0.05 -0.08 0.07 -0.1 0.07 -0.1 0.02 -0.03 0.05 -0.07 0.07 -0.1 0.07 -0.1 0.03 -0.04 0.04 -0.06 0.07 -0.09 0.07 -0.1 0.03 -0.04 0.04 -0.05 0.07 -0.09 0.07 -0.09 0.04 -0.05 0.03 -0.04 0.08 -0.09 0.08 -0.09 0.05 -0.05 0.03 -0.03 0.08 -0.09 0.08 -0.09 0.05 -0.06 0.02 -0.03 0.08 -0.08 0.08 -0.09 0.06 -0.07 0.02 -0.02 0.08 -0.08 0.08 -0.08 0.07 -0.07 0.01 -0.01 0.08 -0.08 0.08 -0.08 0.08 -0.08 0 -0 0.08 -0.08 0.08 -0.08 0.08 -0.08 0 -0 0 -0 0.16 -0.15 0.09 -0.08 0.01 -0.01 0.08 -0.07 0.09 -0.07 0.09 -0.07 0.02 -0.02 0.07 -0.05 0.09 -0.07 0.09 -0.07 0.03 -0.02 0.06 -0.05 0.09 -0.07 0.09 -0.07 0.03 -0.03 0.06 -0.04 0.09 -0.07 0.09 -0.06 0.04 -0.03 0.05 -0.03 0.09 -0.06 0.09 -0.06 0.05 -0.03 0.04 -0.03 0.1 -0.06 0.1 -0.06 0.06 -0.04 0.04 -0.02 0.1 -0.06 0.1 -0.06 0.07 -0.04 0.08 -0.05 300.19 -183.19c4.61,-2.81 10.18,-2.73 14.58,-0.27l7.97 4.49 0 -24.07c-2.36,-0.23 -4.58,-0.51 -6.64,-0.85 -7.87,-1.31 -13.18,-8.75 -11.87,-16.62 1.31,-7.87 8.75,-13.18 16.62,-11.87 0.61,0.1 1.24,0.19 1.89,0.28l0 -188.86 19.9 11.01 -83.32 -46.12c-4.75,-2.62 -7.44,-7.53 -7.44,-12.6l-0.08 0 0 -88.47c0,-5.99 3.64,-11.13 8.83,-13.33l104.56 -57.88c4.21,-2.41 9.55,-2.64 14.12,-0.12zm66.16 237.65l-25.87 14.32 -0.11 0.08 -0.07 0.05 -0.04 0.03 -0.11 0.08 -0.11 0.07 -0.03 0.02 -0.09 0.05 -0.11 0.07 -0.1 0.06 -0.02 0.01 -0.12 0.07 -0.12 0.07 -0.05 0.03 -0.07 0.04 -0.12 0.07 -0.12 0.07 -0.01 0 -0.22 0.12 -0.01 0.01 -0.08 0.04 -0.04 0.02 -0.12 0.06 -0.12 0.06 -0.03 0.01 -0.1 0.04 -0.12 0.06 -0.1 0.05 -0.02 0.01 -0.12 0.05 -0.12 0.05 -0.05 0.02 -0.07 0.03 -0.12 0.05 -0.13 0.05 -0 0 -0.12 0.05 -0.13 0.05 -0.08 0.03 -0.05 0.01 -0.13 0.05 -0.13 0.05 -0.03 0.01 -0.1 0.03 -0.13 0.04 -0.11 0.03 -0.02 0.01 -0.13 0.04 -0.13 0.04 -0.05 0.01 -0.08 0.02 -0.13 0.03 -0.13 0.03 -0 0 -0.13 0.03 -0.13 0.03 -0.08 0.02 -0.05 0.01 -0.13 0.03 -0.14 0.03 -0.03 0.01 -0.11 0.02 -0.14 0.03 -0.11 0.02 -0.03 0 -0.14 0.03 -0.14 0.02 -0.06 0.01 -0.08 0.01 -0.14 0.02 -0.14 0.02 -0.14 0.02 -0.14 0.01 -0.09 0.01 -0.05 0.01 -0.28 0.03 -0.03 0 -0.11 0.01 -0.14 0.01 -0.12 0.01 -0.03 0 -0.14 0.01 -0.14 0.01 -0.06 0 -0.09 0 -0.14 0 -0.14 0 -0.14 0 -0.14 -0 -0.09 -0 -0.06 0 -0.14 -0.01 -0.14 -0.01 -0.03 -0 -0.12 -0.01 -0.14 -0.01 -0.11 -0.01 -0.03 0 -0.28 -0.03 -0.05 -0.01 -0.09 -0.01 -0.14 -0.01 -0.14 -0.02 -0.14 -0.02 -0.14 -0.02 -0.08 -0.01 -0.06 -0.01 -0.14 -0.02 -0.14 -0.03 -0.03 -0 -0.11 -0.02 -0.14 -0.03 -0.11 -0.02 -0.03 -0.01 -0.14 -0.03 -0.13 -0.03 -0.05 -0.01 -0.08 -0.02 -0.13 -0.03 -0.13 -0.03 -0 -0 -0.13 -0.03 -0.13 -0.03 -0.08 -0.02 -0.05 -0.01 -0.13 -0.04 -0.13 -0.04 -0.02 -0.01 -0.11 -0.03 -0.13 -0.04 -0.1 -0.03 -0.03 -0.01 -0.13 -0.05 -0.13 -0.05 -0.05 -0.01 -0.08 -0.03 -0.13 -0.05 -0.12 -0.05 -0 0 -0.13 -0.05 -0.12 -0.05 -0.07 -0.03 -0.05 -0.02 -0.12 -0.05 -0.12 -0.05 -0.02 -0.01 -0.1 -0.05 -0.12 -0.06 -0.1 -0.04 -0.03 -0.01 -0.12 -0.06 -0.12 -0.06 -0.04 -0.02 -0.08 -0.04 -0.01 -0.01 -0.22 -0.12 -0.01 0 -0.12 -0.07 -0.12 -0.07 -0.07 -0.04 -0.05 -0.03 -0.12 -0.07 -0.12 -0.07 -0.02 -0.01 -0.1 -0.06 -0.11 -0.07 -0.09 -0.05 -0.03 -0.02 -0.11 -0.07 -0.11 -0.08 -0.04 -0.03 -0.07 -0.05 -0.11 -0.08 -51.38 -28.44 0 173.01c2.65,-0.23 5.37,-0.52 8.14,-0.87 13.62,-1.74 28.45,-5.05 42.58,-10.26 16.33,-6.02 31.54,-14.26 43.07,-22.87l0 -124.88zm-68.03 -88.33l-96.7 -53.53 0 55.57 116.12 64.28 0 -55.57 -19.42 -10.75zm-61.34 521.31c-7.87,-1.31 -13.18,-8.75 -11.87,-16.62 1.31,-7.87 8.75,-13.18 16.62,-11.87 0.61,0.1 1.24,0.19 1.89,0.28l0 -93.97c-2.36,-0.23 -4.58,-0.51 -6.64,-0.85 -7.87,-1.31 -13.18,-8.75 -11.87,-16.62 1.31,-7.87 8.75,-13.18 16.62,-11.87 0.61,0.1 1.24,0.19 1.89,0.28l0 -36.75 -14.75 -8.31 -271.95 165.94 400.73 222.25c0.34,0.17 0.67,0.36 1,0.55l77.53 43 271.8 -161.74 -300.96 -169.61c4.04,4.42 6.32,9.8 6.32,15.12 0,0.7 -0.05,1.47 -0.15,2.27 -1.14,9.61 -7.7,19.95 -17.89,29.75l0 72.43c0,15.19 -11.74,37.45 -26.39,55.14 -14.72,17.78 -33.5,32.01 -48.28,32.01 -14.7,0 -34.23,-14.4 -49.62,-32.28 -15.16,-17.63 -27.39,-39.68 -27.39,-54.88l0 -22.83c-2.36,-0.23 -4.58,-0.51 -6.64,-0.85zm35.58 -28.03c2.65,-0.23 5.37,-0.52 8.14,-0.87 13.62,-1.74 28.45,-5.05 42.58,-10.26 16.33,-6.02 31.54,-14.26 43.07,-22.87l0 -88.59c-10.15,5.89 -21.44,11.25 -33.12,15.56 -16.05,5.92 -33.11,9.71 -48.91,11.72 -4.01,0.51 -7.94,0.91 -11.76,1.19l0 94.12zm93.79 0.44c-10.15,5.89 -21.44,11.25 -33.12,15.56 -16.05,5.92 -33.11,9.71 -48.91,11.72 -4.01,0.51 -7.94,0.9 -11.76,1.19l0 22.79c0,8.19 9.1,23 20.38,36.11 10.53,12.24 21.85,22.1 27.68,22.1 5.56,0 16.12,-9.56 26,-21.5 10.95,-13.22 19.72,-28.29 19.72,-36.71l0 -51.27zm-93.79 -123.47c2.65,-0.23 5.37,-0.52 8.14,-0.87 13.62,-1.74 28.45,-5.05 42.58,-10.26 16.33,-6.02 31.54,-14.26 43.07,-22.87l0 -88.59c-10.15,5.89 -21.44,11.25 -33.12,15.56 -16.05,5.92 -33.11,9.71 -48.91,11.72 -4.01,0.51 -7.94,0.91 -11.76,1.19l0 94.11zm403.68 439.24c-15.06,-2.11 -35.8,-0.74 -55.84,14.64 -51.54,39.57 -121.97,10.08 -122.17,10 -7.37,-3.03 -10.88,-11.46 -7.85,-18.82 3.03,-7.37 11.46,-10.88 18.82,-7.85 0.16,0.06 55.35,23.16 93.69,-6.27 46.49,-35.69 96.18,-16.55 106.52,-11.92l12.88 -7.86 0 -161.39 -271.41 161.51 0 165.49 225.37 -137.52zm-37.91 -101.29c9.27,0 16.79,7.52 16.79,16.79 0,9.27 -7.52,16.79 -16.79,16.79 -9.27,0 -16.79,-7.52 -16.79,-16.79 0,-9.27 7.52,-16.79 16.79,-16.79zm-286.3 125.55c9.27,0 16.79,7.52 16.79,16.79 0,9.27 -7.52,16.79 -16.79,16.79 -9.27,0 -16.79,-7.52 -16.79,-16.79 0,-9.27 7.52,-16.79 16.79,-16.79zm-236.68 -130.18c9.27,0 16.79,7.52 16.79,16.79 0,9.27 -7.52,16.79 -16.79,16.79 -9.27,0 -16.79,-7.52 -16.79,-16.79 0,-9.27 7.52,-16.79 16.79,-16.79zm-42.83 -90.93c9.27,0 16.79,7.52 16.79,16.79 0,9.27 -7.52,16.79 -16.79,16.79 -9.27,0 -16.79,-7.52 -16.79,-16.79 0,-9.27 7.52,-16.79 16.79,-16.79z"/>
  </g>
 </g>
</svg>
