<?xml version="1.0" encoding="UTF-8"?>
<!DOCTYPE svg PUBLIC "-//W3C//DTD SVG 1.1//EN" "http://www.w3.org/Graphics/SVG/1.1/DTD/svg11.dtd">
<!-- Creator: CorelDRAW 2021 (64-Bit Not for commercial use) -->
<svg xmlns="http://www.w3.org/2000/svg" xml:space="preserve" width="33.1037mm" height="38.1291mm" version="1.1" style="shape-rendering:geometricPrecision; text-rendering:geometricPrecision; image-rendering:optimizeQuality; fill-rule:evenodd; clip-rule:evenodd"
viewBox="0 0 1043.76 1202.21"
 xmlns:xlink="http://www.w3.org/1999/xlink"
 xmlns:xodm="http://www.corel.com/coreldraw/odm/2003">
 <defs>
  <style type="text/css">
   <![CDATA[
    .fil0 {fill:#F1CE4E;fill-rule:nonzero}
   ]]>
  </style>
 </defs>
 <g id="Layer_x0020_1">
  <metadata id="CorelCorpID_0Corel-Layer"/>
  <path class="fil0" d="M752.46 937.06l243.76 -140.79 -106.93 -60.15 0 82.46c0,16.73 -9.76,28.19 -23.27,35.76 -15.21,8.53 -35.91,11.69 -49.04,11.69 -13.13,0 -33.83,-3.17 -49.04,-11.69 -13.52,-7.58 -23.27,-19.03 -23.27,-35.76l0 -163.82 -149.09 -83.87 0 116.44c0,16.73 -9.76,28.19 -23.27,35.76 -15.21,8.53 -35.91,11.69 -49.04,11.69 -13.13,0 -33.83,-3.17 -49.04,-11.69 -13.52,-7.58 -23.27,-19.03 -23.27,-35.76l0 -197.8 -149.09 -83.87 0 128.13c0,16.73 -9.76,28.19 -23.27,35.76 -15.21,8.53 -35.91,11.69 -49.04,11.69 -13.13,0 -33.83,-3.17 -49.04,-11.69 -13.52,-7.58 -23.27,-19.03 -23.27,-35.76l0 -53.49 -110.02 66.06 705.26 390.69zm136.83 -237.06l146.4 82.35c5.14,2.88 8.04,8.23 8.05,13.73l0.02 0 0 225.04c0,6.19 -3.58,11.55 -8.77,14.13l-273.47 164.21c-4.78,3.26 -11.19,3.75 -16.58,0.73l-553.09 -311.13 -0.46 -0.26 -182.56 -102.69c-5.23,-2.57 -8.83,-7.94 -8.83,-14.16l0 -225.04 0.05 0 0 -0.12 0 -0.25 0 -0.12 0 -0.06 0 -0.06 0.01 -0.12 0.01 -0.12 0 -0.08 0 -0.04 0.01 -0.12 0.01 -0.12 0.02 -0.25 0.01 -0.12 0.01 -0.11 0 -0.01 0.01 -0.12 0.02 -0.12 0.03 -0.24 0.02 -0.12 0.02 -0.12 0 -0.02 0.02 -0.1 0.02 -0.12 0.02 -0.12 0.02 -0.12 0.02 -0.12 0.03 -0.12 0.01 -0.05 0.02 -0.07 0.03 -0.12 0.03 -0.12 0.03 -0.12 0.03 -0.12 0.03 -0.12 0.02 -0.08 0.01 -0.04 0.03 -0.12 0.03 -0.12 0.03 -0.1 0.01 -0.02 0.03 -0.12 0.04 -0.12 0.03 -0.11 0 -0.01 0.04 -0.12 0.04 -0.12 0.04 -0.12 0 -0.01 0.04 -0.11 0.04 -0.12 0.04 -0.12 0.01 -0.03 0.04 -0.09 0.04 -0.12 0.05 -0.12 0.02 -0.04 0.03 -0.08 0.05 -0.12 0.05 -0.12 0.03 -0.05 0.03 -0.06 0.05 -0.12 0.05 -0.12 0.03 -0.07 0.02 -0.04 0.05 -0.12 0.06 -0.12 0.04 -0.09 0.02 -0.03 0.06 -0.12 0.06 -0.11 0.05 -0.1 0.01 -0.02 0.06 -0.11 0.06 -0.11 0.06 -0.11 0.07 -0.12 0.07 -0.12 0.07 -0.12 0 -0 0.07 -0.11 0.07 -0.11 0.07 -0.11 0 -0.01 0.07 -0.1 0.07 -0.11 0.07 -0.11 0.01 -0.01 0.07 -0.1 0.07 -0.11 0.08 -0.11 0.01 -0.01 0.07 -0.09 0.08 -0.11 0.08 -0.1 0.01 -0.02 0.07 -0.09 0.08 -0.1 0.08 -0.1 0.02 -0.02 0.07 -0.09 0.08 -0.1 0.08 -0.1 0.02 -0.02 0.06 -0.08 0.09 -0.1 0.08 -0.1 0.02 -0.02 0.07 -0.08 0.09 -0.1 0.09 -0.09 0.02 -0.03 0.06 -0.07 0.09 -0.09 0.09 -0.09 0.03 -0.03 0.06 -0.07 0.09 -0.09 0.09 -0.09 0.03 -0.03 0.06 -0.06 0.09 -0.09 0.09 -0.09 0.03 -0.03 0.06 -0.06 0.09 -0.09 0.09 -0.09 0.03 -0.03 0.06 -0.05 0.09 -0.09 0.1 -0.09 0.04 -0.03 0.06 -0.05 0.1 -0.08 0.1 -0.08 0.04 -0.03 0.06 -0.04 0.1 -0.08 0.1 -0.08 0.05 -0.04 0.05 -0.04 0.1 -0.08 0.1 -0.08 0.05 -0.04 0.05 -0.04 0.1 -0.08 0.1 -0.07 0.05 -0.04 0.05 -0.03 0.1 -0.07 0.1 -0.07 0.06 -0.04 0.26 -0.17 0.06 -0.04 0.15 -0.1 0.11 -0.06 0.06 -0.04 0.04 -0.03 0.01 -0.01 149.51 -89.78 0 -393.21c0,-15.43 9.23,-28.8 24.14,-37.94 12.59,-7.72 29.65,-12.49 48.18,-12.49 18.53,0 35.59,4.78 48.18,12.49 14.91,9.14 24.14,22.51 24.14,37.94l0 319.14 149.09 83.86 0 -249.47c0,-15.43 9.23,-28.8 24.14,-37.94 12.59,-7.72 29.65,-12.49 48.18,-12.49 18.53,0 35.59,4.78 48.18,12.49 14.91,9.14 24.14,22.51 24.14,37.94l0 330.82 149.09 83.86 0 -283.44c0,-15.43 9.23,-28.8 24.14,-37.94 12.59,-7.72 29.65,-12.49 48.18,-12.49 18.53,0 35.59,4.78 48.18,12.49 14.91,9.14 24.14,22.51 24.14,37.94l0 364.79zm-113.1 -322.89l0 441.47c0,3.17 3,5.98 7.14,8.3 9.92,5.56 24.31,7.62 33.65,7.62 9.34,0 23.73,-2.07 33.65,-7.62 4.14,-2.32 7.14,-5.14 7.14,-8.3l0 -441.47 -0.14 0.07 -0.4 0.18 -0.26 0.12 -0.28 0.13 -0.39 0.17 -0.16 0.07 -0.52 0.22 -0.03 0.02 -0.56 0.24 -0.09 0.04 -0.47 0.2 -0.22 0.09 -0.35 0.14 -0.35 0.14 -0.22 0.09 -0.48 0.19 -0.53 0.2 -0.14 0.05 -0.04 0.02 -0.54 0.2 -0.17 0.06 -0.41 0.15 -0.3 0.11 -0.28 0.1 -0.44 0.15 -0.15 0.05 -0.57 0.2 -0.02 0.01 -0.6 0.2 -0.12 0.04 -0.48 0.16 -0.26 0.08 -0.35 0.11 -0.39 0.12 -0.21 0.07 -0.53 0.16 -0.08 0.02 -0.61 0.18 -0.06 0.02 -0.55 0.16 -0.2 0.06 -0.42 0.12 -0.34 0.09 -0.28 0.08 -0.49 0.13 -0.14 0.03 -0.62 0.16 -0 0 -0.63 0.16 -0.15 0.03 -0.49 0.12 -0.29 0.07 -0.35 0.08 -0.43 0.1 -0.2 0.05 -0.58 0.13 -0.06 0.01 -0.64 0.14 -0.09 0.02 -0.56 0.12 -0.23 0.05 -0.42 0.09 -0.38 0.08 -0.27 0.05 -0.53 0.1 -0.13 0.03 -0.66 0.12 -0.02 0.01 -0.63 0.11 -0.17 0.03 -0.49 0.08 -0.32 0.05 -0.34 0.05 -0.47 0.08 -0.19 0.03 -0.62 0.09 -0.04 0.01 -0.67 0.1 -0.11 0.01 -0.56 0.08 -0.26 0.03 -0.41 0.05 -0.42 0.05 -0.26 0.03 -0.57 0.07 -0.11 0.01 -0.68 0.07 -0.05 0 -0.64 0.07 -0.2 0.02 -0.48 0.05 -0.36 0.03 -0.33 0.03 -0.51 0.04 -0.18 0.02 -0.67 0.05 -0.02 0 -0.69 0.05 -0.14 0.01 -0.56 0.03 -0.29 0.02 -0.4 0.02 -0.45 0.03 -0.25 0.01 -0.61 0.03 -0.09 0 -0.7 0.03 -0.07 0 -0.63 0.02 -0.23 0.01 -0.48 0.01 -0.38 0.01 -0.32 0 -0.55 0.01 -0.16 0 -0.71 0 -0.71 -0 -0.16 0 -0.55 -0.01 -0.32 -0 -0.38 -0.01 -0.48 -0.01 -0.23 -0.01 -0.63 -0.02 -0.07 0 -0.7 -0.03 -0.09 -0 -0.61 -0.03 -0.25 -0.01 -0.45 -0.03 -0.4 -0.02 -0.29 -0.02 -0.56 -0.03 -0.14 -0.01 -0.69 -0.05 -0.02 0 -0.67 -0.05 -0.18 -0.02 -0.51 -0.04 -0.33 -0.03 -0.35 -0.03 -0.49 -0.05 -0.2 -0.02 -0.64 -0.07 -0.04 -0 -0.68 -0.07 -0.11 -0.01 -0.57 -0.07 -0.26 -0.03 -0.41 -0.05 -0.41 -0.05 -0.26 -0.03 -0.56 -0.08 -0.11 -0.01 -0.67 -0.1 -0.04 -0.01 -0.62 -0.09 -0.2 -0.03 -0.47 -0.08 -0.34 -0.05 -0.32 -0.05 -0.49 -0.08 -0.17 -0.03 -0.64 -0.11 -0.02 -0.01 -0.66 -0.12 -0.13 -0.03 -0.53 -0.1 -0.27 -0.05 -0.38 -0.08 -0.42 -0.09 -0.23 -0.05 -0.56 -0.12 -0.08 -0.02 -0.64 -0.14 -0.06 -0.01 -0.58 -0.13 -0.21 -0.05 -0.43 -0.1 -0.35 -0.08 -0.29 -0.07 -0.49 -0.12 -0.14 -0.03 -0.63 -0.16 -0.63 -0.16 -0.14 -0.03 -0.48 -0.13 -0.28 -0.08 -0.34 -0.09 -0.42 -0.12 -0.2 -0.06 -0.55 -0.16 -0.06 -0.02 -0.61 -0.18 -0.08 -0.02 -0.53 -0.16 -0.21 -0.07 -0.39 -0.12 -0.35 -0.11 -0.25 -0.08 -0.49 -0.16 -0.11 -0.04 -0.6 -0.2 -0.02 -0.01 -0.57 -0.2 -0.15 -0.05 -0.44 -0.15 -0.28 -0.1 -0.3 -0.11 -0.41 -0.15 -0.17 -0.06 -0.54 -0.2 -0.04 -0.02 -0.58 -0.22 -0.09 -0.04 -0.48 -0.19 -0.22 -0.09 -0.35 -0.14 -0.35 -0.14 -0.22 -0.09 -0.47 -0.2 -0.09 -0.04 -0.56 -0.24 -0.03 -0.02 -0.52 -0.22 -0.16 -0.07 -0.39 -0.17 -0.28 -0.13 -0.26 -0.12 -0.4 -0.18 -0.14 -0.07zm-293.72 -131.25l0 441.47c0,3.17 3,5.98 7.14,8.3 9.92,5.56 24.31,7.62 33.65,7.62 9.34,0 23.73,-2.07 33.65,-7.62 4.14,-2.32 7.14,-5.14 7.14,-8.3l0 -441.47 -0.14 0.07 -0.4 0.18 -0.26 0.12 -0.28 0.13 -0.39 0.17 -0.16 0.07 -0.52 0.22 -0.03 0.02 -0.56 0.24 -0.09 0.04 -0.47 0.2 -0.22 0.09 -0.35 0.14 -0.35 0.14 -0.22 0.09 -0.48 0.19 -0.53 0.2 -0.14 0.05 -0.04 0.02 -0.54 0.2 -0.17 0.06 -0.41 0.15 -0.3 0.11 -0.28 0.1 -0.44 0.15 -0.15 0.05 -0.57 0.2 -0.02 0.01 -0.6 0.2 -0.12 0.04 -0.48 0.16 -0.26 0.08 -0.35 0.11 -0.39 0.12 -0.21 0.07 -0.53 0.16 -0.08 0.02 -0.61 0.18 -0.06 0.02 -0.55 0.16 -0.2 0.06 -0.42 0.12 -0.34 0.09 -0.28 0.08 -0.49 0.13 -0.14 0.03 -0.62 0.16 -0 0 -0.63 0.16 -0.15 0.03 -0.49 0.12 -0.29 0.07 -0.35 0.08 -0.43 0.1 -0.2 0.05 -0.58 0.13 -0.06 0.01 -0.64 0.14 -0.09 0.02 -0.56 0.12 -0.23 0.05 -0.42 0.09 -0.38 0.08 -0.27 0.05 -0.53 0.1 -0.13 0.03 -0.66 0.12 -0.02 0.01 -0.63 0.11 -0.17 0.03 -0.49 0.08 -0.32 0.05 -0.34 0.05 -0.47 0.08 -0.19 0.03 -0.62 0.09 -0.04 0.01 -0.67 0.1 -0.11 0.01 -0.56 0.08 -0.26 0.03 -0.41 0.05 -0.42 0.05 -0.26 0.03 -0.57 0.07 -0.11 0.01 -0.68 0.07 -0.05 0 -0.64 0.07 -0.2 0.02 -0.48 0.05 -0.36 0.03 -0.33 0.03 -0.51 0.04 -0.18 0.02 -0.67 0.05 -0.02 0 -0.69 0.05 -0.14 0.01 -0.56 0.03 -0.29 0.02 -0.4 0.02 -0.45 0.03 -0.25 0.01 -0.61 0.03 -0.09 0 -0.7 0.03 -0.07 0 -0.63 0.02 -0.23 0.01 -0.48 0.01 -0.38 0.01 -0.32 0 -0.55 0.01 -0.16 0 -0.71 0 -0.71 -0 -0.16 0 -0.55 -0.01 -0.32 -0 -0.38 -0.01 -0.48 -0.01 -0.23 -0.01 -0.63 -0.02 -0.07 0 -0.7 -0.03 -0.09 -0 -0.61 -0.03 -0.25 -0.01 -0.45 -0.03 -0.4 -0.02 -0.29 -0.02 -0.56 -0.03 -0.14 -0.01 -0.69 -0.05 -0.02 0 -0.67 -0.05 -0.18 -0.02 -0.51 -0.04 -0.33 -0.03 -0.35 -0.03 -0.49 -0.05 -0.2 -0.02 -0.64 -0.07 -0.04 -0 -0.68 -0.07 -0.11 -0.01 -0.57 -0.07 -0.26 -0.03 -0.41 -0.05 -0.41 -0.05 -0.26 -0.03 -0.56 -0.08 -0.11 -0.01 -0.67 -0.1 -0.04 -0.01 -0.62 -0.09 -0.2 -0.03 -0.47 -0.08 -0.34 -0.05 -0.32 -0.05 -0.49 -0.08 -0.17 -0.03 -0.64 -0.11 -0.02 -0.01 -0.66 -0.12 -0.13 -0.03 -0.53 -0.1 -0.27 -0.05 -0.38 -0.08 -0.42 -0.09 -0.23 -0.05 -0.56 -0.12 -0.08 -0.02 -0.64 -0.14 -0.06 -0.01 -0.58 -0.13 -0.21 -0.05 -0.43 -0.1 -0.35 -0.08 -0.29 -0.07 -0.49 -0.12 -0.14 -0.03 -0.63 -0.16 -0.63 -0.16 -0.14 -0.03 -0.48 -0.13 -0.28 -0.08 -0.34 -0.09 -0.42 -0.12 -0.2 -0.06 -0.55 -0.16 -0.06 -0.02 -0.61 -0.18 -0.08 -0.02 -0.53 -0.16 -0.21 -0.07 -0.39 -0.12 -0.35 -0.11 -0.25 -0.08 -0.49 -0.16 -0.11 -0.04 -0.6 -0.2 -0.02 -0.01 -0.57 -0.2 -0.15 -0.05 -0.44 -0.15 -0.28 -0.1 -0.3 -0.11 -0.41 -0.15 -0.17 -0.06 -0.54 -0.2 -0.04 -0.02 -0.58 -0.22 -0.09 -0.04 -0.48 -0.19 -0.22 -0.09 -0.35 -0.14 -0.35 -0.14 -0.22 -0.09 -0.47 -0.2 -0.09 -0.04 -0.56 -0.24 -0.03 -0.02 -0.52 -0.22 -0.16 -0.07 -0.39 -0.17 -0.28 -0.13 -0.26 -0.12 -0.4 -0.18 -0.14 -0.07zm-212.15 -153.53l-0.14 0.07 -0.4 0.18 -0.26 0.12 -0.28 0.13 -0.39 0.17 -0.16 0.07 -0.52 0.22 -0.03 0.02 -0.56 0.24 -0.09 0.04 -0.47 0.2 -0.22 0.09 -0.35 0.14 -0.35 0.14 -0.22 0.09 -0.48 0.19 -0.53 0.2 -0.14 0.05 -0.04 0.02 -0.54 0.2 -0.17 0.06 -0.41 0.15 -0.3 0.11 -0.28 0.1 -0.44 0.15 -0.15 0.05 -0.57 0.2 -0.02 0.01 -0.6 0.2 -0.12 0.04 -0.48 0.16 -0.26 0.08 -0.35 0.11 -0.39 0.12 -0.21 0.07 -0.53 0.16 -0.08 0.02 -0.61 0.18 -0.06 0.02 -0.55 0.16 -0.2 0.06 -0.42 0.12 -0.34 0.09 -0.28 0.08 -0.49 0.13 -0.14 0.03 -0.62 0.16 -0 0 -0.63 0.16 -0.15 0.03 -0.49 0.12 -0.29 0.07 -0.35 0.08 -0.43 0.1 -0.2 0.05 -0.58 0.13 -0.06 0.01 -0.64 0.14 -0.09 0.02 -0.56 0.12 -0.23 0.05 -0.42 0.09 -0.38 0.08 -0.27 0.05 -0.53 0.1 -0.13 0.03 -0.66 0.12 -0.02 0.01 -0.63 0.11 -0.17 0.03 -0.49 0.08 -0.32 0.05 -0.34 0.05 -0.47 0.08 -0.19 0.03 -0.62 0.09 -0.04 0.01 -0.67 0.1 -0.11 0.01 -0.56 0.08 -0.26 0.03 -0.41 0.05 -0.42 0.05 -0.26 0.03 -0.57 0.07 -0.11 0.01 -0.68 0.07 -0.05 0 -0.64 0.07 -0.2 0.02 -0.48 0.05 -0.36 0.03 -0.33 0.03 -0.51 0.04 -0.18 0.02 -0.67 0.05 -0.02 0 -0.69 0.05 -0.14 0.01 -0.56 0.03 -0.29 0.02 -0.4 0.02 -0.45 0.03 -0.25 0.01 -0.61 0.03 -0.09 0 -0.7 0.03 -0.07 0 -0.63 0.02 -0.23 0.01 -0.48 0.01 -0.38 0.01 -0.32 0 -0.55 0.01 -0.16 0 -0.71 0 -0.71 -0 -0.16 0 -0.55 -0.01 -0.32 -0 -0.38 -0.01 -0.48 -0.01 -0.23 -0.01 -0.63 -0.02 -0.07 0 -0.7 -0.03 -0.09 -0 -0.61 -0.03 -0.25 -0.01 -0.45 -0.03 -0.4 -0.02 -0.29 -0.02 -0.56 -0.03 -0.14 -0.01 -0.69 -0.05 -0.02 0 -0.67 -0.05 -0.18 -0.02 -0.51 -0.04 -0.33 -0.03 -0.35 -0.03 -0.49 -0.05 -0.2 -0.02 -0.64 -0.07 -0.04 -0 -0.68 -0.07 -0.11 -0.01 -0.57 -0.07 -0.26 -0.03 -0.41 -0.05 -0.41 -0.05 -0.26 -0.03 -0.56 -0.08 -0.11 -0.01 -0.67 -0.1 -0.04 -0.01 -0.62 -0.09 -0.2 -0.03 -0.47 -0.08 -0.34 -0.05 -0.32 -0.05 -0.49 -0.08 -0.17 -0.03 -0.64 -0.11 -0.02 -0.01 -0.66 -0.12 -0.13 -0.03 -0.53 -0.1 -0.27 -0.05 -0.38 -0.08 -0.42 -0.09 -0.23 -0.05 -0.56 -0.12 -0.08 -0.02 -0.64 -0.14 -0.06 -0.01 -0.58 -0.13 -0.21 -0.05 -0.43 -0.1 -0.35 -0.08 -0.29 -0.07 -0.49 -0.12 -0.14 -0.03 -0.63 -0.16 -0.63 -0.16 -0.14 -0.03 -0.48 -0.13 -0.28 -0.08 -0.34 -0.09 -0.42 -0.12 -0.2 -0.06 -0.55 -0.16 -0.06 -0.02 -0.61 -0.18 -0.08 -0.02 -0.53 -0.16 -0.21 -0.07 -0.39 -0.12 -0.35 -0.11 -0.25 -0.08 -0.49 -0.16 -0.11 -0.04 -0.6 -0.2 -0.02 -0.01 -0.57 -0.2 -0.15 -0.05 -0.44 -0.15 -0.28 -0.1 -0.3 -0.11 -0.41 -0.15 -0.17 -0.06 -0.54 -0.2 -0.04 -0.02 -0.58 -0.22 -0.09 -0.04 -0.48 -0.19 -0.22 -0.09 -0.35 -0.14 -0.35 -0.14 -0.22 -0.09 -0.47 -0.2 -0.09 -0.04 -0.56 -0.24 -0.03 -0.02 -0.52 -0.22 -0.16 -0.07 -0.39 -0.17 -0.28 -0.13 -0.26 -0.12 -0.4 -0.18 -0.14 -0.07 0 441.47c0,3.17 3,5.98 7.14,8.3 9.92,5.56 24.31,7.62 33.65,7.62 9.34,0 23.73,-2.07 33.65,-7.62 4.14,-2.32 7.14,-5.14 7.14,-8.3l0 -441.47zm578.45 231.8c-7.88,-4.82 -19.1,-7.81 -31.79,-7.81 -12.69,0 -23.92,2.99 -31.79,7.81 -5.55,3.41 -8.99,7.37 -8.99,11.09 0,3.72 3.44,7.69 8.99,11.09 7.87,4.83 19.1,7.82 31.79,7.82 12.69,0 23.92,-2.99 31.79,-7.82 5.55,-3.4 8.99,-7.37 8.99,-11.09 0,-3.71 -3.44,-7.68 -8.99,-11.09zm-293.72 -131.25c-7.88,-4.82 -19.1,-7.81 -31.79,-7.81 -12.69,0 -23.92,2.99 -31.79,7.81 -5.55,3.41 -8.99,7.37 -8.99,11.09 0,3.72 3.44,7.69 8.99,11.09 7.87,4.83 19.1,7.82 31.79,7.82 12.69,0 23.92,-2.99 31.79,-7.82 5.55,-3.4 8.99,-7.37 8.99,-11.09 0,-3.71 -3.44,-7.68 -8.99,-11.09zm-293.72 -153.53c-7.88,-4.82 -19.1,-7.81 -31.79,-7.81 -12.69,0 -23.92,2.99 -31.79,7.81 -5.55,3.41 -8.99,7.37 -8.99,11.09 0,3.72 3.44,7.69 8.99,11.09 7.87,4.83 19.1,7.82 31.79,7.82 12.69,0 23.92,-2.99 31.79,-7.82 5.55,-3.4 8.99,-7.37 8.99,-11.09 0,-3.71 -3.44,-7.68 -8.99,-11.09zm-63.3 817.08c17.54,-11.93 58.37,-32.84 107.95,-12.63 48.72,19.84 100.01,-20.31 100.16,-20.43 6.87,-5.34 16.77,-4.1 22.11,2.77 5.34,6.87 4.1,16.77 -2.77,22.11 -0.19,0.15 -65.71,51.46 -131.32,24.74 -26.27,-10.7 -49.04,-5.52 -64.27,1.37l506.99 285.19 0 -195.18 -705.34 -390.74 0 43.76c3.26,1.14 33.12,12.25 51.35,41.93 4.52,7.41 2.18,17.1 -5.23,21.62 -7.41,4.52 -17.1,2.18 -21.62,-5.23 -7.38,-12.01 -17.23,-19.49 -24.5,-23.75l0 110.82 166.5 93.66zm671.07 184.69c-2.65,-8.26 1.9,-17.11 10.16,-19.77 8.26,-2.65 17.11,1.9 19.77,10.16 0.02,0.06 6.25,19.8 25.66,33.31l87.54 -52.56 0 -133.87c-6.79,4.46 -14.95,11.43 -21.3,21.76 -4.52,7.41 -14.2,9.76 -21.62,5.23 -7.41,-4.52 -9.76,-14.2 -5.23,-21.62 15.45,-25.16 39.27,-36.98 48.15,-40.69l0 -19.73 -218.55 126.23 -25.27 14.6 0 194.49 127.7 -76.68c-20.02,-18.74 -26.98,-40.8 -27,-40.87zm-46.58 -1.5c-10.1,0 -18.29,8.19 -18.29,18.29 0,10.1 8.19,18.29 18.29,18.29 10.1,0 18.29,-8.19 18.29,-18.29 0,-10.1 -8.19,-18.29 -18.29,-18.29zm-155.8 -34.76c10.1,0 18.29,8.19 18.29,18.29 0,10.1 -8.19,18.29 -18.29,18.29 -10.1,0 -18.29,-8.19 -18.29,-18.29 0,-10.1 8.19,-18.29 18.29,-18.29zm271.05 -73.17c-10.1,0 -18.29,8.19 -18.29,18.29 0,10.1 8.19,18.29 18.29,18.29 10.1,0 18.29,-8.19 18.29,-18.29 0,-10.1 -8.19,-18.29 -18.29,-18.29zm-359.77 51.22c10.1,0 18.29,8.19 18.29,18.29 0,10.1 -8.19,18.29 -18.29,18.29 -10.1,0 -18.29,-8.19 -18.29,-18.29 0,-10.1 8.19,-18.29 18.29,-18.29zm-124.7 -112.51c10.1,0 18.29,8.19 18.29,18.29 0,10.1 -8.19,18.29 -18.29,18.29 -10.1,0 -18.29,-8.19 -18.29,-18.29 0,-10.1 8.19,-18.29 18.29,-18.29zm-156.06 -126.99c10.1,0 18.29,8.19 18.29,18.29 0,10.1 -8.19,18.29 -18.29,18.29 -10.1,0 -18.29,-8.19 -18.29,-18.29 0,-10.1 8.19,-18.29 18.29,-18.29zm-107.98 22.72c10.1,0 18.29,8.19 18.29,18.29 0,10.1 -8.19,18.29 -18.29,18.29 -10.1,0 -18.29,-8.19 -18.29,-18.29 0,-10.1 8.19,-18.29 18.29,-18.29zm-62.81 -84.45c10.1,0 18.29,8.19 18.29,18.29 0,10.1 -8.19,18.29 -18.29,18.29 -10.1,0 -18.29,-8.19 -18.29,-18.29 0,-10.1 8.19,-18.29 18.29,-18.29z"/>
 </g>
</svg>
