<?xml version="1.0" encoding="UTF-8"?>
<!DOCTYPE svg PUBLIC "-//W3C//DTD SVG 1.1//EN" "http://www.w3.org/Graphics/SVG/1.1/DTD/svg11.dtd">
<!-- Creator: CorelDRAW 2021 (64-Bit Not for commercial use) -->
<svg xmlns="http://www.w3.org/2000/svg" xml:space="preserve" width="34.9083mm" height="39.9819mm" version="1.1" style="shape-rendering:geometricPrecision; text-rendering:geometricPrecision; image-rendering:optimizeQuality; fill-rule:evenodd; clip-rule:evenodd"
viewBox="0 0 636.03 728.47"
 xmlns:xlink="http://www.w3.org/1999/xlink"
 xmlns:xodm="http://www.corel.com/coreldraw/odm/2003">
 <defs>
  <style type="text/css">
   <![CDATA[
    .fil0 {fill:#F1CE4E;fill-rule:nonzero}
   ]]>
  </style>
 </defs>
 <g id="Layer_x0020_1">
  <metadata id="CorelCorpID_0Corel-Layer"/>
  <path class="fil0" d="M466.22 641.69l-448 -248.47 0 58.63 448 251.97 0 -62.12zm-151.97 -186.86c14.19,-10.12 55.42,-36.3 79.55,-17.99 16.55,12.56 29.16,-4.06 29.2,-4.1 3.08,-3.95 8.79,-4.65 12.74,-1.57 3.95,3.08 4.65,8.79 1.57,12.74 -0.07,0.09 -23.45,30.91 -54.47,7.38 -12.35,-9.37 -36.7,3.95 -51.01,13.43l207.11 116.48 0 -33.88 -84.59 -48.06 -0.01 -0.01 -0.06 -0.03 -0.07 -0.04 -0.06 -0.03 -0.01 -0 -0.07 -0.04 -0.07 -0.04 -0.05 -0.03 -0.02 -0.01 -0.07 -0.04 -0.07 -0.04 -0.03 -0.02 -0.04 -0.02 -0.07 -0.04 -0.07 -0.04 -0.02 -0.01 -0.05 -0.03 -0.07 -0.04 -0.07 -0.04 -0 -0 -0.06 -0.04 -0.07 -0.05 -0.05 -0.04 -0.01 -0.01 -0.07 -0.05 -0.07 -0.05 -0.04 -0.03 -0.03 -0.02 -0.07 -0.05 -0.06 -0.05 -0.02 -0.02 -0.04 -0.03 -0.06 -0.05 -0.06 -0.05 -0.01 -0.01 -0.05 -0.04 -0.06 -0.05 -0.06 -0.05 -0.01 -0 -0.06 -0.05 -0.06 -0.05 -0.04 -0.04 -0.02 -0.02 -0.06 -0.05 -0.06 -0.05 -0.03 -0.03 -0.03 -0.03 -0.06 -0.06 -0.06 -0.06 -0.01 -0.01 -0.04 -0.04 -0.06 -0.06 -0.06 -0.06 -0 0 -0.05 -0.06 -0.05 -0.06 -0.05 -0.05 -0.01 -0.01 -0.05 -0.06 -0.05 -0.06 -0.03 -0.03 -0.02 -0.03 -0.05 -0.06 -0.05 -0.06 -0.02 -0.02 -0.03 -0.04 -0.05 -0.06 -0.05 -0.07 -0.01 -0.01 -0.05 -0.06 -0.09 -0.13 -0.01 -0.01 -0.05 -0.07 -0.05 -0.07 -0.03 -0.05 -0.02 -0.02 -0.05 -0.07 -0.05 -0.07 -0.02 -0.03 -0.03 -0.04 -0.05 -0.07 -0.05 -0.07 -0.01 -0.01 -0.03 -0.06 -0.05 -0.07 -0.04 -0.07 -0.05 -0.08 -0.05 -0.08 -0.03 -0.05 -0.02 -0.03 -0.04 -0.08 -0.04 -0.08 -0.01 -0.01 -0.03 -0.07 -0.04 -0.08 -0.03 -0.06 -0.01 -0.02 -0.04 -0.08 -0.04 -0.08 -0.01 -0.03 -0.03 -0.05 -0.04 -0.08 -0.03 -0.07 -0 -0.01 -0.03 -0.08 -0.03 -0.08 -0.02 -0.04 -0.02 -0.04 -0.03 -0.08 -0.03 -0.08 -0 -0.01 -0.03 -0.07 -0.03 -0.08 -0.02 -0.06 -0.01 -0.03 -0.03 -0.08 -0.03 -0.08 -0.01 -0.02 -0.02 -0.06 -0.03 -0.08 -0.02 -0.07 -0 -0.01 -0.05 -0.17 -0.01 -0.04 -0.01 -0.05 -0.02 -0.08 -0.02 -0.08 0 -0 -0.02 -0.08 -0.02 -0.08 -0.01 -0.05 -0.01 -0.03 -0.02 -0.09 -0.02 -0.08 -0 -0.02 -0.01 -0.07 -0.02 -0.09 -0.01 -0.07 -0 -0.02 -0.01 -0.09 -0.01 -0.08 -0.01 -0.03 -0.01 -0.05 -0.01 -0.08 -0.01 -0.08 0 -0 -0.01 -0.08 -0.01 -0.09 -0.01 -0.05 -0 -0.04 -0.01 -0.08 -0.01 -0.09 0 -0.01 -0.01 -0.07 -0.01 -0.15 -0 -0.02 -0 -0.09 -0 -0.08 0 -0.03 -0 -0.06 0 -0.08 0 -0.08 0 -0.01 0 -0.08 0 -0.09 0 -0.04 0 -0.04 0 -0.09 0 -0.08 0 -0.01 0.01 -0.08 0.01 -0.08 0 -0 -0.37 -70.96 -114.71 -61.12 -0.08 -0.03 -0.07 -0.03 -0.01 -0 -0.08 -0.04 -0.07 -0.04 -0.04 -0.02 -0.04 -0.02 -0.08 -0.04 -0.07 -0.04 -0 -0 -0.07 -0.04 -0.07 -0.04 -0.05 -0.03 -0.03 -0.01 -0.07 -0.04 -0.07 -0.04 -0.02 -0.01 -0.06 -0.03 -0.07 -0.04 -0.06 -0.04 -0.01 -0.01 -0.07 -0.05 -0.07 -0.05 -0.03 -0.02 -0.04 -0.03 -0.07 -0.05 -0.07 -0.05 -0 0 -0.07 -0.05 -0.07 -0.05 -0.04 -0.03 -0.03 -0.02 -0.07 -0.05 -0.07 -0.05 -0.01 -0.01 -0.06 -0.04 -0.07 -0.05 -0.05 -0.04 -0.02 -0.01 -0.07 -0.05 -0.07 -0.05 -0.02 -0.02 -0.04 -0.04 -0.07 -0.06 -0.06 -0.05 -0 -0 -0.07 -0.06 -0.06 -0.06 -0.03 -0.03 -0.03 -0.03 -0.06 -0.06 -0.06 -0.06 -0.01 -0.01 -0.05 -0.05 -0.06 -0.06 -0.04 -0.04 -0.02 -0.02 -0.06 -0.06 -0.06 -0.06 -0.02 -0.02 -0.04 -0.05 -0.06 -0.07 -0.05 -0.06 -0.01 -0.01 -0.06 -0.07 -0.06 -0.07 -0.03 -0.03 -0.03 -0.04 -0.05 -0.07 -0.06 -0.07 -0 -0 -0.11 -0.14 -0.03 -0.05 -0.02 -0.03 -0.05 -0.07 -0.05 -0.07 -0.01 -0.02 -0.04 -0.06 -0.05 -0.07 -0.04 -0.06 -0.01 -0.01 -0.05 -0.08 -0.05 -0.07 -0.02 -0.03 -0.03 -0.05 -0.05 -0.08 -0.05 -0.08 -0.05 -0.08 -0.05 -0.08 -0.03 -0.05 -0.02 -0.03 -0.04 -0.08 -0.04 -0.08 -0.01 -0.01 -0.03 -0.07 -0.04 -0.08 -0.03 -0.06 -0.01 -0.02 -0.04 -0.08 -0.04 -0.08 -0.01 -0.03 -0.03 -0.05 -0.04 -0.08 -0.03 -0.07 -0 -0.01 -0.03 -0.08 -0.03 -0.08 -0.02 -0.04 -0.02 -0.04 -0.03 -0.08 -0.03 -0.08 -0 -0.01 -0.03 -0.07 -0.03 -0.08 -0.02 -0.06 -0.01 -0.03 -0.03 -0.08 -0.03 -0.08 -0.01 -0.02 -0.02 -0.06 -0.03 -0.08 -0.02 -0.07 -0 -0.01 -0.05 -0.17 -0.01 -0.04 -0.01 -0.05 -0.02 -0.08 -0.02 -0.08 0 -0 -0.02 -0.08 -0.02 -0.08 -0.01 -0.05 -0.01 -0.03 -0.02 -0.09 -0.02 -0.08 -0 -0.02 -0.01 -0.07 -0.02 -0.09 -0.01 -0.07 -0 -0.02 -0.01 -0.09 -0.01 -0.08 -0.01 -0.03 -0.01 -0.05 -0.01 -0.08 -0.01 -0.08 0 -0 -0.01 -0.08 -0.01 -0.09 -0.01 -0.05 -0 -0.04 -0.01 -0.08 -0.01 -0.09 0 -0.01 -0.01 -0.07 -0.01 -0.15 -0 -0.02 -0 -0.09 -0 -0.08 0 -0.03 -0 -0.06 0 -0.08 0 -0.08 0 -0.01 0 -0.08 0 -0.09 0 -0.04 0 -0.04 0 -0.09 0 -0.08 0 -0.01 0.01 -0.08 0.01 -0.08 0 -0 -0.37 -70.96 -114.71 -61.12 -0.08 -0.03 -0.07 -0.03 -0.01 -0 -0.08 -0.04 -0.07 -0.04 -0.04 -0.02 -0.04 -0.02 -0.08 -0.04 -0.07 -0.04 -0 -0 -0.07 -0.04 -0.07 -0.04 -0.05 -0.03 -0.03 -0.01 -0.07 -0.04 -0.07 -0.04 -0.02 -0.01 -0.06 -0.03 -0.07 -0.04 -0.06 -0.04 -0.01 -0.01 -0.07 -0.05 -0.07 -0.05 -0.03 -0.02 -0.04 -0.03 -0.07 -0.05 -0.07 -0.05 -0 0 -0.07 -0.05 -0.07 -0.05 -0.04 -0.03 -0.03 -0.02 -0.07 -0.05 -0.07 -0.05 -0.01 -0.01 -0.06 -0.04 -0.07 -0.05 -0.05 -0.04 -0.02 -0.01 -0.07 -0.05 -0.07 -0.05 -0.02 -0.02 -0.04 -0.04 -0.07 -0.06 -0.06 -0.05 -0 -0 -0.07 -0.06 -0.06 -0.06 -0.03 -0.03 -0.03 -0.03 -0.06 -0.06 -0.06 -0.06 -0.01 -0.01 -0.05 -0.05 -0.06 -0.06 -0.04 -0.04 -0.02 -0.02 -0.06 -0.06 -0.06 -0.06 -0.02 -0.02 -0.04 -0.05 -0.06 -0.07 -0.05 -0.06 -0.01 -0.01 -0.06 -0.07 -0.06 -0.07 -0.03 -0.03 -0.03 -0.04 -0.05 -0.07 -0.06 -0.07 -0 -0 -0.11 -0.14 -0.03 -0.05 -0.02 -0.03 -0.05 -0.07 -0.05 -0.07 -0.01 -0.02 -0.04 -0.06 -0.05 -0.07 -0.04 -0.06 -0.01 -0.01 -0.05 -0.08 -0.05 -0.07 -0.02 -0.03 -0.03 -0.05 -0.05 -0.08 -0.05 -0.08 -0.05 -0.08 -0.05 -0.08 -0.03 -0.05 -0.02 -0.03 -0.04 -0.08 -0.04 -0.08 -0.01 -0.01 -0.03 -0.07 -0.04 -0.08 -0.03 -0.06 -0.01 -0.02 -0.04 -0.08 -0.04 -0.08 -0.01 -0.03 -0.03 -0.05 -0.04 -0.08 -0.03 -0.07 -0 -0.01 -0.03 -0.08 -0.03 -0.08 -0.02 -0.04 -0.02 -0.04 -0.03 -0.08 -0.03 -0.08 -0 -0.01 -0.03 -0.07 -0.03 -0.08 -0.02 -0.06 -0.01 -0.03 -0.03 -0.08 -0.03 -0.08 -0.01 -0.02 -0.02 -0.06 -0.03 -0.08 -0.02 -0.07 -0 -0.01 -0.05 -0.17 -0.01 -0.04 -0.01 -0.05 -0.02 -0.08 -0.02 -0.08 0 -0 -0.02 -0.08 -0.02 -0.08 -0.01 -0.05 -0.01 -0.03 -0.02 -0.09 -0.02 -0.08 -0 -0.02 -0.01 -0.07 -0.02 -0.09 -0.01 -0.07 -0 -0.02 -0.01 -0.09 -0.01 -0.08 -0.01 -0.03 -0.01 -0.05 -0.01 -0.08 -0.01 -0.08 0 -0 -0.01 -0.08 -0.01 -0.09 -0.01 -0.05 -0 -0.04 -0.01 -0.08 -0.01 -0.09 0 -0.01 -0.01 -0.07 -0.01 -0.15 -0 -0.02 -0 -0.09 -0 -0.08 0 -0.03 -0 -0.06 0 -0.08 0 -0.08 0 -0.01 0 -0.08 0 -0.09 0 -0.04 0 -0.04 0 -0.09 0 -0.08 0 -0.01 0.01 -0.08 0.01 -0.08 0 -0 -0.38 -71.1 -114.77 -64.95 0 111.53c6.45,3.36 16.48,10.03 23.51,21.48 2.61,4.28 1.26,9.88 -3.02,12.49 -4.28,2.61 -9.88,1.26 -12.49,-3.02 -2.39,-3.89 -5.22,-6.95 -7.99,-9.33l0 124.98 147.23 82.81c-6.42,-16.74 -14.86,-38.57 -20.34,-52.06 -3.72,-9.15 -20.29,-20.27 -36.79,-31.33 -20.71,-13.89 -41.33,-27.72 -44.41,-43.83 -4.06,-21.25 -17.68,-35.59 -17.72,-35.63 -3.48,-3.61 -3.37,-9.37 0.25,-12.85 3.61,-3.48 9.37,-3.37 12.85,0.25 0.05,0.05 17.43,18.34 22.49,44.8 1.66,8.69 19.12,20.4 36.65,32.16 18.83,12.63 37.75,25.32 43.55,39.59 8.53,20.99 23.95,61.43 28.29,72.85l49 27.56zm-60.57 -13.2c-0.16,-0.08 -0.32,-0.17 -0.47,-0.27l-171.25 -96.32 -54.6 32.48 171.24 94.97 276.79 153.51 53.91 -29.36 -275.61 -155.01zm-178.69 -113.6l0 -271.25 0.01 0c0,-3.08 1.57,-6.09 4.4,-7.79l78.87 -47.69c2.73,-1.62 6.23,-1.79 9.18,-0.11l132.46 74.96 0.02 0.01 0.05 0.02 0.07 0.04 0.07 0.04 0.01 0 0.13 0.07 0.06 0.03 0.01 0.01 0.07 0.04 0.07 0.04 0.04 0.03 0.03 0.01 0.07 0.04 0.07 0.04 0.03 0.02 0.04 0.03 0.07 0.04 0.07 0.04 0.01 0.01 0.06 0.04 0.07 0.05 0.06 0.04 0 0 0.07 0.05 0.07 0.05 0.05 0.03 0.02 0.01 0.07 0.05 0.06 0.05 0.03 0.02 0.03 0.03 0.06 0.05 0.06 0.05 0.01 0.01 0.05 0.04 0.06 0.05 0.06 0.05 0 0 0.06 0.05 0.06 0.05 0.05 0.04 0.01 0.01 0.06 0.05 0.06 0.05 0.03 0.03 0.03 0.03 0.06 0.06 0.06 0.06 0.02 0.02 0.04 0.04 0.06 0.06 0.06 0.06 0.01 0 0.05 0.05 0.06 0.06 0.1 0.11 0.01 0.01 0.05 0.06 0.03 0.04 0.02 0.02 0.05 0.06 0.05 0.06 0.02 0.02 0.03 0.04 0.05 0.06 0.05 0.07 0.01 0.01 0.04 0.05 0.05 0.07 0.05 0.06 0 0.01 0.05 0.07 0.05 0.07 0.03 0.05 0.01 0.02 0.05 0.07 0.05 0.07 0.02 0.03 0.03 0.04 0.05 0.07 0.05 0.07 0.01 0.02 0.03 0.06 0.05 0.07 0.04 0.07 0.05 0.08 0.05 0.08 0.03 0.05 0.02 0.03 0.04 0.08 0.04 0.08 0.01 0.01 0.03 0.07 0.04 0.08 0.03 0.06 0.01 0.02 0.04 0.08 0.04 0.08 0.01 0.03 0.03 0.05 0.04 0.08 0.03 0.07 0 0.01 0.03 0.08 0.03 0.08 0.02 0.04 0.02 0.04 0.03 0.08 0.03 0.08 0 0.01 0.03 0.07 0.03 0.08 0.02 0.06 0.01 0.03 0.03 0.08 0.03 0.08 0.01 0.02 0.02 0.06 0.03 0.08 0.02 0.07 0 0.01 0.05 0.17 0.01 0.04 0.01 0.05 0.02 0.08 0.02 0.08 0 0 0.02 0.08 0.02 0.08 0.01 0.05 0.01 0.03 0.02 0.09 0.02 0.08 0 0.02 0.01 0.07 0.02 0.09 0.01 0.07 0 0.02 0.01 0.09 0.01 0.08 0.01 0.03 0.01 0.05 0.01 0.08 0.01 0.08 0 0 0.01 0.08 0.01 0.09 0.01 0.05 0 0.04 0.01 0.08 0.01 0.09 0 0.01 0.01 0.07 0.01 0.15 0 0.02 0 0.09 0 0.08 0 0.03 0 0.06 0 0.08 0 0.08 0 0.01 0 0.08 -0 0.09 -0 0.04 -0 0.04 -0 0.09 -0 0.08 0 0.01 -0.01 0.08 -0.01 0.08 0 0 0.37 70.96 114.71 61.12 0.08 0.03 0.07 0.03 0.01 0 0.08 0.04 0.07 0.04 0.04 0.02 0.04 0.02 0.08 0.04 0.07 0.04 0 0 0.07 0.04 0.07 0.04 0.05 0.03 0.03 0.01 0.07 0.04 0.07 0.04 0.02 0.01 0.06 0.03 0.07 0.04 0.06 0.04 0.01 0.01 0.07 0.05 0.07 0.05 0.03 0.02 0.04 0.03 0.07 0.05 0.07 0.05 0 0 0.07 0.05 0.07 0.05 0.04 0.03 0.03 0.02 0.07 0.05 0.07 0.05 0.01 0.01 0.06 0.04 0.07 0.05 0.05 0.04 0.02 0.01 0.07 0.05 0.07 0.05 0.02 0.02 0.04 0.04 0.07 0.05 0.06 0.05 0 0 0.07 0.06 0.06 0.06 0.03 0.03 0.03 0.03 0.06 0.06 0.06 0.06 0.01 0.01 0.05 0.05 0.06 0.06 0.04 0.04 0.02 0.02 0.06 0.06 0.06 0.06 0.02 0.02 0.04 0.05 0.06 0.07 0.05 0.06 0.01 0.01 0.06 0.07 0.06 0.07 0.03 0.03 0.03 0.04 0.05 0.07 0.06 0.07 0 0 0.11 0.14 0.03 0.05 0.02 0.03 0.05 0.07 0.05 0.07 0.01 0.02 0.04 0.06 0.05 0.07 0.04 0.06 0.01 0.01 0.05 0.08 0.05 0.07 0.02 0.03 0.03 0.05 0.05 0.08 0.05 0.08 0.05 0.08 0.05 0.08 0.03 0.05 0.02 0.03 0.04 0.08 0.04 0.08 0.01 0.01 0.03 0.07 0.04 0.08 0.03 0.06 0.01 0.02 0.04 0.08 0.04 0.08 0.01 0.03 0.03 0.05 0.04 0.08 0.03 0.07 0 0.01 0.03 0.08 0.03 0.08 0.02 0.04 0.02 0.04 0.03 0.08 0.03 0.08 0 0.01 0.03 0.07 0.03 0.08 0.02 0.06 0.01 0.03 0.03 0.08 0.03 0.08 0.01 0.02 0.02 0.06 0.03 0.08 0.02 0.07 0 0.01 0.05 0.17 0.01 0.04 0.01 0.05 0.02 0.08 0.02 0.08 0 0 0.02 0.08 0.02 0.08 0.01 0.05 0.01 0.03 0.02 0.09 0.02 0.08 0 0.02 0.01 0.07 0.02 0.09 0.01 0.07 0 0.02 0.01 0.09 0.01 0.08 0.01 0.03 0.01 0.05 0.01 0.08 0.01 0.08 0 0 0.01 0.08 0.01 0.09 0.01 0.05 0 0.04 0.01 0.08 0.01 0.09 0 0.01 0.01 0.07 0.01 0.15 0 0.02 0 0.09 0 0.08 0 0.03 0 0.06 0 0.08 0 0.08 0 0.01 0 0.08 -0 0.09 -0 0.04 -0 0.04 -0 0.09 -0 0.08 0 0.01 -0.01 0.08 -0.01 0.08 0 0 0.37 70.96 114.71 61.12 0.08 0.03 0.07 0.03 0.01 0 0.08 0.04 0.07 0.04 0.04 0.02 0.04 0.02 0.08 0.04 0.07 0.04 0 0 0.07 0.04 0.07 0.04 0.05 0.03 0.03 0.01 0.07 0.04 0.07 0.04 0.02 0.01 0.06 0.03 0.07 0.04 0.06 0.04 0.01 0.01 0.07 0.05 0.07 0.05 0.03 0.02 0.04 0.03 0.07 0.05 0.07 0.05 0 0 0.07 0.05 0.07 0.05 0.04 0.03 0.03 0.02 0.07 0.05 0.07 0.05 0.01 0.01 0.06 0.04 0.07 0.05 0.05 0.04 0.02 0.01 0.07 0.05 0.07 0.05 0.02 0.02 0.04 0.04 0.07 0.05 0.06 0.05 0 0 0.07 0.06 0.06 0.06 0.03 0.03 0.03 0.03 0.06 0.06 0.06 0.06 0.01 0.01 0.05 0.05 0.06 0.06 0.04 0.04 0.02 0.02 0.06 0.06 0.06 0.06 0.02 0.02 0.04 0.05 0.06 0.07 0.05 0.06 0.01 0.01 0.06 0.07 0.06 0.07 0.03 0.03 0.03 0.04 0.05 0.07 0.06 0.07 0 0 0.11 0.14 0.03 0.05 0.02 0.03 0.05 0.07 0.05 0.07 0.01 0.02 0.04 0.06 0.05 0.07 0.04 0.06 0.01 0.01 0.05 0.08 0.05 0.07 0.02 0.03 0.03 0.05 0.05 0.08 0.05 0.08 0.05 0.08 0.05 0.08 0.03 0.05 0.02 0.03 0.04 0.08 0.04 0.08 0.01 0.01 0.03 0.07 0.04 0.08 0.03 0.06 0.01 0.02 0.04 0.08 0.04 0.08 0.01 0.03 0.03 0.05 0.04 0.08 0.03 0.07 0 0.01 0.03 0.08 0.03 0.08 0.02 0.04 0.02 0.04 0.03 0.08 0.03 0.08 0 0.01 0.03 0.07 0.03 0.08 0.02 0.06 0.01 0.03 0.03 0.08 0.03 0.08 0.01 0.02 0.02 0.06 0.03 0.08 0.02 0.07 0 0.01 0.05 0.17 0.01 0.04 0.01 0.05 0.02 0.08 0.02 0.08 0 0 0.02 0.08 0.02 0.08 0.01 0.05 0.01 0.03 0.02 0.09 0.02 0.08 0 0.02 0.01 0.07 0.02 0.09 0.01 0.07 0 0.02 0.01 0.09 0.01 0.08 0.01 0.03 0.01 0.05 0.01 0.08 0.01 0.08 0 0 0.01 0.08 0.01 0.09 0.01 0.05 0 0.04 0.01 0.08 0.01 0.09 0 0.01 0.01 0.07 0.01 0.15 0 0.02 0 0.09 0 0.08 0 0.03 0 0.06 0 0.08 0 0.08 0 0.01 0 0.08 -0 0.09 -0 0.04 -0 0.04 -0 0.09 -0 0.08 0 0.01 -0.01 0.08 -0.01 0.08 0 0 0.38 71.11 84.66 48.1 0.01 0.01 0.06 0.03 0.07 0.04 0.06 0.03 0.01 0 0.07 0.04 0.07 0.04 0.05 0.03 0.02 0.01 0.07 0.04 0.07 0.04 0.03 0.02 0.04 0.02 0.07 0.04 0.07 0.04 0.02 0.01 0.05 0.03 0.07 0.04 0.07 0.04 0 0 0.06 0.04 0.07 0.05 0.05 0.04 0.01 0.01 0.07 0.05 0.07 0.05 0.04 0.03 0.03 0.02 0.07 0.05 0.06 0.05 0.02 0.02 0.04 0.03 0.06 0.05 0.06 0.05 0.01 0.01 0.05 0.04 0.06 0.05 0.06 0.05 0.01 0 0.06 0.05 0.06 0.05 0.04 0.04 0.02 0.02 0.06 0.05 0.06 0.05 0.03 0.03 0.03 0.03 0.06 0.06 0.06 0.06 0.01 0.01 0.04 0.04 0.06 0.06 0.06 0.06 0 0 0.05 0.06 0.05 0.06 0.05 0.05 0.01 0.01 0.05 0.06 0.05 0.06 0.03 0.03 0.02 0.03 0.05 0.06 0.05 0.06 0.02 0.02 0.03 0.04 0.05 0.06 0.05 0.07 0.01 0.01 0.05 0.06 0.09 0.13 0.01 0.01 0.05 0.07 0.05 0.07 0.03 0.05 0.02 0.02 0.05 0.07 0.05 0.07 0.02 0.03 0.03 0.04 0.05 0.07 0.05 0.07 0.01 0.01 0.03 0.06 0.05 0.07 0.04 0.07 0.04 0.07 0.04 0.07 0.04 0.06 0 0.01 0.04 0.07 0.04 0.07 0.03 0.06 0.01 0.01 0.04 0.07 0.04 0.07 0.03 0.05 0.01 0.02 0.01 0.01 0.09 0.18 0.01 0.02 0.03 0.07 0.03 0.07 0.02 0.04 0.01 0.03 0.03 0.07 0.03 0.07 0.02 0.04 0.01 0.03 0.03 0.07 0.03 0.07 0.01 0.03 0.02 0.04 0.03 0.07 0.03 0.07 0.01 0.03 0.02 0.05 0.03 0.07 0.02 0.07 0.01 0.02 0.02 0.05 0.02 0.07 0.02 0.07 0 0.02 0.04 0.13 0.02 0.07 0 0.01 0.02 0.06 0.02 0.07 0.02 0.07 0 0.01 0.02 0.07 0.02 0.07 0.02 0.07 0.02 0.07 0.01 0.07 0.01 0.07 0 0.01 0.01 0.07 0.01 0.07 0.01 0.06 0 0.01 0.01 0.07 0.01 0.08 0.01 0.06 0 0.02 0.01 0.07 0.01 0.07 0.01 0.05 0 0.02 0.01 0.08 0.01 0.07 0.01 0.05 0 0.03 0.01 0.07 0.01 0.08 0 0.04 0 0.03 0.01 0.07 0 0.08 0 0.03 0 0.04 0 0.07 0 0.07 0 0.03 0 0.05 0 0.07 0 0.07 0 0.02 0.01 131.64c0,3.57 -2.05,6.66 -5.04,8.15l-150.36 92.6c-2.78,1.99 -6.57,2.32 -9.75,0.54l-465.78 -261.96c-3.02,-1.48 -5.11,-4.59 -5.11,-8.18l0 -79.37 0.03 0 0 -0.07 0 -0.14 0 -0.07 0 -0.04 0 -0.03 0 -0.07 0 -0.07 0 -0.05 0 -0.02 0.01 -0.07 0 -0.07 0.01 -0.14 0.01 -0.07 0.01 -0.07 0 -0.01 0.01 -0.07 0.01 -0.07 0.02 -0.14 0.01 -0.07 0.01 -0.07 0 -0.01 0.01 -0.06 0.01 -0.07 0.01 -0.07 0.01 -0.07 0.01 -0.07 0.01 -0.07 0.01 -0.03 0.01 -0.04 0.01 -0.07 0.02 -0.07 0.02 -0.07 0.02 -0.07 0.02 -0.07 0.01 -0.05 0.01 -0.02 0.02 -0.07 0.02 -0.07 0.02 -0.06 0 -0.01 0.02 -0.07 0.02 -0.07 0.02 -0.07 0 -0 0.02 -0.07 0.02 -0.07 0.02 -0.07 0 -0.01 0.02 -0.06 0.02 -0.07 0.03 -0.07 0 -0.01 0.02 -0.05 0.03 -0.07 0.03 -0.07 0.01 -0.02 0.02 -0.04 0.03 -0.07 0.03 -0.07 0.01 -0.03 0.01 -0.04 0.03 -0.07 0.03 -0.07 0.02 -0.04 0.01 -0.03 0.03 -0.07 0.03 -0.07 0.02 -0.05 0.01 -0.02 0.03 -0.07 0.03 -0.07 0.03 -0.06 0 -0.01 0.04 -0.07 0.03 -0.07 0.04 -0.07 0.04 -0.07 0.04 -0.07 0.04 -0.07 0.04 -0.07 0.04 -0.07 0.04 -0.07 0.04 -0.07 0.04 -0.07 0.04 -0.06 0.04 -0.07 0.04 -0.06 0.04 -0.06 0.05 -0.06 0.04 -0.06 0.04 -0.06 0 -0 0.05 -0.06 0.05 -0.06 0.05 -0.06 0 -0 0.05 -0.06 0.09 -0.12 0 -0 0.05 -0.06 0.05 -0.06 0.05 -0.05 0 -0 0.05 -0.06 0.05 -0.06 0.05 -0.05 0 -0 0.05 -0.05 0.05 -0.05 0.05 -0.05 0 -0 0.05 -0.05 0.1 -0.1 0 -0 0.11 -0.1 0.05 -0.05 0 -0 0.05 -0.05 0.05 -0.05 0.05 -0.05 0 -0 0.05 -0.05 0.06 -0.05 0.05 -0.05 0 -0 0.06 -0.05 0.06 -0.05 0.05 -0.05 0 -0 0.06 -0.05 0.06 -0.05 0.05 -0.04 0 -0 0.06 -0.05 0.06 -0.05 0.05 -0.04 0.01 -0 0.06 -0.04 0.06 -0.04 0.05 -0.04 0.01 -0 0.06 -0.04 0.06 -0.04 0.06 -0.04 0.01 -0 0.12 -0.08 0.06 -0.04 0.01 -0 0.06 -0.04 0.06 -0.04 0.06 -0.03 0.01 -0 0.06 -0.04 70.5 -41.94zm199.24 -142.68l-38.41 23.22 101.36 54.01 22.39 -13.53 38.41 -23.22 -101.36 -54.01 -22.39 13.53zm3.1 -79.17l-51.21 30.96 0.3 55.85 9.58 -5.79 51.21 -30.96 -0.3 -55.85 -9.58 5.79zm117.36 220.19l-38.41 23.22 101.36 54.01 22.39 -13.53 38.41 -23.22 -101.36 -54.01 -22.39 13.53zm3.1 -79.17l-51.21 30.96 0.3 55.85 9.58 -5.79 51.21 -30.96 -0.3 -55.85 -9.58 5.79zm120.47 141.02l-51.21 30.96 0.3 55.85 9.58 -5.79 51.21 -30.96 -0.3 -55.85 -9.58 5.79zm-301.41 -266.74l20.47 -12.38 40.57 -24.53 -114.76 -64.95 -61.04 36.91 114.76 64.95zm331.03 410.03l61.06 -36.92 -71.55 -40.65 -50.6 30.6 -10.46 6.32 71.55 40.65zm9.27 15.66l0 49.58 -0.01 0c0,1.51 -0.37,3.04 -1.16,4.45 -0.97,1.74 -2.43,3.03 -4.11,3.81l-67.43 36.73 0 61.37 133.37 -82.14 0 -110.47 -60.65 36.68zm-227.69 -163.59c5.84,0 10.57,4.73 10.57,10.57 0,5.84 -4.73,10.57 -10.57,10.57 -5.84,0 -10.57,-4.73 -10.57,-10.57 0,-5.84 4.73,-10.57 10.57,-10.57zm-52.52 -43.61c5.84,0 10.57,4.73 10.57,10.57 0,5.84 -4.73,10.57 -10.57,10.57 -5.84,0 -10.57,-4.73 -10.57,-10.57 0,-5.84 4.73,-10.57 10.57,-10.57zm11.72 -55.8c5.84,0 10.57,4.73 10.57,10.57 0,5.84 -4.73,10.57 -10.57,10.57 -5.84,0 -10.57,-4.73 -10.57,-10.57 0,-5.84 4.73,-10.57 10.57,-10.57zm-68.47 10.32c5.84,0 10.57,4.73 10.57,10.57 0,5.84 -4.73,10.57 -10.57,10.57 -5.84,0 -10.57,-4.73 -10.57,-10.57 0,-5.84 4.73,-10.57 10.57,-10.57zm-19.23 -71.75c5.84,0 10.57,4.73 10.57,10.57 0,5.84 -4.73,10.57 -10.57,10.57 -5.84,0 -10.57,-4.73 -10.57,-10.57 0,-5.84 4.73,-10.57 10.57,-10.57zm-84.41 75.03c5.84,0 10.57,4.73 10.57,10.57 0,5.84 -4.73,10.57 -10.57,10.57 -5.84,0 -10.57,-4.73 -10.57,-10.57 0,-5.84 4.73,-10.57 10.57,-10.57zm16.88 -150.06c5.84,0 10.57,4.73 10.57,10.57 0,5.84 -4.73,10.57 -10.57,10.57 -5.84,0 -10.57,-4.73 -10.57,-10.57 0,-5.84 4.73,-10.57 10.57,-10.57z"/>
 </g>
</svg>
