<?xml version="1.0" encoding="UTF-8"?>
<!DOCTYPE svg PUBLIC "-//W3C//DTD SVG 1.1//EN" "http://www.w3.org/Graphics/SVG/1.1/DTD/svg11.dtd">
<!-- Creator: CorelDRAW 2021 (64-Bit Not for commercial use) -->
<svg xmlns="http://www.w3.org/2000/svg" xml:space="preserve" width="37.7082mm" height="36.8374mm" version="1.1" style="shape-rendering:geometricPrecision; text-rendering:geometricPrecision; image-rendering:optimizeQuality; fill-rule:evenodd; clip-rule:evenodd"
viewBox="0 0 1223.92 1195.66"
 xmlns:xlink="http://www.w3.org/1999/xlink"
 xmlns:xodm="http://www.corel.com/coreldraw/odm/2003">
 <defs>
  <style type="text/css">
   <![CDATA[
    .fil0 {fill:#F1CE4E;fill-rule:nonzero}
   ]]>
  </style>
 </defs>
 <g id="Layer_x0020_1">
  <metadata id="CorelCorpID_0Corel-Layer"/>
  <path class="fil0" d="M590.87 991.41l-262.98 -152.11 0 159.96 262.98 152.11 0 -159.96zm-202.17 -423.15l-46.11 -27.14 0 24.46 -0.09 1.68c0.1,-0.13 0.41,-0.31 1.43,0.23 7.47,4 30.1,15.9 44.77,23.6l0 -22.84zm195.9 -345.58l5.52 17.68 137.15 -140.45c4.36,-7.03 2.67,-15.04 -1.93,-23.47 -8.58,15.87 -21.92,27.63 -24.4,29.74l-116.33 116.5zm-28.96 15.95l-2.99 -9.57 -34.02 -19.52 0.75 10.08 26.42 13.85 0.68 0.36 9.16 4.8zm142.67 -197.28c-1.09,-1.35 -2.17,-2.71 -3.23,-4.08 -3.05,-2.71 -7.31,-4.41 -12.21,-4.76l-1.99 -0.05c-13.65,0 -30.98,18.66 -31.03,18.71l-123.4 125.49 37.1 21.3 114.49 -114.66c0.58,-0.67 1.23,-1.3 1.94,-1.88 0.06,-0.04 19.19,-15.7 20.24,-30.15l0.04 -1.68c0,-3.14 -0.71,-5.91 -1.96,-8.24zm27 -18c1.93,2.34 3.93,4.72 5.94,7.1 22.64,26.86 45.94,54.5 22.11,88.8 -0.52,0.7 -1.08,1.38 -1.71,2.03l-157.3 161.09c-4.87,4.98 -12.6,6.43 -19.08,3.04l-32.66 -17.11c-6.9,9.06 -5.3,11.02 -2.8,14.04 1.81,2.19 3.76,4.56 5.3,6.69 4.55,6.28 7.27,12.5 8.55,18.6 32.32,20.03 66.91,39.08 99.69,58.38 9.13,5.37 16.32,9.71 22.02,15.79 7.09,7.56 10.88,16.19 10.93,28.51l0.34 0 0 62.41 -0.08 0c-0.01,5.64 -2.97,11.11 -8.23,14.07 -0.31,0.17 -49.4,27.82 -103.82,58.43l64.07 37.06c2.59,1.33 4.86,3.37 6.47,6.05 1.58,2.62 2.33,5.51 2.33,8.37l0.02 180.27 140.79 86.27 0.11 0.06 0.11 0.06 0.11 0.06 0.11 0.06 0.11 0.07 0.11 0.07 0.11 0.06 0 0 0.11 0.07 0.11 0.07 0.11 0.07 0 0 0.11 0.07 0.11 0.07 0.11 0.07 0 0 0.11 0.07 0.11 0.08 0.11 0.07 0.1 0.08 0.11 0.08 0.1 0.08 0.1 0.08 0.1 0.08 0.1 0.08 0 0 0.1 0.08 0.1 0.08 0.1 0.08 0.1 0.09 0.1 0.09 0.1 0.08 0 0 0.1 0.09 0.1 0.09 0.1 0.09 0.1 0.09 0.1 0.09 0.09 0.09 0 0 0.1 0.09 0.09 0.09 0.09 0.09 0 0 0.09 0.09 0.09 0.1 0.09 0.1 0 0 0.09 0.1 0.09 0.1 0.09 0.1 0 0 0.09 0.1 0.09 0.1 0.08 0.1 0 0 0.09 0.1 0.08 0.1 0.08 0.11 0 0 0.08 0.11 0.08 0.11 0.08 0.11 0 0 0.08 0.11 0.08 0.11 0.08 0.11 0 0 0.08 0.11 0.08 0.11 0.08 0.11 0.08 0.12 0.07 0.12 0.07 0.11 0 0 0.07 0.12 0.07 0.12 0.07 0.12 0.07 0.12 0.07 0.12 0.06 0.11 0.01 0.01 0.07 0.12 0.07 0.13 0.06 0.1 0.01 0.02 0.07 0.13 0.06 0.13 0.05 0.1 0.01 0.03 0.01 0.03 0.15 0.31 0.02 0.04 0.06 0.13 0.06 0.13 0.04 0.08 0.02 0.05 0.06 0.13 0.05 0.13 0.03 0.07 0.03 0.06 0.05 0.13 0.05 0.13 0.02 0.06 0.03 0.07 0.05 0.13 0.05 0.13 0.02 0.05 0.03 0.08 0.05 0.13 0.04 0.13 0.01 0.04 0.03 0.09 0.04 0.13 0.04 0.13 0.01 0.03 0.07 0.23 0.04 0.13 0 0.02 0.03 0.11 0.04 0.13 0.03 0.13 0 0.01 0.03 0.12 0.03 0.13 0.03 0.13 0.03 0.13 0.03 0.13 0.03 0.12 0 0.01 0.03 0.13 0.02 0.13 0.02 0.11 0 0.02 0.02 0.13 0.02 0.14 0.02 0.1 0 0.03 0.02 0.13 0.02 0.13 0.01 0.09 0 0.04 0.02 0.14 0.01 0.13 0.01 0.08 0 0.05 0.01 0.13 0.01 0.14 0 0.07 0 0.06 0.01 0.13 0.01 0.14 0 0.06 0 0.07 0 0.13 0.01 0.13 0 0.06 0 0.08 0 0.13 0 0.13 0.02 197.37c0,6.29 -3.58,11.74 -8.81,14.43 -56.49,34.37 -112.38,69.75 -169.94,102.25 -5.08,4.54 -12.7,5.54 -18.91,1.94l-294.41 -170.3c-0.69,-0.33 -1.35,-0.72 -1.98,-1.15l-293.45 -169.74c-5.41,-2.63 -9.14,-8.18 -9.14,-14.6l0 -197.37 0.04 0c-0,-2.76 0.7,-5.56 2.18,-8.11 1.58,-2.73 3.84,-4.82 6.44,-6.2l114.28 -64.95 0 -44.07 0.04 0 0 -0.07 0 -0.06 0 -0.13 0 -0.13 0 -0.07 0 -0.06 0.01 -0.13 0 -0.13 0 -0.07 0.01 -0.06 0.01 -0.13 0.01 -0.13 0 -0.07 0.01 -0.06 0.01 -0.13 0.01 -0.13 0.01 -0.08 0.01 -0.05 0.01 -0.13 0.01 -0.13 0.01 -0.08 0.01 -0.05 0.02 -0.13 0.02 -0.13 0.01 -0.08 0.01 -0.05 0.02 -0.13 0.02 -0.13 0.02 -0.09 0.01 -0.04 0.02 -0.13 0.03 -0.13 0.02 -0.09 0.01 -0.04 0.03 -0.13 0.03 -0.13 0.02 -0.09 0.01 -0.04 0.03 -0.13 0.03 -0.13 0.03 -0.1 0.01 -0.03 0.04 -0.13 0.03 -0.13 0.03 -0.1 0.01 -0.03 0.04 -0.13 0.04 -0.13 0.03 -0.1 0.01 -0.03 0.04 -0.13 0.04 -0.13 0.03 -0.1 0.01 -0.02 0.04 -0.13 0.05 -0.13 0.04 -0.1 0.01 -0.02 0.05 -0.13 0.05 -0.13 0.04 -0.11 0.01 -0.02 0.05 -0.13 0.05 -0.12 0.05 -0.11 0.01 -0.02 0.06 -0.12 0.06 -0.12 0.05 -0.11 0.01 -0.01 0.06 -0.12 0.06 -0.12 0.05 -0.11 0.01 -0.01 0.06 -0.12 0.06 -0.12 0.06 -0.12 0 -0 0.06 -0.12 0.06 -0.12 0.06 -0.12 0 -0 0.07 -0.12 0.07 -0.12 0.07 -0.12 0.07 -0.11 0.06 -0.11 0.07 -0.11 0.01 -0.02 0.06 -0.09 0.07 -0.11 0.07 -0.11 0.02 -0.04 0.05 -0.07 0.07 -0.11 0.07 -0.11 0.04 -0.05 0.04 -0.06 0.07 -0.11 0.07 -0.11 0.05 -0.06 0.03 -0.04 0.16 -0.21 0.06 -0.08 0.02 -0.02 0.16 -0.2 0.07 -0.09 0.01 -0.01 0.08 -0.1 0.08 -0.1 0.08 -0.1 0.01 -0.01 0.07 -0.09 0.08 -0.1 0.08 -0.09 0.02 -0.03 0.06 -0.07 0.08 -0.09 0.09 -0.09 0.04 -0.04 0.05 -0.06 0.09 -0.09 0.09 -0.09 0.05 -0.05 0.04 -0.04 0.09 -0.09 0.09 -0.09 0.06 -0.06 0.03 -0.03 0.09 -0.09 0.09 -0.08 0.08 -0.08 0.01 -0.01 0.09 -0.08 0.09 -0.08 0.09 -0.08 0 -0.01 0.09 -0.08 0.1 -0.08 0.09 -0.08 0.02 -0.02 0.08 -0.06 0.1 -0.08 0.1 -0.08 0.04 -0.03 0.06 -0.05 0.1 -0.08 0.1 -0.07 0.05 -0.04 0.05 -0.04 0.1 -0.07 0.1 -0.07 0.07 -0.05 0.04 -0.02 0.1 -0.07 0.1 -0.07 0.08 -0.06 0.02 -0.01 0.1 -0.07 0.1 -0.07 0.1 -0.07 0 0 0.1 -0.07 0.11 -0.06 0.1 -0.06 0.01 -0.01 0.09 -0.06 0.12 -0.07 173.18 -104.56c5.5,-3.31 12.18,-2.98 17.23,0.3l30.13 17.43c30.11,-57.03 72.65,-138.26 72.83,-138.59l0.85 -1.44 -0.03 -0.02c0.04,-0.06 13.06,-20.51 30.33,-20.51 6.02,0 26.85,10.7 46.89,21.82 0.4,-6.45 3.65,-14.11 11.18,-24.43l-16.06 -8.42c-5.37,-2.31 -9.29,-7.46 -9.75,-13.68l-3.66 -49.16c-0.31,-3.22 0.34,-6.55 2.07,-9.57 0.89,-1.55 1.99,-2.9 3.26,-4.03l137.02 -139.35c0.07,-0.08 26.58,-28.85 54.48,-28.85 1.22,0 2.66,0.06 4.28,0.18 13.09,0.95 24.83,6.24 33.4,14.75 2.56,2.55 4.83,5.37 6.76,8.42zm-183.6 540.32c-50.6,28.45 -98.37,55.27 -109.12,61.18l-1.22 0.73c-20.73,11.25 -37.14,5.04 -43.83,1.42l-0.66 -0.32c-0.13,-0.07 -47.45,-24.89 -58.17,-30.63 -15.42,-8.25 -18.11,-22.06 -18.47,-28.59 -0.07,-0.61 -0.11,-1.23 -0.11,-1.86l0 -52.77 0.06 0c0,-0.8 0.06,-1.6 0.18,-2.39 0.04,-8.54 2.79,-22.78 14.58,-44.35 2.45,-4.5 6.42,-11.9 11.37,-21.21l-23.64 -13.67 -141.67 85.52 101.32 58.61 185.32 107.19 141.67 -85.52 -57.62 -33.33zm-120.55 30.54c34.2,-18.98 194.59,-109.25 233.01,-130.88l0 -25.32 -233.01 130.54 0 25.67zm41.04 -165.51c-6.44,6.2 -16.69,5.99 -22.89,-0.44 -6.2,-6.44 -5.99,-16.69 0.44,-22.89l65.13 -62.6c5.56,-5.35 11.53,-11.68 14.79,-18.04 -18.31,-11.03 -61.07,-36.6 -64.22,-36.6 -0.28,0 -0.82,0.86 -1.38,1.93 -0.29,0.91 -0.66,1.8 -1.12,2.67 -0.23,0.45 -81.11,154.96 -99.61,188.82 -7.28,13.32 -10.45,19.01 -11.84,21.43l63.58 37.42 245.51 -137.54c-2.96,-2.64 -7.72,-5.48 -13.62,-8.95 -29.71,-17.49 -59.47,-35.6 -89.36,-52.92 -5.38,9.86 -13.16,18.24 -20.3,25.11l-65.13 62.6zm443.07 279.69l38.61 28.66c7.18,5.32 8.68,15.46 3.36,22.63 -5.32,7.18 -15.46,8.68 -22.63,3.36l-43.71 -32.45 -57.01 -12.89 -24.29 28.85c-5.74,6.83 -15.93,7.71 -22.76,1.97 -6.83,-5.74 -7.71,-15.93 -1.97,-22.76l30.65 -36.39c4.02,-4.77 10.21,-6.64 15.91,-5.37l53.06 11.97 4.44 -28.58 -120.73 -66.92 0 160.33 276.96 152.96 0 -159.78 -126.11 -69.9 -3.77 24.3zm-6.87 -67.52l68.31 -22.16 -44.03 -48.61c-5.99,-6.61 -5.48,-16.84 1.14,-22.82 6.61,-5.99 16.84,-5.48 22.82,1.14l60.22 66.49c1.79,1.77 3.19,3.99 4.01,6.55 2.73,8.51 -1.95,17.62 -10.46,20.35l-63.21 20.49 114.75 63.38 122.26 -67.52 -275.94 -152.56 -122.72 67.43 122.85 67.85zm-164.23 -82.09l156.19 -85.81c4.72,-2.64 10.64,-2.86 15.72,-0.07l309.25 170.97 0.06 0.04 0.07 0.04 0.06 0.03 0.12 0.07 0.12 0.07 0.04 0.02 0.08 0.05 0.12 0.07 0.12 0.07 0.01 0 0.11 0.07 0.12 0.07 0.1 0.06 0.02 0.01 0.12 0.08 0.12 0.08 0.07 0.05 0.05 0.04 0.12 0.08 0.12 0.08 0.04 0.03 0.08 0.06 0.11 0.08 0.11 0.09 0.01 0.01 0.1 0.08 0.11 0.09 0.1 0.07 0.02 0.01 0.11 0.09 0.11 0.09 0.07 0.06 0.04 0.04 0.11 0.09 0.11 0.09 0.04 0.04 0.06 0.06 0.11 0.09 0.11 0.1 0.02 0.01 0.09 0.08 0.1 0.1 0.09 0.09 0.01 0.01 0.1 0.1 0.1 0.1 0.07 0.07 0.03 0.04 0.1 0.1 0.1 0.1 0.04 0.04 0.06 0.06 0.1 0.11 0.1 0.11 0.02 0.02 0.08 0.09 0.1 0.11 0.09 0.1 0.01 0.01 0.09 0.11 0.09 0.11 0.06 0.08 0.03 0.04 0.09 0.12 0.09 0.11 0.04 0.05 0.05 0.06 0.09 0.12 0.09 0.12 0.02 0.03 0.07 0.09 0.09 0.12 0.08 0.12 0 0 0.08 0.12 0.08 0.13 0.08 0.12 0.08 0.13 0.08 0.13 0.04 0.06 0.04 0.06 0.08 0.13 0.08 0.13 0.02 0.03 0.06 0.1 0.07 0.13 0.07 0.13 0.06 0.12 0.06 0.12 0.06 0.12 0.01 0.02 0.05 0.1 0.06 0.12 0.06 0.12 0.02 0.04 0.04 0.08 0.06 0.12 0.06 0.12 0.03 0.06 0.03 0.06 0.06 0.12 0.05 0.12 0.03 0.08 0.02 0.04 0.05 0.12 0.05 0.12 0.04 0.1 0.01 0.02 0.05 0.12 0.05 0.12 0.04 0.12 0.05 0.12 0.04 0.12 0.04 0.12 0.01 0.02 0.03 0.1 0.04 0.12 0.04 0.12 0.01 0.04 0.03 0.08 0.04 0.12 0.04 0.12 0.02 0.06 0.02 0.06 0.04 0.12 0.03 0.12 0.02 0.08 0.01 0.04 0.03 0.12 0.03 0.12 0.02 0.1 0.01 0.02 0.03 0.12 0.03 0.12 0.03 0.12 0.03 0.12 0.02 0.12 0.02 0.13 0 0.02 0.02 0.11 0.02 0.12 0.02 0.12 0.01 0.04 0.01 0.08 0.02 0.12 0.02 0.12 0.01 0.06 0.01 0.06 0.02 0.12 0.01 0.12 0.01 0.08 0 0.04 0.01 0.12 0.01 0.13 0.01 0.1 0 0.02 0.01 0.12 0.01 0.12 0.01 0.25 0.01 0.12 0 0.12 0 0.02 0 0.1 0 0.13 0 0.12 0 0.12 0 0.3 0.03 197.07c0,6.48 -3.8,12.07 -9.28,14.67 -51.81,28.61 -103.44,57.5 -155.59,85.48 -5.73,3.08 -12.48,2.36 -17.36,-1.29l-306.67 -169.37c-5.49,-2.6 -9.28,-8.2 -9.28,-14.67l0 -197.37c0.02,-1.98 0.39,-3.98 1.14,-5.9l0.04 -0.09 0.26 -0.62 0.04 -0.09 0.01 -0.03 0.06 -0.12 0.06 -0.12 0.05 -0.09 0.01 -0.03 0.06 -0.12 0.06 -0.12 0.11 -0.22 0.01 -0.02 0.06 -0.12 0.04 -0.08 0.02 -0.04 0.17 -0.31 0.04 -0.06 0.17 -0.28 0.05 -0.08 0.16 -0.25 0.06 -0.1 0.15 -0.23 0.08 -0.11 0.15 -0.21 0.09 -0.12 0.14 -0.19 0.1 -0.13 0.14 -0.18 0.11 -0.14 0.14 -0.17 0.12 -0.14 0.14 -0.16 0.13 -0.14 0.14 -0.15 0.14 -0.15 0.14 -0.14 0.14 -0.14 0.14 -0.14 0.14 -0.14 0.14 -0.14 0.15 -0.14 0.15 -0.14 0.14 -0.13 0.16 -0.14 0.14 -0.12 0.17 -0.14 0.14 -0.11 0.18 -0.14 0.13 -0.1 0.19 -0.14 0.12 -0.09 0.21 -0.15 0.11 -0.08 0.23 -0.15 0.1 -0.06 0.25 -0.16 0.08 -0.05 0.28 -0.17 0.06 -0.04 0.31 -0.17zm457.3 126.84l-123.86 68.4 0 160.29c41.47,-22.24 82.64,-45.58 123.86,-68.34l0 -160.35zm-568.14 465.67l2.89 -1.62 137.97 -83.92 0 -159.56 -140.86 85.03 0 160.07zm7.74 -346.36l-142.11 85.42 118.18 72.77 70.93 -42.81 71.17 -42.96 -118.17 -72.41zm-16.14 -179.52l-140.86 85.03 0 151.1 140.86 -84.67 0 -151.47zm-491.99 -27.14l-74.17 42.16 74.17 42.9 0 -85.06zm318.67 112.35l-286.22 -165.56 0 151.47 286.22 165.56 0 -151.47zm-146.18 109.89l-262.98 -152.11 0 159.96 262.98 152.11 0 -159.96z"/>
 </g>
</svg>
